%TF.GenerationSoftware,KiCad,Pcbnew,(6.0.11-0)*%
%TF.CreationDate,2023-07-31T17:49:37-05:00*%
%TF.ProjectId,PicoDVI-N64,5069636f-4456-4492-9d4e-36342e6b6963,rev?*%
%TF.SameCoordinates,Original*%
%TF.FileFunction,Legend,Top*%
%TF.FilePolarity,Positive*%
%FSLAX46Y46*%
G04 Gerber Fmt 4.6, Leading zero omitted, Abs format (unit mm)*
G04 Created by KiCad (PCBNEW (6.0.11-0)) date 2023-07-31 17:49:37*
%MOMM*%
%LPD*%
G01*
G04 APERTURE LIST*
%ADD10C,0.120000*%
%ADD11C,0.100000*%
%ADD12C,0.125000*%
%ADD13C,0.150000*%
G04 APERTURE END LIST*
D10*
X169147791Y-116009220D02*
X168247791Y-116009220D01*
X168247791Y-115704458D01*
X168290649Y-115628268D01*
X168333506Y-115590172D01*
X168419220Y-115552077D01*
X168547791Y-115552077D01*
X168633506Y-115590172D01*
X168676363Y-115628268D01*
X168719220Y-115704458D01*
X168719220Y-116009220D01*
X169147791Y-115209220D02*
X168547791Y-115209220D01*
X168247791Y-115209220D02*
X168290649Y-115247315D01*
X168333506Y-115209220D01*
X168290649Y-115171125D01*
X168247791Y-115209220D01*
X168333506Y-115209220D01*
X169104934Y-114485410D02*
X169147791Y-114561601D01*
X169147791Y-114713982D01*
X169104934Y-114790172D01*
X169062077Y-114828268D01*
X168976363Y-114866363D01*
X168719220Y-114866363D01*
X168633506Y-114828268D01*
X168590649Y-114790172D01*
X168547791Y-114713982D01*
X168547791Y-114561601D01*
X168590649Y-114485410D01*
X169147791Y-114028268D02*
X169104934Y-114104458D01*
X169062077Y-114142553D01*
X168976363Y-114180649D01*
X168719220Y-114180649D01*
X168633506Y-114142553D01*
X168590649Y-114104458D01*
X168547791Y-114028268D01*
X168547791Y-113913982D01*
X168590649Y-113837791D01*
X168633506Y-113799696D01*
X168719220Y-113761601D01*
X168976363Y-113761601D01*
X169062077Y-113799696D01*
X169104934Y-113837791D01*
X169147791Y-113913982D01*
X169147791Y-114028268D01*
X169147791Y-112809220D02*
X168247791Y-112809220D01*
X168247791Y-112618744D01*
X168290649Y-112504458D01*
X168376363Y-112428268D01*
X168462077Y-112390172D01*
X168633506Y-112352077D01*
X168762077Y-112352077D01*
X168933506Y-112390172D01*
X169019220Y-112428268D01*
X169104934Y-112504458D01*
X169147791Y-112618744D01*
X169147791Y-112809220D01*
X168247791Y-112123506D02*
X169147791Y-111856839D01*
X168247791Y-111590172D01*
X169147791Y-111323506D02*
X168247791Y-111323506D01*
X169147791Y-110333029D02*
X168247791Y-110333029D01*
X169147791Y-109875887D01*
X168247791Y-109875887D01*
X168247791Y-109152077D02*
X168247791Y-109304458D01*
X168290649Y-109380649D01*
X168333506Y-109418744D01*
X168462077Y-109494934D01*
X168633506Y-109533029D01*
X168976363Y-109533029D01*
X169062077Y-109494934D01*
X169104934Y-109456839D01*
X169147791Y-109380649D01*
X169147791Y-109228268D01*
X169104934Y-109152077D01*
X169062077Y-109113982D01*
X168976363Y-109075887D01*
X168762077Y-109075887D01*
X168676363Y-109113982D01*
X168633506Y-109152077D01*
X168590649Y-109228268D01*
X168590649Y-109380649D01*
X168633506Y-109456839D01*
X168676363Y-109494934D01*
X168762077Y-109533029D01*
X168547791Y-108390172D02*
X169147791Y-108390172D01*
X168204934Y-108580649D02*
X168847791Y-108771125D01*
X168847791Y-108275887D01*
D11*
X150911904Y-106555952D02*
X150930952Y-106498809D01*
X150930952Y-106403571D01*
X150911904Y-106365476D01*
X150892857Y-106346428D01*
X150854761Y-106327380D01*
X150816666Y-106327380D01*
X150778571Y-106346428D01*
X150759523Y-106365476D01*
X150740476Y-106403571D01*
X150721428Y-106479761D01*
X150702380Y-106517857D01*
X150683333Y-106536904D01*
X150645238Y-106555952D01*
X150607142Y-106555952D01*
X150569047Y-106536904D01*
X150550000Y-106517857D01*
X150530952Y-106479761D01*
X150530952Y-106384523D01*
X150550000Y-106327380D01*
X150930952Y-106155952D02*
X150530952Y-106155952D01*
X150530952Y-106060714D01*
X150550000Y-106003571D01*
X150588095Y-105965476D01*
X150626190Y-105946428D01*
X150702380Y-105927380D01*
X150759523Y-105927380D01*
X150835714Y-105946428D01*
X150873809Y-105965476D01*
X150911904Y-106003571D01*
X150930952Y-106060714D01*
X150930952Y-106155952D01*
X150816666Y-105775000D02*
X150816666Y-105584523D01*
X150930952Y-105813095D02*
X150530952Y-105679761D01*
X150930952Y-105546428D01*
X150569047Y-105127380D02*
X150550000Y-105108333D01*
X150530952Y-105070238D01*
X150530952Y-104975000D01*
X150550000Y-104936904D01*
X150569047Y-104917857D01*
X150607142Y-104898809D01*
X150645238Y-104898809D01*
X150702380Y-104917857D01*
X150930952Y-105146428D01*
X150930952Y-104898809D01*
X150930952Y-104727380D02*
X150530952Y-104727380D01*
X150778571Y-104689285D02*
X150930952Y-104575000D01*
X150664285Y-104575000D02*
X150816666Y-104727380D01*
X150569047Y-104422619D02*
X150550000Y-104403571D01*
X150530952Y-104365476D01*
X150530952Y-104270238D01*
X150550000Y-104232142D01*
X150569047Y-104213095D01*
X150607142Y-104194047D01*
X150645238Y-104194047D01*
X150702380Y-104213095D01*
X150930952Y-104441666D01*
X150930952Y-104194047D01*
D12*
X157329761Y-113102380D02*
X157329761Y-112102380D01*
X157329761Y-112578571D02*
X157901190Y-112578571D01*
X157901190Y-113102380D02*
X157901190Y-112102380D01*
X158377380Y-113102380D02*
X158377380Y-112102380D01*
X158615476Y-112102380D01*
X158758333Y-112150000D01*
X158853571Y-112245238D01*
X158901190Y-112340476D01*
X158948809Y-112530952D01*
X158948809Y-112673809D01*
X158901190Y-112864285D01*
X158853571Y-112959523D01*
X158758333Y-113054761D01*
X158615476Y-113102380D01*
X158377380Y-113102380D01*
X159377380Y-113102380D02*
X159377380Y-112102380D01*
X159710714Y-112816666D01*
X160044047Y-112102380D01*
X160044047Y-113102380D01*
X160520238Y-113102380D02*
X160520238Y-112102380D01*
D13*
X167114761Y-95971428D02*
X167162380Y-95828571D01*
X167162380Y-95590476D01*
X167114761Y-95495238D01*
X167067142Y-95447619D01*
X166971904Y-95400000D01*
X166876666Y-95400000D01*
X166781428Y-95447619D01*
X166733809Y-95495238D01*
X166686190Y-95590476D01*
X166638571Y-95780952D01*
X166590952Y-95876190D01*
X166543333Y-95923809D01*
X166448095Y-95971428D01*
X166352857Y-95971428D01*
X166257619Y-95923809D01*
X166210000Y-95876190D01*
X166162380Y-95780952D01*
X166162380Y-95542857D01*
X166210000Y-95400000D01*
X166495714Y-94542857D02*
X167162380Y-94542857D01*
X166495714Y-94971428D02*
X167019523Y-94971428D01*
X167114761Y-94923809D01*
X167162380Y-94828571D01*
X167162380Y-94685714D01*
X167114761Y-94590476D01*
X167067142Y-94542857D01*
X167162380Y-94066666D02*
X166495714Y-94066666D01*
X166686190Y-94066666D02*
X166590952Y-94019047D01*
X166543333Y-93971428D01*
X166495714Y-93876190D01*
X166495714Y-93780952D01*
X166495714Y-93590476D02*
X166495714Y-93209523D01*
X167162380Y-93447619D02*
X166305238Y-93447619D01*
X166210000Y-93400000D01*
X166162380Y-93304761D01*
X166162380Y-93209523D01*
X167162380Y-92447619D02*
X166638571Y-92447619D01*
X166543333Y-92495238D01*
X166495714Y-92590476D01*
X166495714Y-92780952D01*
X166543333Y-92876190D01*
X167114761Y-92447619D02*
X167162380Y-92542857D01*
X167162380Y-92780952D01*
X167114761Y-92876190D01*
X167019523Y-92923809D01*
X166924285Y-92923809D01*
X166829047Y-92876190D01*
X166781428Y-92780952D01*
X166781428Y-92542857D01*
X166733809Y-92447619D01*
X167114761Y-91542857D02*
X167162380Y-91638095D01*
X167162380Y-91828571D01*
X167114761Y-91923809D01*
X167067142Y-91971428D01*
X166971904Y-92019047D01*
X166686190Y-92019047D01*
X166590952Y-91971428D01*
X166543333Y-91923809D01*
X166495714Y-91828571D01*
X166495714Y-91638095D01*
X166543333Y-91542857D01*
X167114761Y-90733333D02*
X167162380Y-90828571D01*
X167162380Y-91019047D01*
X167114761Y-91114285D01*
X167019523Y-91161904D01*
X166638571Y-91161904D01*
X166543333Y-91114285D01*
X166495714Y-91019047D01*
X166495714Y-90828571D01*
X166543333Y-90733333D01*
X166638571Y-90685714D01*
X166733809Y-90685714D01*
X166829047Y-91161904D01*
X166781428Y-90257142D02*
X166781428Y-89495238D01*
X167162380Y-89019047D02*
X166495714Y-89019047D01*
X166590952Y-89019047D02*
X166543333Y-88971428D01*
X166495714Y-88876190D01*
X166495714Y-88733333D01*
X166543333Y-88638095D01*
X166638571Y-88590476D01*
X167162380Y-88590476D01*
X166638571Y-88590476D02*
X166543333Y-88542857D01*
X166495714Y-88447619D01*
X166495714Y-88304761D01*
X166543333Y-88209523D01*
X166638571Y-88161904D01*
X167162380Y-88161904D01*
X167162380Y-87542857D02*
X167114761Y-87638095D01*
X167067142Y-87685714D01*
X166971904Y-87733333D01*
X166686190Y-87733333D01*
X166590952Y-87685714D01*
X166543333Y-87638095D01*
X166495714Y-87542857D01*
X166495714Y-87400000D01*
X166543333Y-87304761D01*
X166590952Y-87257142D01*
X166686190Y-87209523D01*
X166971904Y-87209523D01*
X167067142Y-87257142D01*
X167114761Y-87304761D01*
X167162380Y-87400000D01*
X167162380Y-87542857D01*
X166495714Y-86352380D02*
X167162380Y-86352380D01*
X166495714Y-86780952D02*
X167019523Y-86780952D01*
X167114761Y-86733333D01*
X167162380Y-86638095D01*
X167162380Y-86495238D01*
X167114761Y-86400000D01*
X167067142Y-86352380D01*
X166495714Y-85876190D02*
X167162380Y-85876190D01*
X166590952Y-85876190D02*
X166543333Y-85828571D01*
X166495714Y-85733333D01*
X166495714Y-85590476D01*
X166543333Y-85495238D01*
X166638571Y-85447619D01*
X167162380Y-85447619D01*
X166495714Y-85114285D02*
X166495714Y-84733333D01*
X166162380Y-84971428D02*
X167019523Y-84971428D01*
X167114761Y-84923809D01*
X167162380Y-84828571D01*
X167162380Y-84733333D01*
X168772380Y-93852380D02*
X167772380Y-93852380D01*
X167772380Y-93471428D01*
X167820000Y-93376190D01*
X167867619Y-93328571D01*
X167962857Y-93280952D01*
X168105714Y-93280952D01*
X168200952Y-93328571D01*
X168248571Y-93376190D01*
X168296190Y-93471428D01*
X168296190Y-93852380D01*
X168772380Y-92852380D02*
X168105714Y-92852380D01*
X167772380Y-92852380D02*
X167820000Y-92900000D01*
X167867619Y-92852380D01*
X167820000Y-92804761D01*
X167772380Y-92852380D01*
X167867619Y-92852380D01*
X168724761Y-91947619D02*
X168772380Y-92042857D01*
X168772380Y-92233333D01*
X168724761Y-92328571D01*
X168677142Y-92376190D01*
X168581904Y-92423809D01*
X168296190Y-92423809D01*
X168200952Y-92376190D01*
X168153333Y-92328571D01*
X168105714Y-92233333D01*
X168105714Y-92042857D01*
X168153333Y-91947619D01*
X168772380Y-91376190D02*
X168724761Y-91471428D01*
X168677142Y-91519047D01*
X168581904Y-91566666D01*
X168296190Y-91566666D01*
X168200952Y-91519047D01*
X168153333Y-91471428D01*
X168105714Y-91376190D01*
X168105714Y-91233333D01*
X168153333Y-91138095D01*
X168200952Y-91090476D01*
X168296190Y-91042857D01*
X168581904Y-91042857D01*
X168677142Y-91090476D01*
X168724761Y-91138095D01*
X168772380Y-91233333D01*
X168772380Y-91376190D01*
X168772380Y-89852380D02*
X167772380Y-89852380D01*
X168248571Y-89852380D02*
X168248571Y-89280952D01*
X168772380Y-89280952D02*
X167772380Y-89280952D01*
X168724761Y-88423809D02*
X168772380Y-88519047D01*
X168772380Y-88709523D01*
X168724761Y-88804761D01*
X168629523Y-88852380D01*
X168248571Y-88852380D01*
X168153333Y-88804761D01*
X168105714Y-88709523D01*
X168105714Y-88519047D01*
X168153333Y-88423809D01*
X168248571Y-88376190D01*
X168343809Y-88376190D01*
X168439047Y-88852380D01*
X168772380Y-87947619D02*
X168105714Y-87947619D01*
X168296190Y-87947619D02*
X168200952Y-87900000D01*
X168153333Y-87852380D01*
X168105714Y-87757142D01*
X168105714Y-87661904D01*
X168724761Y-86947619D02*
X168772380Y-87042857D01*
X168772380Y-87233333D01*
X168724761Y-87328571D01*
X168629523Y-87376190D01*
X168248571Y-87376190D01*
X168153333Y-87328571D01*
X168105714Y-87233333D01*
X168105714Y-87042857D01*
X168153333Y-86947619D01*
X168248571Y-86900000D01*
X168343809Y-86900000D01*
X168439047Y-87376190D01*
D11*
X153711904Y-106471428D02*
X153730952Y-106414285D01*
X153730952Y-106319047D01*
X153711904Y-106280952D01*
X153692857Y-106261904D01*
X153654761Y-106242857D01*
X153616666Y-106242857D01*
X153578571Y-106261904D01*
X153559523Y-106280952D01*
X153540476Y-106319047D01*
X153521428Y-106395238D01*
X153502380Y-106433333D01*
X153483333Y-106452380D01*
X153445238Y-106471428D01*
X153407142Y-106471428D01*
X153369047Y-106452380D01*
X153350000Y-106433333D01*
X153330952Y-106395238D01*
X153330952Y-106300000D01*
X153350000Y-106242857D01*
X153692857Y-105842857D02*
X153711904Y-105861904D01*
X153730952Y-105919047D01*
X153730952Y-105957142D01*
X153711904Y-106014285D01*
X153673809Y-106052380D01*
X153635714Y-106071428D01*
X153559523Y-106090476D01*
X153502380Y-106090476D01*
X153426190Y-106071428D01*
X153388095Y-106052380D01*
X153350000Y-106014285D01*
X153330952Y-105957142D01*
X153330952Y-105919047D01*
X153350000Y-105861904D01*
X153369047Y-105842857D01*
X153730952Y-105480952D02*
X153730952Y-105671428D01*
X153330952Y-105671428D01*
X153369047Y-105061904D02*
X153350000Y-105042857D01*
X153330952Y-105004761D01*
X153330952Y-104909523D01*
X153350000Y-104871428D01*
X153369047Y-104852380D01*
X153407142Y-104833333D01*
X153445238Y-104833333D01*
X153502380Y-104852380D01*
X153730952Y-105080952D01*
X153730952Y-104833333D01*
X153730952Y-104661904D02*
X153330952Y-104661904D01*
X153578571Y-104623809D02*
X153730952Y-104509523D01*
X153464285Y-104509523D02*
X153616666Y-104661904D01*
X153369047Y-104357142D02*
X153350000Y-104338095D01*
X153330952Y-104300000D01*
X153330952Y-104204761D01*
X153350000Y-104166666D01*
X153369047Y-104147619D01*
X153407142Y-104128571D01*
X153445238Y-104128571D01*
X153502380Y-104147619D01*
X153730952Y-104376190D01*
X153730952Y-104128571D01*
D10*
%TO.C,*%
X154115000Y-104572936D02*
X154115000Y-105027064D01*
X155585000Y-104572936D02*
X155585000Y-105027064D01*
D13*
%TO.C,J4*%
X166725000Y-112837500D02*
X166725000Y-110162500D01*
X166725000Y-116512500D02*
X150925000Y-116512500D01*
X166725000Y-116512500D02*
X166725000Y-115312500D01*
X165525000Y-108112500D02*
X163975000Y-108112500D01*
X150925000Y-112762500D02*
X150925000Y-110087500D01*
X150925000Y-116512500D02*
X150925000Y-115312500D01*
X154075000Y-108112500D02*
X152525000Y-108112500D01*
D10*
%TO.C,*%
X152760000Y-104572936D02*
X152760000Y-105027064D01*
X151290000Y-104572936D02*
X151290000Y-105027064D01*
%TO.C,REF\u002A\u002A*%
X120675000Y-101650000D02*
X120975000Y-101650000D01*
X148475000Y-80650000D02*
X148875000Y-80650000D01*
X123342000Y-98643000D02*
X120675000Y-98643000D01*
X135775000Y-80650000D02*
X136175000Y-80650000D01*
X133275000Y-101650000D02*
X133675000Y-101650000D01*
X145975000Y-80650000D02*
X146375000Y-80650000D01*
X168875000Y-80650000D02*
X169275000Y-80650000D01*
X140875000Y-101650000D02*
X141275000Y-101650000D01*
X125675000Y-101650000D02*
X126075000Y-101650000D01*
X125675000Y-80650000D02*
X126075000Y-80650000D01*
X130775000Y-80650000D02*
X131175000Y-80650000D01*
X143475000Y-80650000D02*
X143875000Y-80650000D01*
X156175000Y-80650000D02*
X156575000Y-80650000D01*
X123342000Y-101650000D02*
X123342000Y-98643000D01*
X166275000Y-101650000D02*
X166675000Y-101650000D01*
X161275000Y-80650000D02*
X161675000Y-80650000D01*
X158675000Y-80650000D02*
X159075000Y-80650000D01*
X138375000Y-80650000D02*
X138775000Y-80650000D01*
X151075000Y-101650000D02*
X151475000Y-101650000D01*
X130775000Y-101650000D02*
X131175000Y-101650000D01*
X120675000Y-80650000D02*
X120975000Y-80650000D01*
X161275000Y-101650000D02*
X161675000Y-101650000D01*
X153575000Y-80650000D02*
X153975000Y-80650000D01*
X123075000Y-80650000D02*
X123475000Y-80650000D01*
X133275000Y-80650000D02*
X133675000Y-80650000D01*
X158675000Y-101650000D02*
X159075000Y-101650000D01*
X171275000Y-80650000D02*
X171275000Y-101650000D01*
X156175000Y-101650000D02*
X156575000Y-101650000D01*
X163775000Y-80650000D02*
X164175000Y-80650000D01*
X145975000Y-101650000D02*
X146375000Y-101650000D01*
X153575000Y-101650000D02*
X153975000Y-101650000D01*
X135775000Y-101650000D02*
X136175000Y-101650000D01*
X128175000Y-80650000D02*
X128575000Y-80650000D01*
X128175000Y-101650000D02*
X128575000Y-101650000D01*
X138375000Y-101650000D02*
X138775000Y-101650000D01*
X143475000Y-101650000D02*
X143875000Y-101650000D01*
X166275000Y-80650000D02*
X166675000Y-80650000D01*
X123075000Y-101650000D02*
X123475000Y-101650000D01*
X151075000Y-80650000D02*
X151475000Y-80650000D01*
X168875000Y-101650000D02*
X169275000Y-101650000D01*
X163775000Y-101650000D02*
X164175000Y-101650000D01*
X140875000Y-80650000D02*
X141275000Y-80650000D01*
X120675000Y-101650000D02*
X120675000Y-80650000D01*
X148475000Y-101650000D02*
X148875000Y-101650000D01*
%TD*%
M02*
