%TF.GenerationSoftware,KiCad,Pcbnew,(6.0.11-0)*%
%TF.CreationDate,2023-07-08T11:49:29-05:00*%
%TF.ProjectId,PicoDVI-N64,5069636f-4456-4492-9d4e-36342e6b6963,rev?*%
%TF.SameCoordinates,Original*%
%TF.FileFunction,Drillmap*%
%TF.FilePolarity,Positive*%
%FSLAX45Y45*%
G04 Gerber Fmt 4.5, Leading zero omitted, Abs format (unit mm)*
G04 Created by KiCad (PCBNEW (6.0.11-0)) date 2023-07-08 11:49:29*
%MOMM*%
%LPD*%
G01*
G04 APERTURE LIST*
%ADD10C,0.050000*%
%ADD11C,0.200000*%
%ADD12C,0.030000*%
%ADD13C,0.040000*%
%ADD14C,0.102000*%
%ADD15C,0.130000*%
G04 APERTURE END LIST*
D10*
X14707145Y-10320355D02*
X12035354Y-10317500D01*
X17369646Y-10960354D02*
X17369646Y-11609646D01*
X14447854Y-10907854D02*
G75*
G03*
X14397854Y-10957854I6J-50006D01*
G01*
X12032854Y-7870004D02*
G75*
G03*
X11982854Y-7920000I6J-50006D01*
G01*
X17244646Y-10294646D02*
G75*
G03*
X17294646Y-10244646I-6J50006D01*
G01*
X17007852Y-10859648D02*
G75*
G03*
X17057852Y-10909648I50008J8D01*
G01*
X17057855Y-10295355D02*
G75*
G03*
X17007855Y-10345355I5J-50005D01*
G01*
X17319646Y-10910354D02*
X17057852Y-10909648D01*
X11985360Y-10267500D02*
G75*
G03*
X12035354Y-10317500I50000J0D01*
G01*
X17369646Y-10960354D02*
G75*
G03*
X17319646Y-10910354I-50006J-6D01*
G01*
X11985354Y-10267500D02*
X11982854Y-7920000D01*
X17244646Y-10294646D02*
X17057855Y-10295355D01*
X14397854Y-10957854D02*
X14397851Y-11609648D01*
X17292145Y-7917855D02*
G75*
G03*
X17242145Y-7867855I-50005J-5D01*
G01*
X14397852Y-11609648D02*
G75*
G03*
X14447851Y-11659648I50008J8D01*
G01*
X17007855Y-10345355D02*
X17007852Y-10859648D01*
X12032854Y-7870000D02*
X17242145Y-7867855D01*
X17319646Y-11659646D02*
G75*
G03*
X17369646Y-11609646I-6J50006D01*
G01*
X17319646Y-11659646D02*
X14447851Y-11659648D01*
X17294646Y-10244646D02*
X17292145Y-7917855D01*
X14707146Y-10909646D02*
X14447854Y-10907854D01*
X14757145Y-10370355D02*
G75*
G03*
X14707145Y-10320355I-50005J-5D01*
G01*
X14707146Y-10909646D02*
G75*
G03*
X14757146Y-10859646I-6J50006D01*
G01*
X14757146Y-10859646D02*
X14757145Y-10370355D01*
D11*
D12*
X12600000Y-8707500D02*
X12630000Y-8737500D01*
X12630000Y-8707500D02*
X12600000Y-8737500D01*
X12762500Y-9775000D02*
X12792500Y-9805000D01*
X12792500Y-9775000D02*
X12762500Y-9805000D01*
X12902500Y-8710000D02*
X12932500Y-8740000D01*
X12932500Y-8710000D02*
X12902500Y-8740000D01*
X13377500Y-8715000D02*
X13407500Y-8745000D01*
X13407500Y-8715000D02*
X13377500Y-8745000D01*
X13460000Y-9027500D02*
X13490000Y-9057500D01*
X13490000Y-9027500D02*
X13460000Y-9057500D01*
X13615000Y-9242500D02*
X13645000Y-9272500D01*
X13645000Y-9242500D02*
X13615000Y-9272500D01*
X13730000Y-8712500D02*
X13760000Y-8742500D01*
X13760000Y-8712500D02*
X13730000Y-8742500D01*
X14012500Y-9515000D02*
X14042500Y-9545000D01*
X14042500Y-9515000D02*
X14012500Y-9545000D01*
X14322500Y-8575000D02*
X14352500Y-8605000D01*
X14352500Y-8575000D02*
X14322500Y-8605000D01*
X14375000Y-8650000D02*
X14405000Y-8680000D01*
X14405000Y-8650000D02*
X14375000Y-8680000D01*
X14482500Y-10970000D02*
X14512500Y-11000000D01*
X14512500Y-10970000D02*
X14482500Y-11000000D01*
X14490000Y-11557500D02*
X14520000Y-11587500D01*
X14520000Y-11557500D02*
X14490000Y-11587500D01*
X14560000Y-9579016D02*
X14590000Y-9609016D01*
X14590000Y-9579016D02*
X14560000Y-9609016D01*
X14587500Y-8490000D02*
X14617500Y-8520000D01*
X14617500Y-8490000D02*
X14587500Y-8520000D01*
X14856500Y-9554500D02*
X14886500Y-9584500D01*
X14886500Y-9554500D02*
X14856500Y-9584500D01*
X14857500Y-9770000D02*
X14887500Y-9800000D01*
X14887500Y-9770000D02*
X14857500Y-9800000D01*
X14892500Y-8355000D02*
X14922500Y-8385000D01*
X14922500Y-8355000D02*
X14892500Y-8385000D01*
X15090000Y-8357500D02*
X15120000Y-8387500D01*
X15120000Y-8357500D02*
X15090000Y-8387500D01*
X15207000Y-8733500D02*
X15237000Y-8763500D01*
X15237000Y-8733500D02*
X15207000Y-8763500D01*
X15357500Y-10737500D02*
X15387500Y-10767500D01*
X15387500Y-10737500D02*
X15357500Y-10767500D01*
X15392500Y-8810000D02*
X15422500Y-8840000D01*
X15422500Y-8810000D02*
X15392500Y-8840000D01*
X15472500Y-8357500D02*
X15502500Y-8387500D01*
X15502500Y-8357500D02*
X15472500Y-8387500D01*
X15543522Y-10951011D02*
X15573522Y-10981011D01*
X15573522Y-10951011D02*
X15543522Y-10981011D01*
X15630000Y-9520000D02*
X15660000Y-9550000D01*
X15660000Y-9520000D02*
X15630000Y-9550000D01*
X15702500Y-9107500D02*
X15732500Y-9137500D01*
X15732500Y-9107500D02*
X15702500Y-9137500D01*
X15715000Y-10592500D02*
X15745000Y-10622500D01*
X15745000Y-10592500D02*
X15715000Y-10622500D01*
X15722500Y-10312500D02*
X15752500Y-10342500D01*
X15752500Y-10312500D02*
X15722500Y-10342500D01*
X15845000Y-10951250D02*
X15875000Y-10981250D01*
X15875000Y-10951250D02*
X15845000Y-10981250D01*
X15912500Y-11550000D02*
X15942500Y-11580000D01*
X15942500Y-11550000D02*
X15912500Y-11580000D01*
X15960000Y-9472500D02*
X15990000Y-9502500D01*
X15990000Y-9472500D02*
X15960000Y-9502500D01*
X15977500Y-10303950D02*
X16007500Y-10333950D01*
X16007500Y-10303950D02*
X15977500Y-10333950D01*
X15992500Y-9694950D02*
X16022500Y-9724950D01*
X16022500Y-9694950D02*
X15992500Y-9724950D01*
X15995000Y-10951250D02*
X16025000Y-10981250D01*
X16025000Y-10951250D02*
X15995000Y-10981250D01*
X16032500Y-8375000D02*
X16062500Y-8405000D01*
X16062500Y-8375000D02*
X16032500Y-8405000D01*
X16077500Y-10412500D02*
X16107500Y-10442500D01*
X16107500Y-10412500D02*
X16077500Y-10442500D01*
X16125000Y-10292500D02*
X16155000Y-10322500D01*
X16155000Y-10292500D02*
X16125000Y-10322500D01*
X16145000Y-10951250D02*
X16175000Y-10981250D01*
X16175000Y-10951250D02*
X16145000Y-10981250D01*
X16222500Y-8370000D02*
X16252500Y-8400000D01*
X16252500Y-8370000D02*
X16222500Y-8400000D01*
X16295000Y-10951250D02*
X16325000Y-10981250D01*
X16325000Y-10951250D02*
X16295000Y-10981250D01*
X16442500Y-10315000D02*
X16472500Y-10345000D01*
X16472500Y-10315000D02*
X16442500Y-10345000D01*
X16570000Y-10445000D02*
X16600000Y-10475000D01*
X16600000Y-10445000D02*
X16570000Y-10475000D01*
X16725000Y-11090000D02*
X16755000Y-11120000D01*
X16755000Y-11090000D02*
X16725000Y-11120000D01*
X16727500Y-8370000D02*
X16757500Y-8400000D01*
X16757500Y-8370000D02*
X16727500Y-8400000D01*
X16980000Y-8360000D02*
X17010000Y-8390000D01*
X17010000Y-8360000D02*
X16980000Y-8390000D01*
X17192500Y-10167500D02*
X17222500Y-10197500D01*
X17222500Y-10167500D02*
X17192500Y-10197500D01*
X17282500Y-10955000D02*
X17312500Y-10985000D01*
X17312500Y-10955000D02*
X17282500Y-10985000D01*
X17300000Y-11570000D02*
X17330000Y-11600000D01*
X17330000Y-11570000D02*
X17300000Y-11600000D01*
D13*
X12612500Y-9342500D02*
G75*
G03*
X12612500Y-9342500I-20000J0D01*
G01*
X14140500Y-8974500D02*
G75*
G03*
X14140500Y-8974500I-20000J0D01*
G01*
X14142361Y-9076857D02*
G75*
G03*
X14142361Y-9076857I-20000J0D01*
G01*
X14930050Y-9391500D02*
G75*
G03*
X14930050Y-9391500I-20000J0D01*
G01*
X14998782Y-9658718D02*
G75*
G03*
X14998782Y-9658718I-20000J0D01*
G01*
X15007500Y-9770000D02*
G75*
G03*
X15007500Y-9770000I-20000J0D01*
G01*
X15012500Y-10375000D02*
G75*
G03*
X15012500Y-10375000I-20000J0D01*
G01*
X15665000Y-11002500D02*
G75*
G03*
X15665000Y-11002500I-20000J0D01*
G01*
X15715377Y-10499623D02*
G75*
G03*
X15715377Y-10499623I-20000J0D01*
G01*
X15789623Y-10425377D02*
G75*
G03*
X15789623Y-10425377I-20000J0D01*
G01*
X15832732Y-9719950D02*
G75*
G03*
X15832732Y-9719950I-20000J0D01*
G01*
X15938131Y-9720155D02*
G75*
G03*
X15938131Y-9720155I-20000J0D01*
G01*
X15942877Y-10487123D02*
G75*
G03*
X15942877Y-10487123I-20000J0D01*
G01*
X16017123Y-10412877D02*
G75*
G03*
X16017123Y-10412877I-20000J0D01*
G01*
X16201288Y-10397662D02*
G75*
G03*
X16201288Y-10397662I-20000J0D01*
G01*
X16201555Y-9615109D02*
G75*
G03*
X16201555Y-9615109I-20000J0D01*
G01*
X16205000Y-9715000D02*
G75*
G03*
X16205000Y-9715000I-20000J0D01*
G01*
X16280000Y-10495000D02*
G75*
G03*
X16280000Y-10495000I-20000J0D01*
G01*
X16437877Y-10425377D02*
G75*
G03*
X16437877Y-10425377I-20000J0D01*
G01*
X16520000Y-10507500D02*
G75*
G03*
X16520000Y-10507500I-20000J0D01*
G01*
D14*
X12204500Y-8175000D02*
X12204500Y-8277000D01*
X12153500Y-8226000D02*
X12255500Y-8226000D01*
X12204500Y-9953000D02*
X12204500Y-10055000D01*
X12153500Y-10004000D02*
X12255500Y-10004000D01*
X12458500Y-8175000D02*
X12458500Y-8277000D01*
X12407500Y-8226000D02*
X12509500Y-8226000D01*
X12458500Y-9953000D02*
X12458500Y-10055000D01*
X12407500Y-10004000D02*
X12509500Y-10004000D01*
X12712500Y-8175000D02*
X12712500Y-8277000D01*
X12661500Y-8226000D02*
X12763500Y-8226000D01*
X12712500Y-9953000D02*
X12712500Y-10055000D01*
X12661500Y-10004000D02*
X12763500Y-10004000D01*
X12966500Y-8175000D02*
X12966500Y-8277000D01*
X12915500Y-8226000D02*
X13017500Y-8226000D01*
X12966500Y-9953000D02*
X12966500Y-10055000D01*
X12915500Y-10004000D02*
X13017500Y-10004000D01*
X13220500Y-8175000D02*
X13220500Y-8277000D01*
X13169500Y-8226000D02*
X13271500Y-8226000D01*
X13220500Y-9953000D02*
X13220500Y-10055000D01*
X13169500Y-10004000D02*
X13271500Y-10004000D01*
X13474500Y-8175000D02*
X13474500Y-8277000D01*
X13423500Y-8226000D02*
X13525500Y-8226000D01*
X13474500Y-9953000D02*
X13474500Y-10055000D01*
X13423500Y-10004000D02*
X13525500Y-10004000D01*
X13728500Y-8175000D02*
X13728500Y-8277000D01*
X13677500Y-8226000D02*
X13779500Y-8226000D01*
X13728500Y-9953000D02*
X13728500Y-10055000D01*
X13677500Y-10004000D02*
X13779500Y-10004000D01*
X13982500Y-8175000D02*
X13982500Y-8277000D01*
X13931500Y-8226000D02*
X14033500Y-8226000D01*
X13982500Y-9953000D02*
X13982500Y-10055000D01*
X13931500Y-10004000D02*
X14033500Y-10004000D01*
X14236500Y-8175000D02*
X14236500Y-8277000D01*
X14185500Y-8226000D02*
X14287500Y-8226000D01*
X14236500Y-9953000D02*
X14236500Y-10055000D01*
X14185500Y-10004000D02*
X14287500Y-10004000D01*
X14490500Y-8175000D02*
X14490500Y-8277000D01*
X14439500Y-8226000D02*
X14541500Y-8226000D01*
X14490500Y-9953000D02*
X14490500Y-10055000D01*
X14439500Y-10004000D02*
X14541500Y-10004000D01*
X14744500Y-8175000D02*
X14744500Y-8277000D01*
X14693500Y-8226000D02*
X14795500Y-8226000D01*
X14745000Y-9956500D02*
X14745000Y-10058500D01*
X14694000Y-10007500D02*
X14796000Y-10007500D01*
X14998500Y-8175000D02*
X14998500Y-8277000D01*
X14947500Y-8226000D02*
X15049500Y-8226000D01*
X14998500Y-9953000D02*
X14998500Y-10055000D01*
X14947500Y-10004000D02*
X15049500Y-10004000D01*
X15252500Y-8175000D02*
X15252500Y-8277000D01*
X15201500Y-8226000D02*
X15303500Y-8226000D01*
X15506500Y-8175000D02*
X15506500Y-8277000D01*
X15455500Y-8226000D02*
X15557500Y-8226000D01*
X15760500Y-8175000D02*
X15760500Y-8277000D01*
X15709500Y-8226000D02*
X15811500Y-8226000D01*
X16014500Y-8175000D02*
X16014500Y-8277000D01*
X15963500Y-8226000D02*
X16065500Y-8226000D01*
X16268500Y-8175000D02*
X16268500Y-8277000D01*
X16217500Y-8226000D02*
X16319500Y-8226000D01*
X16522500Y-8175000D02*
X16522500Y-8277000D01*
X16471500Y-8226000D02*
X16573500Y-8226000D01*
X16776500Y-8175000D02*
X16776500Y-8277000D01*
X16725500Y-8226000D02*
X16827500Y-8226000D01*
X17030500Y-8175000D02*
X17030500Y-8277000D01*
X16979500Y-8226000D02*
X17081500Y-8226000D01*
D15*
X15143462Y-11447212D02*
X15143462Y-11355288D01*
X15051538Y-11355288D01*
X15051538Y-11447212D01*
X15143462Y-11447212D01*
X15203462Y-10957212D02*
X15203462Y-10865288D01*
X15111538Y-10865288D01*
X15111538Y-10957212D01*
X15203462Y-10957212D01*
X16653462Y-10957212D02*
X16653462Y-10865288D01*
X16561538Y-10865288D01*
X16561538Y-10957212D01*
X16653462Y-10957212D01*
X16713462Y-11447212D02*
X16713462Y-11355288D01*
X16621538Y-11355288D01*
X16621538Y-11447212D01*
X16713462Y-11447212D01*
D11*
X12237973Y-11972624D02*
X12237973Y-11772624D01*
X12285592Y-11772624D01*
X12314163Y-11782148D01*
X12333211Y-11801195D01*
X12342735Y-11820243D01*
X12352259Y-11858338D01*
X12352259Y-11886910D01*
X12342735Y-11925005D01*
X12333211Y-11944052D01*
X12314163Y-11963100D01*
X12285592Y-11972624D01*
X12237973Y-11972624D01*
X12437973Y-11972624D02*
X12437973Y-11839291D01*
X12437973Y-11877386D02*
X12447497Y-11858338D01*
X12457021Y-11848814D01*
X12476068Y-11839291D01*
X12495116Y-11839291D01*
X12561782Y-11972624D02*
X12561782Y-11839291D01*
X12561782Y-11772624D02*
X12552259Y-11782148D01*
X12561782Y-11791672D01*
X12571306Y-11782148D01*
X12561782Y-11772624D01*
X12561782Y-11791672D01*
X12685592Y-11972624D02*
X12666544Y-11963100D01*
X12657021Y-11944052D01*
X12657021Y-11772624D01*
X12790354Y-11972624D02*
X12771306Y-11963100D01*
X12761782Y-11944052D01*
X12761782Y-11772624D01*
X13018925Y-11972624D02*
X13018925Y-11772624D01*
X13085592Y-11915481D01*
X13152259Y-11772624D01*
X13152259Y-11972624D01*
X13333211Y-11972624D02*
X13333211Y-11867862D01*
X13323687Y-11848814D01*
X13304640Y-11839291D01*
X13266544Y-11839291D01*
X13247497Y-11848814D01*
X13333211Y-11963100D02*
X13314163Y-11972624D01*
X13266544Y-11972624D01*
X13247497Y-11963100D01*
X13237973Y-11944052D01*
X13237973Y-11925005D01*
X13247497Y-11905957D01*
X13266544Y-11896433D01*
X13314163Y-11896433D01*
X13333211Y-11886910D01*
X13428449Y-11839291D02*
X13428449Y-12039291D01*
X13428449Y-11848814D02*
X13447497Y-11839291D01*
X13485592Y-11839291D01*
X13504640Y-11848814D01*
X13514163Y-11858338D01*
X13523687Y-11877386D01*
X13523687Y-11934529D01*
X13514163Y-11953576D01*
X13504640Y-11963100D01*
X13485592Y-11972624D01*
X13447497Y-11972624D01*
X13428449Y-11963100D01*
X13609402Y-11953576D02*
X13618925Y-11963100D01*
X13609402Y-11972624D01*
X13599878Y-11963100D01*
X13609402Y-11953576D01*
X13609402Y-11972624D01*
X13609402Y-11848814D02*
X13618925Y-11858338D01*
X13609402Y-11867862D01*
X13599878Y-11858338D01*
X13609402Y-11848814D01*
X13609402Y-11867862D01*
D12*
X11950354Y-12287148D02*
X11980354Y-12317148D01*
X11980354Y-12287148D02*
X11950354Y-12317148D01*
D11*
X12276068Y-12192624D02*
X12295116Y-12192624D01*
X12314163Y-12202148D01*
X12323687Y-12211672D01*
X12333211Y-12230719D01*
X12342735Y-12268814D01*
X12342735Y-12316433D01*
X12333211Y-12354529D01*
X12323687Y-12373576D01*
X12314163Y-12383100D01*
X12295116Y-12392624D01*
X12276068Y-12392624D01*
X12257021Y-12383100D01*
X12247497Y-12373576D01*
X12237973Y-12354529D01*
X12228449Y-12316433D01*
X12228449Y-12268814D01*
X12237973Y-12230719D01*
X12247497Y-12211672D01*
X12257021Y-12202148D01*
X12276068Y-12192624D01*
X12428449Y-12373576D02*
X12437973Y-12383100D01*
X12428449Y-12392624D01*
X12418925Y-12383100D01*
X12428449Y-12373576D01*
X12428449Y-12392624D01*
X12504640Y-12192624D02*
X12628449Y-12192624D01*
X12561782Y-12268814D01*
X12590354Y-12268814D01*
X12609402Y-12278338D01*
X12618925Y-12287862D01*
X12628449Y-12306910D01*
X12628449Y-12354529D01*
X12618925Y-12373576D01*
X12609402Y-12383100D01*
X12590354Y-12392624D01*
X12533211Y-12392624D01*
X12514163Y-12383100D01*
X12504640Y-12373576D01*
X12752259Y-12192624D02*
X12771306Y-12192624D01*
X12790354Y-12202148D01*
X12799878Y-12211672D01*
X12809402Y-12230719D01*
X12818925Y-12268814D01*
X12818925Y-12316433D01*
X12809402Y-12354529D01*
X12799878Y-12373576D01*
X12790354Y-12383100D01*
X12771306Y-12392624D01*
X12752259Y-12392624D01*
X12733211Y-12383100D01*
X12723687Y-12373576D01*
X12714163Y-12354529D01*
X12704640Y-12316433D01*
X12704640Y-12268814D01*
X12714163Y-12230719D01*
X12723687Y-12211672D01*
X12733211Y-12202148D01*
X12752259Y-12192624D01*
X12942735Y-12192624D02*
X12961782Y-12192624D01*
X12980830Y-12202148D01*
X12990354Y-12211672D01*
X12999878Y-12230719D01*
X13009402Y-12268814D01*
X13009402Y-12316433D01*
X12999878Y-12354529D01*
X12990354Y-12373576D01*
X12980830Y-12383100D01*
X12961782Y-12392624D01*
X12942735Y-12392624D01*
X12923687Y-12383100D01*
X12914163Y-12373576D01*
X12904640Y-12354529D01*
X12895116Y-12316433D01*
X12895116Y-12268814D01*
X12904640Y-12230719D01*
X12914163Y-12211672D01*
X12923687Y-12202148D01*
X12942735Y-12192624D01*
X13095116Y-12392624D02*
X13095116Y-12259291D01*
X13095116Y-12278338D02*
X13104640Y-12268814D01*
X13123687Y-12259291D01*
X13152259Y-12259291D01*
X13171306Y-12268814D01*
X13180830Y-12287862D01*
X13180830Y-12392624D01*
X13180830Y-12287862D02*
X13190354Y-12268814D01*
X13209402Y-12259291D01*
X13237973Y-12259291D01*
X13257021Y-12268814D01*
X13266544Y-12287862D01*
X13266544Y-12392624D01*
X13361782Y-12392624D02*
X13361782Y-12259291D01*
X13361782Y-12278338D02*
X13371306Y-12268814D01*
X13390354Y-12259291D01*
X13418925Y-12259291D01*
X13437973Y-12268814D01*
X13447497Y-12287862D01*
X13447497Y-12392624D01*
X13447497Y-12287862D02*
X13457021Y-12268814D01*
X13476068Y-12259291D01*
X13504640Y-12259291D01*
X13523687Y-12268814D01*
X13533211Y-12287862D01*
X13533211Y-12392624D01*
X13923687Y-12183100D02*
X13752259Y-12440243D01*
X14180830Y-12192624D02*
X14199878Y-12192624D01*
X14218925Y-12202148D01*
X14228449Y-12211672D01*
X14237973Y-12230719D01*
X14247497Y-12268814D01*
X14247497Y-12316433D01*
X14237973Y-12354529D01*
X14228449Y-12373576D01*
X14218925Y-12383100D01*
X14199878Y-12392624D01*
X14180830Y-12392624D01*
X14161782Y-12383100D01*
X14152259Y-12373576D01*
X14142735Y-12354529D01*
X14133211Y-12316433D01*
X14133211Y-12268814D01*
X14142735Y-12230719D01*
X14152259Y-12211672D01*
X14161782Y-12202148D01*
X14180830Y-12192624D01*
X14333211Y-12373576D02*
X14342735Y-12383100D01*
X14333211Y-12392624D01*
X14323687Y-12383100D01*
X14333211Y-12373576D01*
X14333211Y-12392624D01*
X14466544Y-12192624D02*
X14485592Y-12192624D01*
X14504640Y-12202148D01*
X14514163Y-12211672D01*
X14523687Y-12230719D01*
X14533211Y-12268814D01*
X14533211Y-12316433D01*
X14523687Y-12354529D01*
X14514163Y-12373576D01*
X14504640Y-12383100D01*
X14485592Y-12392624D01*
X14466544Y-12392624D01*
X14447497Y-12383100D01*
X14437973Y-12373576D01*
X14428449Y-12354529D01*
X14418925Y-12316433D01*
X14418925Y-12268814D01*
X14428449Y-12230719D01*
X14437973Y-12211672D01*
X14447497Y-12202148D01*
X14466544Y-12192624D01*
X14723687Y-12392624D02*
X14609402Y-12392624D01*
X14666544Y-12392624D02*
X14666544Y-12192624D01*
X14647497Y-12221195D01*
X14628449Y-12240243D01*
X14609402Y-12249767D01*
X14914163Y-12392624D02*
X14799878Y-12392624D01*
X14857021Y-12392624D02*
X14857021Y-12192624D01*
X14837973Y-12221195D01*
X14818925Y-12240243D01*
X14799878Y-12249767D01*
X15028449Y-12278338D02*
X15009402Y-12268814D01*
X14999878Y-12259291D01*
X14990354Y-12240243D01*
X14990354Y-12230719D01*
X14999878Y-12211672D01*
X15009402Y-12202148D01*
X15028449Y-12192624D01*
X15066544Y-12192624D01*
X15085592Y-12202148D01*
X15095116Y-12211672D01*
X15104640Y-12230719D01*
X15104640Y-12240243D01*
X15095116Y-12259291D01*
X15085592Y-12268814D01*
X15066544Y-12278338D01*
X15028449Y-12278338D01*
X15009402Y-12287862D01*
X14999878Y-12297386D01*
X14990354Y-12316433D01*
X14990354Y-12354529D01*
X14999878Y-12373576D01*
X15009402Y-12383100D01*
X15028449Y-12392624D01*
X15066544Y-12392624D01*
X15085592Y-12383100D01*
X15095116Y-12373576D01*
X15104640Y-12354529D01*
X15104640Y-12316433D01*
X15095116Y-12297386D01*
X15085592Y-12287862D01*
X15066544Y-12278338D01*
X15180830Y-12192624D02*
X15180830Y-12230719D01*
X15257021Y-12192624D02*
X15257021Y-12230719D01*
X15552259Y-12468814D02*
X15542735Y-12459291D01*
X15523687Y-12430719D01*
X15514163Y-12411672D01*
X15504640Y-12383100D01*
X15495116Y-12335481D01*
X15495116Y-12297386D01*
X15504640Y-12249767D01*
X15514163Y-12221195D01*
X15523687Y-12202148D01*
X15542735Y-12173576D01*
X15552259Y-12164052D01*
X15714163Y-12259291D02*
X15714163Y-12392624D01*
X15666544Y-12183100D02*
X15618925Y-12325957D01*
X15742735Y-12325957D01*
X15799878Y-12192624D02*
X15933211Y-12192624D01*
X15847497Y-12392624D01*
X16161782Y-12392624D02*
X16161782Y-12192624D01*
X16247497Y-12392624D02*
X16247497Y-12287862D01*
X16237973Y-12268814D01*
X16218925Y-12259291D01*
X16190354Y-12259291D01*
X16171306Y-12268814D01*
X16161782Y-12278338D01*
X16371306Y-12392624D02*
X16352259Y-12383100D01*
X16342735Y-12373576D01*
X16333211Y-12354529D01*
X16333211Y-12297386D01*
X16342735Y-12278338D01*
X16352259Y-12268814D01*
X16371306Y-12259291D01*
X16399878Y-12259291D01*
X16418925Y-12268814D01*
X16428449Y-12278338D01*
X16437973Y-12297386D01*
X16437973Y-12354529D01*
X16428449Y-12373576D01*
X16418925Y-12383100D01*
X16399878Y-12392624D01*
X16371306Y-12392624D01*
X16552259Y-12392624D02*
X16533211Y-12383100D01*
X16523687Y-12364052D01*
X16523687Y-12192624D01*
X16704640Y-12383100D02*
X16685592Y-12392624D01*
X16647497Y-12392624D01*
X16628449Y-12383100D01*
X16618925Y-12364052D01*
X16618925Y-12287862D01*
X16628449Y-12268814D01*
X16647497Y-12259291D01*
X16685592Y-12259291D01*
X16704640Y-12268814D01*
X16714163Y-12287862D01*
X16714163Y-12306910D01*
X16618925Y-12325957D01*
X16790354Y-12383100D02*
X16809402Y-12392624D01*
X16847497Y-12392624D01*
X16866544Y-12383100D01*
X16876068Y-12364052D01*
X16876068Y-12354529D01*
X16866544Y-12335481D01*
X16847497Y-12325957D01*
X16818925Y-12325957D01*
X16799878Y-12316433D01*
X16790354Y-12297386D01*
X16790354Y-12287862D01*
X16799878Y-12268814D01*
X16818925Y-12259291D01*
X16847497Y-12259291D01*
X16866544Y-12268814D01*
X16942735Y-12468814D02*
X16952259Y-12459291D01*
X16971306Y-12430719D01*
X16980830Y-12411672D01*
X16990354Y-12383100D01*
X16999878Y-12335481D01*
X16999878Y-12297386D01*
X16990354Y-12249767D01*
X16980830Y-12221195D01*
X16971306Y-12202148D01*
X16952259Y-12173576D01*
X16942735Y-12164052D01*
D13*
X11980354Y-12566148D02*
G75*
G03*
X11980354Y-12566148I-20000J0D01*
G01*
D11*
X12276068Y-12456624D02*
X12295116Y-12456624D01*
X12314163Y-12466148D01*
X12323687Y-12475672D01*
X12333211Y-12494719D01*
X12342735Y-12532814D01*
X12342735Y-12580433D01*
X12333211Y-12618529D01*
X12323687Y-12637576D01*
X12314163Y-12647100D01*
X12295116Y-12656624D01*
X12276068Y-12656624D01*
X12257021Y-12647100D01*
X12247497Y-12637576D01*
X12237973Y-12618529D01*
X12228449Y-12580433D01*
X12228449Y-12532814D01*
X12237973Y-12494719D01*
X12247497Y-12475672D01*
X12257021Y-12466148D01*
X12276068Y-12456624D01*
X12428449Y-12637576D02*
X12437973Y-12647100D01*
X12428449Y-12656624D01*
X12418925Y-12647100D01*
X12428449Y-12637576D01*
X12428449Y-12656624D01*
X12609402Y-12523291D02*
X12609402Y-12656624D01*
X12561782Y-12447100D02*
X12514163Y-12589957D01*
X12637973Y-12589957D01*
X12752259Y-12456624D02*
X12771306Y-12456624D01*
X12790354Y-12466148D01*
X12799878Y-12475672D01*
X12809402Y-12494719D01*
X12818925Y-12532814D01*
X12818925Y-12580433D01*
X12809402Y-12618529D01*
X12799878Y-12637576D01*
X12790354Y-12647100D01*
X12771306Y-12656624D01*
X12752259Y-12656624D01*
X12733211Y-12647100D01*
X12723687Y-12637576D01*
X12714163Y-12618529D01*
X12704640Y-12580433D01*
X12704640Y-12532814D01*
X12714163Y-12494719D01*
X12723687Y-12475672D01*
X12733211Y-12466148D01*
X12752259Y-12456624D01*
X12942735Y-12456624D02*
X12961782Y-12456624D01*
X12980830Y-12466148D01*
X12990354Y-12475672D01*
X12999878Y-12494719D01*
X13009402Y-12532814D01*
X13009402Y-12580433D01*
X12999878Y-12618529D01*
X12990354Y-12637576D01*
X12980830Y-12647100D01*
X12961782Y-12656624D01*
X12942735Y-12656624D01*
X12923687Y-12647100D01*
X12914163Y-12637576D01*
X12904640Y-12618529D01*
X12895116Y-12580433D01*
X12895116Y-12532814D01*
X12904640Y-12494719D01*
X12914163Y-12475672D01*
X12923687Y-12466148D01*
X12942735Y-12456624D01*
X13095116Y-12656624D02*
X13095116Y-12523291D01*
X13095116Y-12542338D02*
X13104640Y-12532814D01*
X13123687Y-12523291D01*
X13152259Y-12523291D01*
X13171306Y-12532814D01*
X13180830Y-12551862D01*
X13180830Y-12656624D01*
X13180830Y-12551862D02*
X13190354Y-12532814D01*
X13209402Y-12523291D01*
X13237973Y-12523291D01*
X13257021Y-12532814D01*
X13266544Y-12551862D01*
X13266544Y-12656624D01*
X13361782Y-12656624D02*
X13361782Y-12523291D01*
X13361782Y-12542338D02*
X13371306Y-12532814D01*
X13390354Y-12523291D01*
X13418925Y-12523291D01*
X13437973Y-12532814D01*
X13447497Y-12551862D01*
X13447497Y-12656624D01*
X13447497Y-12551862D02*
X13457021Y-12532814D01*
X13476068Y-12523291D01*
X13504640Y-12523291D01*
X13523687Y-12532814D01*
X13533211Y-12551862D01*
X13533211Y-12656624D01*
X13923687Y-12447100D02*
X13752259Y-12704243D01*
X14180830Y-12456624D02*
X14199878Y-12456624D01*
X14218925Y-12466148D01*
X14228449Y-12475672D01*
X14237973Y-12494719D01*
X14247497Y-12532814D01*
X14247497Y-12580433D01*
X14237973Y-12618529D01*
X14228449Y-12637576D01*
X14218925Y-12647100D01*
X14199878Y-12656624D01*
X14180830Y-12656624D01*
X14161782Y-12647100D01*
X14152259Y-12637576D01*
X14142735Y-12618529D01*
X14133211Y-12580433D01*
X14133211Y-12532814D01*
X14142735Y-12494719D01*
X14152259Y-12475672D01*
X14161782Y-12466148D01*
X14180830Y-12456624D01*
X14333211Y-12637576D02*
X14342735Y-12647100D01*
X14333211Y-12656624D01*
X14323687Y-12647100D01*
X14333211Y-12637576D01*
X14333211Y-12656624D01*
X14466544Y-12456624D02*
X14485592Y-12456624D01*
X14504640Y-12466148D01*
X14514163Y-12475672D01*
X14523687Y-12494719D01*
X14533211Y-12532814D01*
X14533211Y-12580433D01*
X14523687Y-12618529D01*
X14514163Y-12637576D01*
X14504640Y-12647100D01*
X14485592Y-12656624D01*
X14466544Y-12656624D01*
X14447497Y-12647100D01*
X14437973Y-12637576D01*
X14428449Y-12618529D01*
X14418925Y-12580433D01*
X14418925Y-12532814D01*
X14428449Y-12494719D01*
X14437973Y-12475672D01*
X14447497Y-12466148D01*
X14466544Y-12456624D01*
X14723687Y-12656624D02*
X14609402Y-12656624D01*
X14666544Y-12656624D02*
X14666544Y-12456624D01*
X14647497Y-12485195D01*
X14628449Y-12504243D01*
X14609402Y-12513767D01*
X14904640Y-12456624D02*
X14809402Y-12456624D01*
X14799878Y-12551862D01*
X14809402Y-12542338D01*
X14828449Y-12532814D01*
X14876068Y-12532814D01*
X14895116Y-12542338D01*
X14904640Y-12551862D01*
X14914163Y-12570910D01*
X14914163Y-12618529D01*
X14904640Y-12637576D01*
X14895116Y-12647100D01*
X14876068Y-12656624D01*
X14828449Y-12656624D01*
X14809402Y-12647100D01*
X14799878Y-12637576D01*
X14980830Y-12456624D02*
X15114163Y-12456624D01*
X15028449Y-12656624D01*
X15180830Y-12456624D02*
X15180830Y-12494719D01*
X15257021Y-12456624D02*
X15257021Y-12494719D01*
X15552259Y-12732814D02*
X15542735Y-12723291D01*
X15523687Y-12694719D01*
X15514163Y-12675672D01*
X15504640Y-12647100D01*
X15495116Y-12599481D01*
X15495116Y-12561386D01*
X15504640Y-12513767D01*
X15514163Y-12485195D01*
X15523687Y-12466148D01*
X15542735Y-12437576D01*
X15552259Y-12428052D01*
X15618925Y-12475672D02*
X15628449Y-12466148D01*
X15647497Y-12456624D01*
X15695116Y-12456624D01*
X15714163Y-12466148D01*
X15723687Y-12475672D01*
X15733211Y-12494719D01*
X15733211Y-12513767D01*
X15723687Y-12542338D01*
X15609402Y-12656624D01*
X15733211Y-12656624D01*
X15857021Y-12456624D02*
X15876068Y-12456624D01*
X15895116Y-12466148D01*
X15904640Y-12475672D01*
X15914163Y-12494719D01*
X15923687Y-12532814D01*
X15923687Y-12580433D01*
X15914163Y-12618529D01*
X15904640Y-12637576D01*
X15895116Y-12647100D01*
X15876068Y-12656624D01*
X15857021Y-12656624D01*
X15837973Y-12647100D01*
X15828449Y-12637576D01*
X15818925Y-12618529D01*
X15809402Y-12580433D01*
X15809402Y-12532814D01*
X15818925Y-12494719D01*
X15828449Y-12475672D01*
X15837973Y-12466148D01*
X15857021Y-12456624D01*
X16161782Y-12656624D02*
X16161782Y-12456624D01*
X16247497Y-12656624D02*
X16247497Y-12551862D01*
X16237973Y-12532814D01*
X16218925Y-12523291D01*
X16190354Y-12523291D01*
X16171306Y-12532814D01*
X16161782Y-12542338D01*
X16371306Y-12656624D02*
X16352259Y-12647100D01*
X16342735Y-12637576D01*
X16333211Y-12618529D01*
X16333211Y-12561386D01*
X16342735Y-12542338D01*
X16352259Y-12532814D01*
X16371306Y-12523291D01*
X16399878Y-12523291D01*
X16418925Y-12532814D01*
X16428449Y-12542338D01*
X16437973Y-12561386D01*
X16437973Y-12618529D01*
X16428449Y-12637576D01*
X16418925Y-12647100D01*
X16399878Y-12656624D01*
X16371306Y-12656624D01*
X16552259Y-12656624D02*
X16533211Y-12647100D01*
X16523687Y-12628052D01*
X16523687Y-12456624D01*
X16704640Y-12647100D02*
X16685592Y-12656624D01*
X16647497Y-12656624D01*
X16628449Y-12647100D01*
X16618925Y-12628052D01*
X16618925Y-12551862D01*
X16628449Y-12532814D01*
X16647497Y-12523291D01*
X16685592Y-12523291D01*
X16704640Y-12532814D01*
X16714163Y-12551862D01*
X16714163Y-12570910D01*
X16618925Y-12589957D01*
X16790354Y-12647100D02*
X16809402Y-12656624D01*
X16847497Y-12656624D01*
X16866544Y-12647100D01*
X16876068Y-12628052D01*
X16876068Y-12618529D01*
X16866544Y-12599481D01*
X16847497Y-12589957D01*
X16818925Y-12589957D01*
X16799878Y-12580433D01*
X16790354Y-12561386D01*
X16790354Y-12551862D01*
X16799878Y-12532814D01*
X16818925Y-12523291D01*
X16847497Y-12523291D01*
X16866544Y-12532814D01*
X16942735Y-12732814D02*
X16952259Y-12723291D01*
X16971306Y-12694719D01*
X16980830Y-12675672D01*
X16990354Y-12647100D01*
X16999878Y-12599481D01*
X16999878Y-12561386D01*
X16990354Y-12513767D01*
X16980830Y-12485195D01*
X16971306Y-12466148D01*
X16952259Y-12437576D01*
X16942735Y-12428052D01*
D14*
X11929354Y-12779148D02*
X11929354Y-12881148D01*
X11878354Y-12830148D02*
X11980354Y-12830148D01*
D11*
X12342735Y-12920624D02*
X12228449Y-12920624D01*
X12285592Y-12920624D02*
X12285592Y-12720624D01*
X12266544Y-12749195D01*
X12247497Y-12768243D01*
X12228449Y-12777767D01*
X12428449Y-12901576D02*
X12437973Y-12911100D01*
X12428449Y-12920624D01*
X12418925Y-12911100D01*
X12428449Y-12901576D01*
X12428449Y-12920624D01*
X12561782Y-12720624D02*
X12580830Y-12720624D01*
X12599878Y-12730148D01*
X12609402Y-12739672D01*
X12618925Y-12758719D01*
X12628449Y-12796814D01*
X12628449Y-12844433D01*
X12618925Y-12882529D01*
X12609402Y-12901576D01*
X12599878Y-12911100D01*
X12580830Y-12920624D01*
X12561782Y-12920624D01*
X12542735Y-12911100D01*
X12533211Y-12901576D01*
X12523687Y-12882529D01*
X12514163Y-12844433D01*
X12514163Y-12796814D01*
X12523687Y-12758719D01*
X12533211Y-12739672D01*
X12542735Y-12730148D01*
X12561782Y-12720624D01*
X12704640Y-12739672D02*
X12714163Y-12730148D01*
X12733211Y-12720624D01*
X12780830Y-12720624D01*
X12799878Y-12730148D01*
X12809402Y-12739672D01*
X12818925Y-12758719D01*
X12818925Y-12777767D01*
X12809402Y-12806338D01*
X12695116Y-12920624D01*
X12818925Y-12920624D01*
X12942735Y-12720624D02*
X12961782Y-12720624D01*
X12980830Y-12730148D01*
X12990354Y-12739672D01*
X12999878Y-12758719D01*
X13009402Y-12796814D01*
X13009402Y-12844433D01*
X12999878Y-12882529D01*
X12990354Y-12901576D01*
X12980830Y-12911100D01*
X12961782Y-12920624D01*
X12942735Y-12920624D01*
X12923687Y-12911100D01*
X12914163Y-12901576D01*
X12904640Y-12882529D01*
X12895116Y-12844433D01*
X12895116Y-12796814D01*
X12904640Y-12758719D01*
X12914163Y-12739672D01*
X12923687Y-12730148D01*
X12942735Y-12720624D01*
X13095116Y-12920624D02*
X13095116Y-12787291D01*
X13095116Y-12806338D02*
X13104640Y-12796814D01*
X13123687Y-12787291D01*
X13152259Y-12787291D01*
X13171306Y-12796814D01*
X13180830Y-12815862D01*
X13180830Y-12920624D01*
X13180830Y-12815862D02*
X13190354Y-12796814D01*
X13209402Y-12787291D01*
X13237973Y-12787291D01*
X13257021Y-12796814D01*
X13266544Y-12815862D01*
X13266544Y-12920624D01*
X13361782Y-12920624D02*
X13361782Y-12787291D01*
X13361782Y-12806338D02*
X13371306Y-12796814D01*
X13390354Y-12787291D01*
X13418925Y-12787291D01*
X13437973Y-12796814D01*
X13447497Y-12815862D01*
X13447497Y-12920624D01*
X13447497Y-12815862D02*
X13457021Y-12796814D01*
X13476068Y-12787291D01*
X13504640Y-12787291D01*
X13523687Y-12796814D01*
X13533211Y-12815862D01*
X13533211Y-12920624D01*
X13923687Y-12711100D02*
X13752259Y-12968243D01*
X14180830Y-12720624D02*
X14199878Y-12720624D01*
X14218925Y-12730148D01*
X14228449Y-12739672D01*
X14237973Y-12758719D01*
X14247497Y-12796814D01*
X14247497Y-12844433D01*
X14237973Y-12882529D01*
X14228449Y-12901576D01*
X14218925Y-12911100D01*
X14199878Y-12920624D01*
X14180830Y-12920624D01*
X14161782Y-12911100D01*
X14152259Y-12901576D01*
X14142735Y-12882529D01*
X14133211Y-12844433D01*
X14133211Y-12796814D01*
X14142735Y-12758719D01*
X14152259Y-12739672D01*
X14161782Y-12730148D01*
X14180830Y-12720624D01*
X14333211Y-12901576D02*
X14342735Y-12911100D01*
X14333211Y-12920624D01*
X14323687Y-12911100D01*
X14333211Y-12901576D01*
X14333211Y-12920624D01*
X14466544Y-12720624D02*
X14485592Y-12720624D01*
X14504640Y-12730148D01*
X14514163Y-12739672D01*
X14523687Y-12758719D01*
X14533211Y-12796814D01*
X14533211Y-12844433D01*
X14523687Y-12882529D01*
X14514163Y-12901576D01*
X14504640Y-12911100D01*
X14485592Y-12920624D01*
X14466544Y-12920624D01*
X14447497Y-12911100D01*
X14437973Y-12901576D01*
X14428449Y-12882529D01*
X14418925Y-12844433D01*
X14418925Y-12796814D01*
X14428449Y-12758719D01*
X14437973Y-12739672D01*
X14447497Y-12730148D01*
X14466544Y-12720624D01*
X14704640Y-12787291D02*
X14704640Y-12920624D01*
X14657021Y-12711100D02*
X14609402Y-12853957D01*
X14733211Y-12853957D01*
X14847497Y-12720624D02*
X14866544Y-12720624D01*
X14885592Y-12730148D01*
X14895116Y-12739672D01*
X14904640Y-12758719D01*
X14914163Y-12796814D01*
X14914163Y-12844433D01*
X14904640Y-12882529D01*
X14895116Y-12901576D01*
X14885592Y-12911100D01*
X14866544Y-12920624D01*
X14847497Y-12920624D01*
X14828449Y-12911100D01*
X14818925Y-12901576D01*
X14809402Y-12882529D01*
X14799878Y-12844433D01*
X14799878Y-12796814D01*
X14809402Y-12758719D01*
X14818925Y-12739672D01*
X14828449Y-12730148D01*
X14847497Y-12720624D01*
X14990354Y-12739672D02*
X14999878Y-12730148D01*
X15018925Y-12720624D01*
X15066544Y-12720624D01*
X15085592Y-12730148D01*
X15095116Y-12739672D01*
X15104640Y-12758719D01*
X15104640Y-12777767D01*
X15095116Y-12806338D01*
X14980830Y-12920624D01*
X15104640Y-12920624D01*
X15180830Y-12720624D02*
X15180830Y-12758719D01*
X15257021Y-12720624D02*
X15257021Y-12758719D01*
X15552259Y-12996814D02*
X15542735Y-12987291D01*
X15523687Y-12958719D01*
X15514163Y-12939672D01*
X15504640Y-12911100D01*
X15495116Y-12863481D01*
X15495116Y-12825386D01*
X15504640Y-12777767D01*
X15514163Y-12749195D01*
X15523687Y-12730148D01*
X15542735Y-12701576D01*
X15552259Y-12692052D01*
X15609402Y-12720624D02*
X15733211Y-12720624D01*
X15666544Y-12796814D01*
X15695116Y-12796814D01*
X15714163Y-12806338D01*
X15723687Y-12815862D01*
X15733211Y-12834910D01*
X15733211Y-12882529D01*
X15723687Y-12901576D01*
X15714163Y-12911100D01*
X15695116Y-12920624D01*
X15637973Y-12920624D01*
X15618925Y-12911100D01*
X15609402Y-12901576D01*
X15809402Y-12739672D02*
X15818925Y-12730148D01*
X15837973Y-12720624D01*
X15885592Y-12720624D01*
X15904640Y-12730148D01*
X15914163Y-12739672D01*
X15923687Y-12758719D01*
X15923687Y-12777767D01*
X15914163Y-12806338D01*
X15799878Y-12920624D01*
X15923687Y-12920624D01*
X16161782Y-12920624D02*
X16161782Y-12720624D01*
X16247497Y-12920624D02*
X16247497Y-12815862D01*
X16237973Y-12796814D01*
X16218925Y-12787291D01*
X16190354Y-12787291D01*
X16171306Y-12796814D01*
X16161782Y-12806338D01*
X16371306Y-12920624D02*
X16352259Y-12911100D01*
X16342735Y-12901576D01*
X16333211Y-12882529D01*
X16333211Y-12825386D01*
X16342735Y-12806338D01*
X16352259Y-12796814D01*
X16371306Y-12787291D01*
X16399878Y-12787291D01*
X16418925Y-12796814D01*
X16428449Y-12806338D01*
X16437973Y-12825386D01*
X16437973Y-12882529D01*
X16428449Y-12901576D01*
X16418925Y-12911100D01*
X16399878Y-12920624D01*
X16371306Y-12920624D01*
X16552259Y-12920624D02*
X16533211Y-12911100D01*
X16523687Y-12892052D01*
X16523687Y-12720624D01*
X16704640Y-12911100D02*
X16685592Y-12920624D01*
X16647497Y-12920624D01*
X16628449Y-12911100D01*
X16618925Y-12892052D01*
X16618925Y-12815862D01*
X16628449Y-12796814D01*
X16647497Y-12787291D01*
X16685592Y-12787291D01*
X16704640Y-12796814D01*
X16714163Y-12815862D01*
X16714163Y-12834910D01*
X16618925Y-12853957D01*
X16790354Y-12911100D02*
X16809402Y-12920624D01*
X16847497Y-12920624D01*
X16866544Y-12911100D01*
X16876068Y-12892052D01*
X16876068Y-12882529D01*
X16866544Y-12863481D01*
X16847497Y-12853957D01*
X16818925Y-12853957D01*
X16799878Y-12844433D01*
X16790354Y-12825386D01*
X16790354Y-12815862D01*
X16799878Y-12796814D01*
X16818925Y-12787291D01*
X16847497Y-12787291D01*
X16866544Y-12796814D01*
X16942735Y-12996814D02*
X16952259Y-12987291D01*
X16971306Y-12958719D01*
X16980830Y-12939672D01*
X16990354Y-12911100D01*
X16999878Y-12863481D01*
X16999878Y-12825386D01*
X16990354Y-12777767D01*
X16980830Y-12749195D01*
X16971306Y-12730148D01*
X16952259Y-12701576D01*
X16942735Y-12692052D01*
D15*
X11961316Y-13140110D02*
X11961316Y-13048185D01*
X11869392Y-13048185D01*
X11869392Y-13140110D01*
X11961316Y-13140110D01*
D11*
X12342735Y-13184624D02*
X12228449Y-13184624D01*
X12285592Y-13184624D02*
X12285592Y-12984624D01*
X12266544Y-13013195D01*
X12247497Y-13032243D01*
X12228449Y-13041767D01*
X12428449Y-13165576D02*
X12437973Y-13175100D01*
X12428449Y-13184624D01*
X12418925Y-13175100D01*
X12428449Y-13165576D01*
X12428449Y-13184624D01*
X12504640Y-12984624D02*
X12628449Y-12984624D01*
X12561782Y-13060814D01*
X12590354Y-13060814D01*
X12609402Y-13070338D01*
X12618925Y-13079862D01*
X12628449Y-13098910D01*
X12628449Y-13146529D01*
X12618925Y-13165576D01*
X12609402Y-13175100D01*
X12590354Y-13184624D01*
X12533211Y-13184624D01*
X12514163Y-13175100D01*
X12504640Y-13165576D01*
X12752259Y-12984624D02*
X12771306Y-12984624D01*
X12790354Y-12994148D01*
X12799878Y-13003672D01*
X12809402Y-13022719D01*
X12818925Y-13060814D01*
X12818925Y-13108433D01*
X12809402Y-13146529D01*
X12799878Y-13165576D01*
X12790354Y-13175100D01*
X12771306Y-13184624D01*
X12752259Y-13184624D01*
X12733211Y-13175100D01*
X12723687Y-13165576D01*
X12714163Y-13146529D01*
X12704640Y-13108433D01*
X12704640Y-13060814D01*
X12714163Y-13022719D01*
X12723687Y-13003672D01*
X12733211Y-12994148D01*
X12752259Y-12984624D01*
X12942735Y-12984624D02*
X12961782Y-12984624D01*
X12980830Y-12994148D01*
X12990354Y-13003672D01*
X12999878Y-13022719D01*
X13009402Y-13060814D01*
X13009402Y-13108433D01*
X12999878Y-13146529D01*
X12990354Y-13165576D01*
X12980830Y-13175100D01*
X12961782Y-13184624D01*
X12942735Y-13184624D01*
X12923687Y-13175100D01*
X12914163Y-13165576D01*
X12904640Y-13146529D01*
X12895116Y-13108433D01*
X12895116Y-13060814D01*
X12904640Y-13022719D01*
X12914163Y-13003672D01*
X12923687Y-12994148D01*
X12942735Y-12984624D01*
X13095116Y-13184624D02*
X13095116Y-13051291D01*
X13095116Y-13070338D02*
X13104640Y-13060814D01*
X13123687Y-13051291D01*
X13152259Y-13051291D01*
X13171306Y-13060814D01*
X13180830Y-13079862D01*
X13180830Y-13184624D01*
X13180830Y-13079862D02*
X13190354Y-13060814D01*
X13209402Y-13051291D01*
X13237973Y-13051291D01*
X13257021Y-13060814D01*
X13266544Y-13079862D01*
X13266544Y-13184624D01*
X13361782Y-13184624D02*
X13361782Y-13051291D01*
X13361782Y-13070338D02*
X13371306Y-13060814D01*
X13390354Y-13051291D01*
X13418925Y-13051291D01*
X13437973Y-13060814D01*
X13447497Y-13079862D01*
X13447497Y-13184624D01*
X13447497Y-13079862D02*
X13457021Y-13060814D01*
X13476068Y-13051291D01*
X13504640Y-13051291D01*
X13523687Y-13060814D01*
X13533211Y-13079862D01*
X13533211Y-13184624D01*
X13923687Y-12975100D02*
X13752259Y-13232243D01*
X14180830Y-12984624D02*
X14199878Y-12984624D01*
X14218925Y-12994148D01*
X14228449Y-13003672D01*
X14237973Y-13022719D01*
X14247497Y-13060814D01*
X14247497Y-13108433D01*
X14237973Y-13146529D01*
X14228449Y-13165576D01*
X14218925Y-13175100D01*
X14199878Y-13184624D01*
X14180830Y-13184624D01*
X14161782Y-13175100D01*
X14152259Y-13165576D01*
X14142735Y-13146529D01*
X14133211Y-13108433D01*
X14133211Y-13060814D01*
X14142735Y-13022719D01*
X14152259Y-13003672D01*
X14161782Y-12994148D01*
X14180830Y-12984624D01*
X14333211Y-13165576D02*
X14342735Y-13175100D01*
X14333211Y-13184624D01*
X14323687Y-13175100D01*
X14333211Y-13165576D01*
X14333211Y-13184624D01*
X14466544Y-12984624D02*
X14485592Y-12984624D01*
X14504640Y-12994148D01*
X14514163Y-13003672D01*
X14523687Y-13022719D01*
X14533211Y-13060814D01*
X14533211Y-13108433D01*
X14523687Y-13146529D01*
X14514163Y-13165576D01*
X14504640Y-13175100D01*
X14485592Y-13184624D01*
X14466544Y-13184624D01*
X14447497Y-13175100D01*
X14437973Y-13165576D01*
X14428449Y-13146529D01*
X14418925Y-13108433D01*
X14418925Y-13060814D01*
X14428449Y-13022719D01*
X14437973Y-13003672D01*
X14447497Y-12994148D01*
X14466544Y-12984624D01*
X14714163Y-12984624D02*
X14618925Y-12984624D01*
X14609402Y-13079862D01*
X14618925Y-13070338D01*
X14637973Y-13060814D01*
X14685592Y-13060814D01*
X14704640Y-13070338D01*
X14714163Y-13079862D01*
X14723687Y-13098910D01*
X14723687Y-13146529D01*
X14714163Y-13165576D01*
X14704640Y-13175100D01*
X14685592Y-13184624D01*
X14637973Y-13184624D01*
X14618925Y-13175100D01*
X14609402Y-13165576D01*
X14914163Y-13184624D02*
X14799878Y-13184624D01*
X14857021Y-13184624D02*
X14857021Y-12984624D01*
X14837973Y-13013195D01*
X14818925Y-13032243D01*
X14799878Y-13041767D01*
X14990354Y-13003672D02*
X14999878Y-12994148D01*
X15018925Y-12984624D01*
X15066544Y-12984624D01*
X15085592Y-12994148D01*
X15095116Y-13003672D01*
X15104640Y-13022719D01*
X15104640Y-13041767D01*
X15095116Y-13070338D01*
X14980830Y-13184624D01*
X15104640Y-13184624D01*
X15180830Y-12984624D02*
X15180830Y-13022719D01*
X15257021Y-12984624D02*
X15257021Y-13022719D01*
X15552259Y-13260814D02*
X15542735Y-13251291D01*
X15523687Y-13222719D01*
X15514163Y-13203672D01*
X15504640Y-13175100D01*
X15495116Y-13127481D01*
X15495116Y-13089386D01*
X15504640Y-13041767D01*
X15514163Y-13013195D01*
X15523687Y-12994148D01*
X15542735Y-12965576D01*
X15552259Y-12956052D01*
X15714163Y-13051291D02*
X15714163Y-13184624D01*
X15666544Y-12975100D02*
X15618925Y-13117957D01*
X15742735Y-13117957D01*
X15971306Y-13184624D02*
X15971306Y-12984624D01*
X16057021Y-13184624D02*
X16057021Y-13079862D01*
X16047497Y-13060814D01*
X16028449Y-13051291D01*
X15999878Y-13051291D01*
X15980830Y-13060814D01*
X15971306Y-13070338D01*
X16180830Y-13184624D02*
X16161782Y-13175100D01*
X16152259Y-13165576D01*
X16142735Y-13146529D01*
X16142735Y-13089386D01*
X16152259Y-13070338D01*
X16161782Y-13060814D01*
X16180830Y-13051291D01*
X16209402Y-13051291D01*
X16228449Y-13060814D01*
X16237973Y-13070338D01*
X16247497Y-13089386D01*
X16247497Y-13146529D01*
X16237973Y-13165576D01*
X16228449Y-13175100D01*
X16209402Y-13184624D01*
X16180830Y-13184624D01*
X16361782Y-13184624D02*
X16342735Y-13175100D01*
X16333211Y-13156052D01*
X16333211Y-12984624D01*
X16514163Y-13175100D02*
X16495116Y-13184624D01*
X16457021Y-13184624D01*
X16437973Y-13175100D01*
X16428449Y-13156052D01*
X16428449Y-13079862D01*
X16437973Y-13060814D01*
X16457021Y-13051291D01*
X16495116Y-13051291D01*
X16514163Y-13060814D01*
X16523687Y-13079862D01*
X16523687Y-13098910D01*
X16428449Y-13117957D01*
X16599878Y-13175100D02*
X16618925Y-13184624D01*
X16657021Y-13184624D01*
X16676068Y-13175100D01*
X16685592Y-13156052D01*
X16685592Y-13146529D01*
X16676068Y-13127481D01*
X16657021Y-13117957D01*
X16628449Y-13117957D01*
X16609402Y-13108433D01*
X16599878Y-13089386D01*
X16599878Y-13079862D01*
X16609402Y-13060814D01*
X16628449Y-13051291D01*
X16657021Y-13051291D01*
X16676068Y-13060814D01*
X16752259Y-13260814D02*
X16761782Y-13251291D01*
X16780830Y-13222719D01*
X16790354Y-13203672D01*
X16799878Y-13175100D01*
X16809402Y-13127481D01*
X16809402Y-13089386D01*
X16799878Y-13041767D01*
X16790354Y-13013195D01*
X16780830Y-12994148D01*
X16761782Y-12965576D01*
X16752259Y-12956052D01*
M02*
