%TF.GenerationSoftware,KiCad,Pcbnew,(6.0.11-0)*%
%TF.CreationDate,2023-07-31T17:49:37-05:00*%
%TF.ProjectId,PicoDVI-N64,5069636f-4456-4492-9d4e-36342e6b6963,rev?*%
%TF.SameCoordinates,Original*%
%TF.FileFunction,Soldermask,Top*%
%TF.FilePolarity,Negative*%
%FSLAX46Y46*%
G04 Gerber Fmt 4.6, Leading zero omitted, Abs format (unit mm)*
G04 Created by KiCad (PCBNEW (6.0.11-0)) date 2023-07-31 17:49:37*
%MOMM*%
%LPD*%
G01*
G04 APERTURE LIST*
G04 Aperture macros list*
%AMRoundRect*
0 Rectangle with rounded corners*
0 $1 Rounding radius*
0 $2 $3 $4 $5 $6 $7 $8 $9 X,Y pos of 4 corners*
0 Add a 4 corners polygon primitive as box body*
4,1,4,$2,$3,$4,$5,$6,$7,$8,$9,$2,$3,0*
0 Add four circle primitives for the rounded corners*
1,1,$1+$1,$2,$3*
1,1,$1+$1,$4,$5*
1,1,$1+$1,$6,$7*
1,1,$1+$1,$8,$9*
0 Add four rect primitives between the rounded corners*
20,1,$1+$1,$2,$3,$4,$5,0*
20,1,$1+$1,$4,$5,$6,$7,0*
20,1,$1+$1,$6,$7,$8,$9,0*
20,1,$1+$1,$8,$9,$2,$3,0*%
G04 Aperture macros list end*
%ADD10RoundRect,0.250000X-0.450000X0.350000X-0.450000X-0.350000X0.450000X-0.350000X0.450000X0.350000X0*%
%ADD11R,0.300000X1.900000*%
%ADD12C,1.900000*%
%ADD13O,1.700000X1.700000*%
%ADD14R,1.700000X2.600000*%
%ADD15R,1.700000X1.700000*%
G04 APERTURE END LIST*
D10*
%TO.C,*%
X154850000Y-103800000D03*
X154850000Y-105800000D03*
%TD*%
D11*
%TO.C,J4*%
X163575000Y-108212500D03*
X163075000Y-108212500D03*
X162575000Y-108212500D03*
X162075000Y-108212500D03*
X161575000Y-108212500D03*
X161075000Y-108212500D03*
X160575000Y-108212500D03*
X160075000Y-108212500D03*
X159575000Y-108212500D03*
X159075000Y-108212500D03*
X158575000Y-108212500D03*
X158075000Y-108212500D03*
X157575000Y-108212500D03*
X157075000Y-108212500D03*
X156575000Y-108212500D03*
X156075000Y-108212500D03*
X155575000Y-108212500D03*
X155075000Y-108212500D03*
X154575000Y-108212500D03*
D12*
X166675000Y-114012500D03*
X166075000Y-109112500D03*
X151575000Y-109112500D03*
X150975000Y-114012500D03*
%TD*%
D10*
%TO.C,*%
X152025000Y-103800000D03*
X152025000Y-105800000D03*
%TD*%
D13*
%TO.C,REF\u002A\u002A*%
X122045000Y-100040000D03*
D14*
X122045000Y-100490000D03*
X124585000Y-100490000D03*
D13*
X124585000Y-100040000D03*
D14*
X127125000Y-100490000D03*
D15*
X127125000Y-100040000D03*
D14*
X129665000Y-100490000D03*
D13*
X129665000Y-100040000D03*
D14*
X132205000Y-100490000D03*
D13*
X132205000Y-100040000D03*
X134745000Y-100040000D03*
D14*
X134745000Y-100490000D03*
X137285000Y-100490000D03*
D13*
X137285000Y-100040000D03*
D15*
X139825000Y-100040000D03*
D14*
X139825000Y-100490000D03*
D13*
X142365000Y-100040000D03*
D14*
X142365000Y-100490000D03*
D13*
X144905000Y-100040000D03*
D14*
X144905000Y-100490000D03*
X147445000Y-100490000D03*
D13*
X147450000Y-100075000D03*
X149985000Y-100040000D03*
D14*
X149985000Y-100490000D03*
X152525000Y-100490000D03*
X155065000Y-100490000D03*
X157605000Y-100490000D03*
X160145000Y-100490000D03*
X162685000Y-100490000D03*
X165225000Y-100490000D03*
X167765000Y-100490000D03*
X170305000Y-100490000D03*
X170305000Y-81810000D03*
D13*
X170305000Y-82260000D03*
X167765000Y-82260000D03*
D14*
X167765000Y-81810000D03*
D15*
X165225000Y-82260000D03*
D14*
X165225000Y-81810000D03*
D13*
X162685000Y-82260000D03*
D14*
X162685000Y-81810000D03*
X160145000Y-81810000D03*
D13*
X160145000Y-82260000D03*
X157605000Y-82260000D03*
D14*
X157605000Y-81810000D03*
X155065000Y-81810000D03*
D13*
X155065000Y-82260000D03*
D15*
X152525000Y-82260000D03*
D14*
X152525000Y-81810000D03*
D13*
X149985000Y-82260000D03*
D14*
X149985000Y-81810000D03*
X147445000Y-81810000D03*
D13*
X147445000Y-82260000D03*
D14*
X144905000Y-81810000D03*
D13*
X144905000Y-82260000D03*
D14*
X142365000Y-81810000D03*
D13*
X142365000Y-82260000D03*
D15*
X139825000Y-82260000D03*
D14*
X139825000Y-81810000D03*
D13*
X137285000Y-82260000D03*
D14*
X137285000Y-81810000D03*
D13*
X134745000Y-82260000D03*
D14*
X134745000Y-81810000D03*
X132205000Y-81810000D03*
D13*
X132205000Y-82260000D03*
X129665000Y-82260000D03*
D14*
X129665000Y-81810000D03*
D15*
X127125000Y-82260000D03*
D14*
X127125000Y-81810000D03*
X124585000Y-81810000D03*
D13*
X124585000Y-82260000D03*
X122045000Y-82260000D03*
D14*
X122045000Y-81810000D03*
%TD*%
M02*
