M48
; DRILL file {KiCad (6.0.11-0)} date Saturday, July 08, 2023 at 11:49:30 AM
; FORMAT={-:-/ absolute / inch / decimal}
; #@! TF.CreationDate,2023-07-08T11:49:30-05:00
; #@! TF.GenerationSoftware,Kicad,Pcbnew,(6.0.11-0)
; #@! TF.FileFunction,Plated,1,2,PTH
FMAT,2
INCH
; #@! TA.AperFunction,Plated,PTH,ViaDrill
T1C0.0118
; #@! TA.AperFunction,Plated,PTH,ViaDrill
T2C0.0157
; #@! TA.AperFunction,Plated,PTH,ComponentDrill
T3C0.0402
; #@! TA.AperFunction,Plated,PTH,ComponentDrill
T4C0.0512
%
G90
G05
T1
X4.9665Y-3.4341
X5.0305Y-3.8543
X5.0856Y-3.435
X5.2726Y-3.437
X5.3051Y-3.56
X5.3661Y-3.6447
X5.4114Y-3.436
X5.5226Y-3.752
X5.6447Y-3.3819
X5.6654Y-3.4114
X5.7077Y-4.3248
X5.7106Y-4.5561
X5.7382Y-3.7772
X5.749Y-3.3484
X5.8549Y-3.7675
X5.8553Y-3.8524
X5.8691Y-3.2953
X5.9469Y-3.2963
X5.9929Y-3.4443
X6.0522Y-4.2333
X6.0659Y-3.4744
X6.0974Y-3.2963
X6.1254Y-4.3173
X6.1594Y-3.7539
X6.188Y-3.5915
X6.1929Y-4.1762
X6.1959Y-4.0659
X6.2441Y-4.3174
X6.2707Y-4.5531
X6.2894Y-3.7352
X6.2963Y-4.0626
X6.3022Y-3.8228
X6.3031Y-4.3174
X6.3179Y-3.3031
X6.3356Y-4.1053
X6.3543Y-4.0581
X6.3622Y-4.3174
X6.3927Y-3.3012
X6.4213Y-4.3174
X6.4793Y-4.0669
X6.5295Y-4.1181
X6.5906Y-4.372
X6.5915Y-3.3012
X6.6909Y-3.2972
X6.7746Y-4.0089
X6.81Y-4.3189
X6.8169Y-4.561
T2
X4.9577Y-3.6781
X5.5593Y-3.5333
X5.56Y-3.5736
X5.8701Y-3.6974
X5.8972Y-3.8026
X5.9006Y-3.8465
X5.9026Y-4.0846
X6.1594Y-4.3317
X6.1793Y-4.1337
X6.2085Y-4.1045
X6.2255Y-3.8268
X6.267Y-3.8268
X6.2688Y-4.1288
X6.2981Y-4.0996
X6.3706Y-4.0936
X6.3707Y-3.7855
X6.372Y-3.8248
X6.4016Y-4.1319
X6.4637Y-4.1045
X6.4961Y-4.1368
T3
X4.8049Y-3.2386
X4.8049Y-3.9386
X4.9049Y-3.2386
X4.9049Y-3.9386
X5.0049Y-3.2386
X5.0049Y-3.9386
X5.1049Y-3.2386
X5.1049Y-3.9386
X5.2049Y-3.2386
X5.2049Y-3.9386
X5.3049Y-3.2386
X5.3049Y-3.9386
X5.4049Y-3.2386
X5.4049Y-3.9386
X5.5049Y-3.2386
X5.5049Y-3.9386
X5.6049Y-3.2386
X5.6049Y-3.9386
X5.7049Y-3.2386
X5.7049Y-3.9386
X5.8049Y-3.2386
X5.8051Y-3.94
X5.9049Y-3.2386
X5.9049Y-3.9386
X6.0049Y-3.2386
X6.1049Y-3.2386
X6.2049Y-3.2386
X6.3049Y-3.2386
X6.4049Y-3.2386
X6.5049Y-3.2386
X6.6049Y-3.2386
X6.7049Y-3.2386
T4
X5.9439Y-4.4887
X5.9675Y-4.2958
X6.5384Y-4.2958
X6.562Y-4.4887
T0
M30
