%TF.GenerationSoftware,KiCad,Pcbnew,(6.0.11-0)*%
%TF.CreationDate,2023-07-08T11:49:35-05:00*%
%TF.ProjectId,PicoDVI-N64,5069636f-4456-4492-9d4e-36342e6b6963,rev?*%
%TF.SameCoordinates,Original*%
%TF.FileFunction,Copper,L1,Top*%
%TF.FilePolarity,Positive*%
%FSLAX46Y46*%
G04 Gerber Fmt 4.6, Leading zero omitted, Abs format (unit mm)*
G04 Created by KiCad (PCBNEW (6.0.11-0)) date 2023-07-08 11:49:35*
%MOMM*%
%LPD*%
G01*
G04 APERTURE LIST*
G04 Aperture macros list*
%AMRoundRect*
0 Rectangle with rounded corners*
0 $1 Rounding radius*
0 $2 $3 $4 $5 $6 $7 $8 $9 X,Y pos of 4 corners*
0 Add a 4 corners polygon primitive as box body*
4,1,4,$2,$3,$4,$5,$6,$7,$8,$9,$2,$3,0*
0 Add four circle primitives for the rounded corners*
1,1,$1+$1,$2,$3*
1,1,$1+$1,$4,$5*
1,1,$1+$1,$6,$7*
1,1,$1+$1,$8,$9*
0 Add four rect primitives between the rounded corners*
20,1,$1+$1,$2,$3,$4,$5,0*
20,1,$1+$1,$4,$5,$6,$7,0*
20,1,$1+$1,$6,$7,$8,$9,0*
20,1,$1+$1,$8,$9,$2,$3,0*%
G04 Aperture macros list end*
%TA.AperFunction,SMDPad,CuDef*%
%ADD10RoundRect,0.250000X-0.450000X0.350000X-0.450000X-0.350000X0.450000X-0.350000X0.450000X0.350000X0*%
%TD*%
%TA.AperFunction,SMDPad,CuDef*%
%ADD11R,0.300000X1.900000*%
%TD*%
%TA.AperFunction,ComponentPad*%
%ADD12C,1.900000*%
%TD*%
%TA.AperFunction,ComponentPad*%
%ADD13O,1.700000X1.700000*%
%TD*%
%TA.AperFunction,SMDPad,CuDef*%
%ADD14R,1.700000X3.500000*%
%TD*%
%TA.AperFunction,ComponentPad*%
%ADD15R,1.700000X1.700000*%
%TD*%
%TA.AperFunction,SMDPad,CuDef*%
%ADD16R,3.500000X1.700000*%
%TD*%
%TA.AperFunction,ViaPad*%
%ADD17C,0.800000*%
%TD*%
%TA.AperFunction,ViaPad*%
%ADD18C,0.600000*%
%TD*%
%TA.AperFunction,Conductor*%
%ADD19C,0.200000*%
%TD*%
%TA.AperFunction,Conductor*%
%ADD20C,0.250000*%
%TD*%
G04 APERTURE END LIST*
D10*
%TO.P,,1*%
%TO.N,+5V_HDMI*%
X154850000Y-103800000D03*
%TO.P,,2*%
%TO.N,SCL*%
X154850000Y-105800000D03*
%TD*%
D11*
%TO.P,J4,1,D2+*%
%TO.N,/D2+*%
X163575000Y-108212500D03*
%TO.P,J4,2,D2S*%
%TO.N,GND*%
X163075000Y-108212500D03*
%TO.P,J4,3,D2-*%
%TO.N,/D2-*%
X162575000Y-108212500D03*
%TO.P,J4,4,D1+*%
%TO.N,/D1+*%
X162075000Y-108212500D03*
%TO.P,J4,5,D1S*%
%TO.N,GND*%
X161575000Y-108212500D03*
%TO.P,J4,6,D1-*%
%TO.N,/D1-*%
X161075000Y-108212500D03*
%TO.P,J4,7,D0+*%
%TO.N,/D0+*%
X160575000Y-108212500D03*
%TO.P,J4,8,D0S*%
%TO.N,GND*%
X160075000Y-108212500D03*
%TO.P,J4,9,D0-*%
%TO.N,/D0-*%
X159575000Y-108212500D03*
%TO.P,J4,10,CK+*%
%TO.N,/CK+*%
X159075000Y-108212500D03*
%TO.P,J4,11,CKS*%
%TO.N,GND*%
X158575000Y-108212500D03*
%TO.P,J4,12,CK-*%
%TO.N,/CK-*%
X158075000Y-108212500D03*
%TO.P,J4,13,CEC*%
%TO.N,CEC*%
X157575000Y-108212500D03*
%TO.P,J4,14,UTILITY*%
%TO.N,unconnected-(J4-Pad14)*%
X157075000Y-108212500D03*
%TO.P,J4,15,SCL*%
%TO.N,SCL*%
X156575000Y-108212500D03*
%TO.P,J4,16,SDA*%
%TO.N,SDA*%
X156075000Y-108212500D03*
%TO.P,J4,17,GND*%
%TO.N,GND*%
X155575000Y-108212500D03*
%TO.P,J4,18,+5V*%
%TO.N,+5V_HDMI*%
X155075000Y-108212500D03*
%TO.P,J4,19,HPD*%
%TO.N,unconnected-(J4-Pad19)*%
X154575000Y-108212500D03*
D12*
%TO.P,J4,SH,SH*%
%TO.N,GND*%
X166675000Y-114012500D03*
X166075000Y-109112500D03*
X151575000Y-109112500D03*
X150975000Y-114012500D03*
%TD*%
D10*
%TO.P,,1*%
%TO.N,+5V_HDMI*%
X152025000Y-103800000D03*
%TO.P,,2*%
%TO.N,SDA*%
X152025000Y-105800000D03*
%TD*%
D13*
%TO.P,REF\u002A\u002A,1*%
%TO.N,VIDEO_D0*%
X122045000Y-100040000D03*
D14*
X122045000Y-100940000D03*
%TO.P,REF\u002A\u002A,2*%
%TO.N,VIDEO_D1*%
X124585000Y-100940000D03*
D13*
X124585000Y-100040000D03*
D14*
%TO.P,REF\u002A\u002A,3*%
%TO.N,GND*%
X127125000Y-100940000D03*
D15*
X127125000Y-100040000D03*
D14*
%TO.P,REF\u002A\u002A,4*%
%TO.N,VIDEO_D2*%
X129665000Y-100940000D03*
D13*
X129665000Y-100040000D03*
D14*
%TO.P,REF\u002A\u002A,5*%
%TO.N,VIDEO_D3*%
X132205000Y-100940000D03*
D13*
X132205000Y-100040000D03*
%TO.P,REF\u002A\u002A,6*%
%TO.N,VIDEO_D4*%
X134745000Y-100040000D03*
D14*
X134745000Y-100940000D03*
%TO.P,REF\u002A\u002A,7*%
%TO.N,VIDEO_D5*%
X137285000Y-100940000D03*
D13*
X137285000Y-100040000D03*
D15*
%TO.P,REF\u002A\u002A,8*%
%TO.N,GND*%
X139825000Y-100040000D03*
D14*
X139825000Y-100940000D03*
D13*
%TO.P,REF\u002A\u002A,9*%
%TO.N,VIDEO_D6*%
X142365000Y-100040000D03*
D14*
X142365000Y-100940000D03*
D13*
%TO.P,REF\u002A\u002A,10*%
%TO.N,VIDEO_SYNC*%
X144905000Y-100040000D03*
D14*
X144905000Y-100940000D03*
%TO.P,REF\u002A\u002A,11*%
%TO.N,VIDEO_CLK*%
X147445000Y-100940000D03*
D13*
X147450000Y-100075000D03*
%TO.P,REF\u002A\u002A,12*%
%TO.N,AUDIO_LRCK*%
X149985000Y-100040000D03*
D14*
X149985000Y-100940000D03*
%TO.P,REF\u002A\u002A,13*%
%TO.N,GND*%
X152525000Y-100940000D03*
%TO.P,REF\u002A\u002A,14*%
%TO.N,AUDIO_SDAT*%
X155065000Y-100940000D03*
%TO.P,REF\u002A\u002A,15*%
%TO.N,AUDIO_BCLK*%
X157605000Y-100940000D03*
%TO.P,REF\u002A\u002A,16*%
%TO.N,/PICO_D0+*%
X160145000Y-100940000D03*
%TO.P,REF\u002A\u002A,17*%
%TO.N,/PICO_D0-*%
X162685000Y-100940000D03*
%TO.P,REF\u002A\u002A,18*%
%TO.N,GND*%
X165225000Y-100940000D03*
%TO.P,REF\u002A\u002A,19*%
%TO.N,/PICO_CK+*%
X167765000Y-100940000D03*
%TO.P,REF\u002A\u002A,20*%
%TO.N,/PICO_CK-*%
X170305000Y-100940000D03*
%TO.P,REF\u002A\u002A,21*%
%TO.N,/PICO_D2+*%
X170305000Y-81360000D03*
D13*
X170305000Y-82260000D03*
%TO.P,REF\u002A\u002A,22*%
%TO.N,/PICO_D2-*%
X167765000Y-82260000D03*
D14*
X167765000Y-81360000D03*
D15*
%TO.P,REF\u002A\u002A,23*%
%TO.N,GND*%
X165225000Y-82260000D03*
D14*
X165225000Y-81360000D03*
D13*
%TO.P,REF\u002A\u002A,24*%
%TO.N,/PICO_D1+*%
X162685000Y-82260000D03*
D14*
X162685000Y-81360000D03*
%TO.P,REF\u002A\u002A,25*%
%TO.N,/PICO_D1-*%
X160145000Y-81360000D03*
D13*
X160145000Y-82260000D03*
%TO.P,REF\u002A\u002A,26*%
%TO.N,J4*%
X157605000Y-82260000D03*
D14*
X157605000Y-81360000D03*
%TO.P,REF\u002A\u002A,27*%
%TO.N,J5*%
X155065000Y-81360000D03*
D13*
X155065000Y-82260000D03*
D15*
%TO.P,REF\u002A\u002A,28*%
%TO.N,N/C*%
X152525000Y-82260000D03*
D14*
X152525000Y-81360000D03*
D13*
%TO.P,REF\u002A\u002A,29*%
%TO.N,CEC_CTRL*%
X149985000Y-82260000D03*
D14*
X149985000Y-81360000D03*
%TO.P,REF\u002A\u002A,30*%
%TO.N,N/C*%
X147445000Y-81360000D03*
D13*
X147445000Y-82260000D03*
D14*
%TO.P,REF\u002A\u002A,31*%
X144905000Y-81360000D03*
D13*
X144905000Y-82260000D03*
D14*
%TO.P,REF\u002A\u002A,32*%
X142365000Y-81360000D03*
D13*
X142365000Y-82260000D03*
D15*
%TO.P,REF\u002A\u002A,33*%
%TO.N,GND*%
X139825000Y-82260000D03*
D14*
X139825000Y-81360000D03*
D13*
%TO.P,REF\u002A\u002A,34*%
%TO.N,N/C*%
X137285000Y-82260000D03*
D14*
X137285000Y-81360000D03*
D13*
%TO.P,REF\u002A\u002A,35*%
X134745000Y-82260000D03*
D14*
X134745000Y-81360000D03*
%TO.P,REF\u002A\u002A,36*%
X132205000Y-81360000D03*
D13*
X132205000Y-82260000D03*
%TO.P,REF\u002A\u002A,37*%
X129665000Y-82260000D03*
D14*
X129665000Y-81360000D03*
D15*
%TO.P,REF\u002A\u002A,38*%
%TO.N,GND*%
X127125000Y-82260000D03*
D14*
X127125000Y-81360000D03*
%TO.P,REF\u002A\u002A,39*%
%TO.N,VSYS*%
X124585000Y-81360000D03*
D13*
X124585000Y-82260000D03*
%TO.P,REF\u002A\u002A,40*%
%TO.N,VBUS*%
X122045000Y-82260000D03*
D14*
X122045000Y-81360000D03*
D16*
%TO.P,REF\u002A\u002A,41*%
%TO.N,N/C*%
X170975000Y-93690000D03*
%TO.P,REF\u002A\u002A,42*%
X170975000Y-91150000D03*
%TO.P,REF\u002A\u002A,43*%
X170975000Y-88610000D03*
%TD*%
D17*
%TO.N,/PICO_CK-*%
X161815555Y-96151091D03*
%TO.N,/PICO_CK+*%
X161850000Y-97150000D03*
D18*
%TO.N,GND*%
X129175000Y-87250000D03*
X146025000Y-85050000D03*
X167425000Y-83850000D03*
X157175000Y-91225000D03*
X157375000Y-103275000D03*
X161600000Y-109662500D03*
X160475000Y-83900000D03*
X143375000Y-85900000D03*
X169950000Y-83750000D03*
X140275000Y-95300000D03*
X160925000Y-104275000D03*
X126150000Y-87225000D03*
X153725000Y-107525000D03*
X173150000Y-115850000D03*
X145750000Y-95940160D03*
X154875000Y-83725000D03*
X127775000Y-97900000D03*
X151050000Y-83725000D03*
X154075000Y-88250000D03*
X164575000Y-103300000D03*
X158600000Y-109662500D03*
X159750000Y-94875000D03*
X133925000Y-87300000D03*
X144975000Y-109850000D03*
X136300000Y-92575000D03*
X160100000Y-109662500D03*
X163100000Y-109662500D03*
X157300000Y-106075000D03*
X162375000Y-83850000D03*
X167400000Y-111050000D03*
X165850000Y-104600000D03*
X145050000Y-115725000D03*
X159275000Y-115650000D03*
X137450000Y-87275000D03*
X172075000Y-101825000D03*
X160075000Y-97099500D03*
X155585218Y-109660109D03*
X148715000Y-95695000D03*
X143900000Y-86650000D03*
X149075000Y-83700000D03*
X161400000Y-103075000D03*
X148725000Y-97850000D03*
X159925000Y-103189502D03*
X172975000Y-109700000D03*
X156450000Y-95350000D03*
X152220000Y-87485000D03*
X134750000Y-90425000D03*
D17*
%TO.N,/PICO_D0-*%
X158127324Y-97199500D03*
%TO.N,/PICO_D0+*%
X159181306Y-97201554D03*
%TO.N,/D2+*%
X165000000Y-105075000D03*
%TO.N,/D2-*%
X164178768Y-104253768D03*
%TO.N,/D1+*%
X162600000Y-104950000D03*
%TO.N,/D1-*%
X161812884Y-103976617D03*
%TO.N,/D0+*%
X159971232Y-104128768D03*
%TO.N,/D0-*%
X159228768Y-104871232D03*
%TO.N,/CK+*%
X157696232Y-104253768D03*
%TO.N,/CK-*%
X156953768Y-104996232D03*
%TO.N,AUDIO_BCLK*%
X149787819Y-96587181D03*
%TO.N,AUDIO_SDAT*%
X149875000Y-97700000D03*
%TO.N,+5V_HDMI*%
X149925000Y-103750000D03*
%TO.N,+5V_N64*%
X149100498Y-93915000D03*
X125925000Y-93425000D03*
%TO.N,J5*%
X141205000Y-89745000D03*
%TO.N,J4*%
X141223611Y-90768574D03*
%TO.N,CEC*%
X156450000Y-110025000D03*
%TD*%
D19*
%TO.N,/PICO_CK-*%
X162101091Y-96151091D02*
X162475000Y-96525000D01*
X162475000Y-96525000D02*
X167965686Y-96525000D01*
X169075000Y-97634315D02*
X169075000Y-99100000D01*
X167965686Y-96525000D02*
X169075000Y-97634315D01*
X161815555Y-96151091D02*
X162101091Y-96151091D01*
X169075000Y-99100000D02*
X170015000Y-100040000D01*
X170015000Y-100040000D02*
X170305000Y-100040000D01*
%TO.N,/PICO_CK+*%
X168675000Y-97800000D02*
X168675000Y-99130000D01*
X168675000Y-99130000D02*
X167765000Y-100040000D01*
X167800000Y-96925000D02*
X168675000Y-97800000D01*
X161850000Y-97150000D02*
X162075000Y-96925000D01*
X163700000Y-97270938D02*
X163700000Y-97225000D01*
X164900000Y-97270938D02*
X164900000Y-97225000D01*
X165200000Y-96925000D02*
X165232419Y-96925000D01*
X162075000Y-96925000D02*
X162800000Y-96925000D01*
X163100000Y-97225000D02*
X163100000Y-97270938D01*
X165232419Y-96925000D02*
X167800000Y-96925000D01*
X164300000Y-97225000D02*
X164300000Y-97270938D01*
X165200000Y-96925000D02*
G75*
G03*
X164900000Y-97225000I0J-300000D01*
G01*
X164000000Y-96925000D02*
G75*
G03*
X163700000Y-97225000I0J-300000D01*
G01*
X164900038Y-97270938D02*
G75*
G02*
X164600000Y-97570938I-300038J38D01*
G01*
X164300000Y-97225000D02*
G75*
G03*
X164000000Y-96925000I-300000J0D01*
G01*
X164600000Y-97570900D02*
G75*
G02*
X164300000Y-97270938I0J300000D01*
G01*
X163700038Y-97270938D02*
G75*
G02*
X163400000Y-97570938I-300038J38D01*
G01*
X163400000Y-97570900D02*
G75*
G02*
X163100000Y-97270938I0J300000D01*
G01*
X163100000Y-97225000D02*
G75*
G03*
X162800000Y-96925000I-300000J0D01*
G01*
D20*
%TO.N,GND*%
X155585218Y-109660109D02*
X155600000Y-109645327D01*
X160075000Y-109637500D02*
X160100000Y-109662500D01*
X160075000Y-108212500D02*
X160075000Y-109637500D01*
X158600000Y-108212500D02*
X158600000Y-109662500D01*
X163100000Y-109662500D02*
X163100000Y-108237500D01*
X155600000Y-109645327D02*
X155600000Y-108212500D01*
X163100000Y-108237500D02*
X163075000Y-108212500D01*
X161600000Y-108212500D02*
X161600000Y-109662500D01*
D19*
%TO.N,/PICO_D0-*%
X160525000Y-91400000D02*
X161474593Y-92349593D01*
X161474593Y-95502103D02*
X161115555Y-95861141D01*
X158127324Y-97199500D02*
X158374053Y-96952771D01*
X158374053Y-96952771D02*
X158374053Y-92485261D01*
X161474593Y-92349593D02*
X161474593Y-95502103D01*
X161115555Y-95861141D02*
X161115555Y-98340555D01*
X162685000Y-99910000D02*
X162685000Y-100040000D01*
X158374053Y-92485261D02*
X159459314Y-91400000D01*
X161115555Y-98340555D02*
X162685000Y-99910000D01*
X159459314Y-91400000D02*
X160525000Y-91400000D01*
%TO.N,/PICO_D0+*%
X158824055Y-93224055D02*
X158824055Y-92600945D01*
X160715555Y-98640555D02*
X161085000Y-99010000D01*
X161085000Y-99100000D02*
X160145000Y-100040000D01*
X159476777Y-93524055D02*
X159124055Y-93524055D01*
X161024593Y-95386417D02*
X160715555Y-95695455D01*
X159181306Y-97201554D02*
X158824055Y-96844303D01*
X161024593Y-92574593D02*
X161024593Y-95386417D01*
X160715555Y-95695455D02*
X160715555Y-98640555D01*
X161085000Y-99010000D02*
X161085000Y-99100000D01*
X158824055Y-92600945D02*
X159625000Y-91800000D01*
X158824055Y-96844303D02*
X158824055Y-94424055D01*
X160250000Y-91800000D02*
X161024593Y-92574593D01*
X159625000Y-91800000D02*
X160250000Y-91800000D01*
X159124055Y-94124055D02*
X159476777Y-94124055D01*
X159476777Y-93524123D02*
G75*
G02*
X159776777Y-93824055I23J-299977D01*
G01*
X159124055Y-94124055D02*
G75*
G03*
X158824055Y-94424055I45J-300045D01*
G01*
X158824145Y-93224055D02*
G75*
G03*
X159124055Y-93524055I299955J-45D01*
G01*
X159776755Y-93824055D02*
G75*
G02*
X159476777Y-94124055I-299955J-45D01*
G01*
%TO.N,/D2+*%
X163575000Y-106787499D02*
X163575000Y-108212500D01*
X163300000Y-106512499D02*
X163575000Y-106787499D01*
X165000000Y-105075000D02*
X164418199Y-105075000D01*
X163300000Y-106193199D02*
X163300000Y-106512499D01*
X164418199Y-105075000D02*
X163300000Y-106193199D01*
%TO.N,/D2-*%
X162850000Y-106512499D02*
X162575000Y-106787499D01*
X162575000Y-106787499D02*
X162575000Y-108212500D01*
X162850000Y-106006801D02*
X162850000Y-106512499D01*
X164178768Y-104678033D02*
X162850000Y-106006801D01*
X164178768Y-104253768D02*
X164178768Y-104678033D01*
%TO.N,/D1+*%
X162600000Y-104950000D02*
X162018199Y-104950000D01*
X161800000Y-106512499D02*
X162075000Y-106787499D01*
X161800000Y-105168199D02*
X161800000Y-106512499D01*
X162075000Y-106787499D02*
X162075000Y-108212500D01*
X162018199Y-104950000D02*
X161800000Y-105168199D01*
%TO.N,/D1-*%
X161075000Y-106787499D02*
X161075000Y-108212500D01*
X161350000Y-106512499D02*
X161075000Y-106787499D01*
X161812884Y-104518917D02*
X161350000Y-104981801D01*
X161812884Y-103976617D02*
X161812884Y-104518917D01*
X161350000Y-104981801D02*
X161350000Y-106512499D01*
%TO.N,/D0+*%
X159971232Y-104553033D02*
X159971232Y-104128768D01*
X160300000Y-106512499D02*
X160300000Y-104881801D01*
X160300000Y-104881801D02*
X159971232Y-104553033D01*
X160575000Y-108212500D02*
X160575000Y-106787499D01*
X160575000Y-106787499D02*
X160300000Y-106512499D01*
%TO.N,/D0-*%
X159575000Y-108212500D02*
X159575000Y-106787499D01*
X159850000Y-106512499D02*
X159850000Y-105068199D01*
X159575000Y-106787499D02*
X159850000Y-106512499D01*
X159850000Y-105068199D02*
X159653033Y-104871232D01*
X159653033Y-104871232D02*
X159228768Y-104871232D01*
%TO.N,/CK+*%
X158800000Y-106512499D02*
X159075000Y-106787499D01*
X158800000Y-105781801D02*
X158800000Y-106512499D01*
X159075000Y-106787499D02*
X159075000Y-108212500D01*
X157696232Y-104253768D02*
X157696232Y-104678033D01*
X157696232Y-104678033D02*
X158800000Y-105781801D01*
%TO.N,/CK-*%
X156953768Y-104996232D02*
X157378033Y-104996232D01*
X157378033Y-104996232D02*
X158350000Y-105968199D01*
X158100000Y-108212500D02*
X158050000Y-108162500D01*
X158350000Y-106512499D02*
X158075000Y-106787499D01*
X158075000Y-108212500D02*
X158050000Y-108187500D01*
X158350000Y-105968199D02*
X158350000Y-106512499D01*
X158075000Y-106787499D02*
X158075000Y-108212500D01*
X158100000Y-108212500D02*
X158075000Y-108212500D01*
D20*
%TO.N,AUDIO_BCLK*%
X149787819Y-96587181D02*
X155787181Y-96587181D01*
X157605000Y-98405000D02*
X157605000Y-100040000D01*
X155787181Y-96587181D02*
X157605000Y-98405000D01*
%TO.N,AUDIO_SDAT*%
X149875000Y-97700000D02*
X154775000Y-97700000D01*
X154775000Y-97700000D02*
X155100000Y-98025000D01*
X155100000Y-100005000D02*
X155065000Y-100040000D01*
X155100000Y-98025000D02*
X155100000Y-100005000D01*
%TO.N,+5V_HDMI*%
X154025000Y-109525000D02*
X154025000Y-109150000D01*
X149925000Y-107450000D02*
X149925000Y-103750000D01*
X152325000Y-107450000D02*
X149925000Y-107450000D01*
X155075000Y-108212500D02*
X155075000Y-109275000D01*
X155075000Y-109275000D02*
X154825000Y-109525000D01*
X154025000Y-109150000D02*
X152325000Y-107450000D01*
X149925000Y-103750000D02*
X154850000Y-103750000D01*
X154825000Y-109525000D02*
X154025000Y-109525000D01*
%TO.N,+5V_N64*%
X149100498Y-93915000D02*
X148610498Y-93425000D01*
X148610498Y-93425000D02*
X125925000Y-93425000D01*
%TO.N,J5*%
X152150000Y-85175000D02*
X155065000Y-82260000D01*
X141503574Y-90043574D02*
X141523916Y-90043574D01*
X142069628Y-90318574D02*
X147213202Y-85175000D01*
X141523916Y-90043574D02*
X141798916Y-90318574D01*
X141205000Y-89745000D02*
X141503574Y-90043574D01*
X147213202Y-85175000D02*
X152150000Y-85175000D01*
X141798916Y-90318574D02*
X142069628Y-90318574D01*
%TO.N,J4*%
X147399598Y-85625000D02*
X154240000Y-85625000D01*
X142256024Y-90768574D02*
X147399598Y-85625000D01*
X154240000Y-85625000D02*
X157605000Y-82260000D01*
X141223611Y-90768574D02*
X142256024Y-90768574D01*
%TO.N,SDA*%
X153175000Y-106850000D02*
X152125000Y-105800000D01*
X156075000Y-106962500D02*
X155962500Y-106850000D01*
X155962500Y-106850000D02*
X153175000Y-106850000D01*
X156075000Y-108212500D02*
X156075000Y-106962500D01*
%TO.N,SCL*%
X156575000Y-108212500D02*
X156575000Y-106325000D01*
X156575000Y-106325000D02*
X156050000Y-105800000D01*
X156050000Y-105800000D02*
X155300000Y-105800000D01*
%TO.N,CEC*%
X157575000Y-109462500D02*
X157575000Y-108212500D01*
X156450000Y-110025000D02*
X157012500Y-110025000D01*
X157012500Y-110025000D02*
X157575000Y-109462500D01*
%TD*%
%TA.AperFunction,Conductor*%
%TO.N,GND*%
G36*
X172392626Y-78830066D02*
G01*
X172405409Y-78830067D01*
X172421432Y-78834362D01*
X172434202Y-78830941D01*
X172437326Y-78831146D01*
X172495451Y-78838803D01*
X172527211Y-78847316D01*
X172580866Y-78869543D01*
X172609337Y-78885983D01*
X172648433Y-78915983D01*
X172655409Y-78921336D01*
X172678663Y-78944590D01*
X172714017Y-78990663D01*
X172730457Y-79019134D01*
X172752684Y-79072789D01*
X172761197Y-79104551D01*
X172761859Y-79109578D01*
X172768853Y-79162670D01*
X172769058Y-79165799D01*
X172765638Y-79178568D01*
X172769934Y-79194593D01*
X172769935Y-79207025D01*
X172770987Y-79214979D01*
X172778228Y-85951410D01*
X172779821Y-87433365D01*
X172759892Y-87501507D01*
X172706286Y-87548057D01*
X172653821Y-87559500D01*
X169205252Y-87559500D01*
X169199184Y-87560707D01*
X169158939Y-87568712D01*
X169158938Y-87568712D01*
X169146769Y-87571133D01*
X169080448Y-87615448D01*
X169036133Y-87681769D01*
X169024500Y-87740252D01*
X169024500Y-89479748D01*
X169036133Y-89538231D01*
X169080448Y-89604552D01*
X169146769Y-89648867D01*
X169158938Y-89651288D01*
X169158939Y-89651288D01*
X169199184Y-89659293D01*
X169205252Y-89660500D01*
X172656350Y-89660500D01*
X172724471Y-89680502D01*
X172770964Y-89734158D01*
X172782350Y-89786365D01*
X172782551Y-89973365D01*
X172762622Y-90041507D01*
X172709016Y-90088057D01*
X172656551Y-90099500D01*
X169205252Y-90099500D01*
X169199184Y-90100707D01*
X169158939Y-90108712D01*
X169158938Y-90108712D01*
X169146769Y-90111133D01*
X169080448Y-90155448D01*
X169036133Y-90221769D01*
X169024500Y-90280252D01*
X169024500Y-92019748D01*
X169036133Y-92078231D01*
X169080448Y-92144552D01*
X169146769Y-92188867D01*
X169158938Y-92191288D01*
X169158939Y-92191288D01*
X169199184Y-92199293D01*
X169205252Y-92200500D01*
X172659081Y-92200500D01*
X172727202Y-92220502D01*
X172773695Y-92274158D01*
X172785081Y-92326365D01*
X172785282Y-92513365D01*
X172765353Y-92581507D01*
X172711747Y-92628057D01*
X172659282Y-92639500D01*
X169205252Y-92639500D01*
X169199184Y-92640707D01*
X169158939Y-92648712D01*
X169158938Y-92648712D01*
X169146769Y-92651133D01*
X169080448Y-92695448D01*
X169036133Y-92761769D01*
X169033712Y-92773938D01*
X169033712Y-92773939D01*
X169025707Y-92814184D01*
X169024500Y-92820252D01*
X169024500Y-94559748D01*
X169036133Y-94618231D01*
X169080448Y-94684552D01*
X169146769Y-94728867D01*
X169158938Y-94731288D01*
X169158939Y-94731288D01*
X169199184Y-94739293D01*
X169205252Y-94740500D01*
X172661811Y-94740500D01*
X172729932Y-94760502D01*
X172776425Y-94814158D01*
X172787811Y-94866365D01*
X172795921Y-102410057D01*
X172794949Y-102417471D01*
X172794947Y-102430419D01*
X172790652Y-102446442D01*
X172794071Y-102459210D01*
X172793865Y-102462345D01*
X172786208Y-102520460D01*
X172777694Y-102552226D01*
X172755470Y-102605870D01*
X172739025Y-102634351D01*
X172703674Y-102680419D01*
X172680419Y-102703674D01*
X172634351Y-102739025D01*
X172605870Y-102755470D01*
X172552226Y-102777694D01*
X172520460Y-102786208D01*
X172462345Y-102793865D01*
X172459210Y-102794071D01*
X172446442Y-102790652D01*
X172430421Y-102794947D01*
X172418608Y-102794948D01*
X172410006Y-102796098D01*
X171481978Y-102799621D01*
X171413782Y-102779878D01*
X171367086Y-102726399D01*
X171355500Y-102673622D01*
X171355500Y-99170252D01*
X171343867Y-99111769D01*
X171333842Y-99096765D01*
X171306443Y-99055761D01*
X171299552Y-99045448D01*
X171233231Y-99001133D01*
X171221062Y-98998712D01*
X171221061Y-98998712D01*
X171180816Y-98990707D01*
X171174748Y-98989500D01*
X169501500Y-98989500D01*
X169433379Y-98969498D01*
X169386886Y-98915842D01*
X169375500Y-98863500D01*
X169375500Y-97686685D01*
X169375696Y-97684010D01*
X169377426Y-97678973D01*
X169375589Y-97630044D01*
X169375500Y-97625318D01*
X169375500Y-97606367D01*
X169374618Y-97601634D01*
X169374390Y-97598107D01*
X169373663Y-97578735D01*
X169373662Y-97578733D01*
X169373226Y-97567107D01*
X169368632Y-97556415D01*
X169367595Y-97551812D01*
X169364038Y-97540102D01*
X169362339Y-97535699D01*
X169360209Y-97524262D01*
X169354106Y-97514361D01*
X169354105Y-97514358D01*
X169347271Y-97503271D01*
X169338767Y-97486900D01*
X169332547Y-97472424D01*
X169332546Y-97472422D01*
X169329036Y-97464253D01*
X169325023Y-97459367D01*
X169322840Y-97457184D01*
X169320776Y-97454908D01*
X169320937Y-97454762D01*
X169313825Y-97445766D01*
X169307573Y-97438871D01*
X169301468Y-97428967D01*
X169279680Y-97412399D01*
X169266861Y-97401205D01*
X168215205Y-96349548D01*
X168213449Y-96347514D01*
X168211111Y-96342731D01*
X168175209Y-96309427D01*
X168171804Y-96306147D01*
X168158409Y-96292752D01*
X168154439Y-96290028D01*
X168151791Y-96287703D01*
X168137567Y-96274508D01*
X168137564Y-96274506D01*
X168129040Y-96266599D01*
X168118236Y-96262289D01*
X168114247Y-96259767D01*
X168103459Y-96254006D01*
X168099134Y-96252089D01*
X168089540Y-96245508D01*
X168078221Y-96242822D01*
X168078219Y-96242821D01*
X168065559Y-96239817D01*
X168047962Y-96234252D01*
X168033324Y-96228412D01*
X168033321Y-96228411D01*
X168025064Y-96225117D01*
X168018771Y-96224500D01*
X168015692Y-96224500D01*
X168012619Y-96224350D01*
X168012630Y-96224134D01*
X168001255Y-96222802D01*
X167991940Y-96222346D01*
X167980620Y-96219660D01*
X167969091Y-96221229D01*
X167969090Y-96221229D01*
X167953513Y-96223349D01*
X167936522Y-96224500D01*
X162651661Y-96224500D01*
X162583540Y-96204498D01*
X162562566Y-96187595D01*
X162434404Y-96059433D01*
X162401792Y-96002946D01*
X162401677Y-96002516D01*
X162400599Y-95994329D01*
X162340091Y-95848250D01*
X162243837Y-95722809D01*
X162118396Y-95626555D01*
X161972317Y-95566047D01*
X161964129Y-95564969D01*
X161884647Y-95554505D01*
X161819720Y-95525783D01*
X161780628Y-95466517D01*
X161775093Y-95429583D01*
X161775093Y-92401959D01*
X161775289Y-92399286D01*
X161777018Y-92394251D01*
X161775182Y-92345337D01*
X161775093Y-92340611D01*
X161775093Y-92321645D01*
X161774212Y-92316910D01*
X161773983Y-92313383D01*
X161773813Y-92308847D01*
X161772819Y-92282384D01*
X161768227Y-92271697D01*
X161767188Y-92267085D01*
X161763636Y-92255393D01*
X161761932Y-92250976D01*
X161759802Y-92239540D01*
X161746865Y-92218552D01*
X161738362Y-92202182D01*
X161732142Y-92187705D01*
X161732140Y-92187701D01*
X161728629Y-92179530D01*
X161724615Y-92174644D01*
X161722430Y-92172459D01*
X161720378Y-92170196D01*
X161720538Y-92170051D01*
X161713418Y-92161044D01*
X161707166Y-92154149D01*
X161701061Y-92144245D01*
X161679273Y-92127677D01*
X161666454Y-92116483D01*
X160774519Y-91224548D01*
X160772763Y-91222514D01*
X160770425Y-91217731D01*
X160753337Y-91201879D01*
X160734523Y-91184427D01*
X160731118Y-91181147D01*
X160717723Y-91167752D01*
X160713753Y-91165028D01*
X160711105Y-91162703D01*
X160696881Y-91149508D01*
X160696878Y-91149506D01*
X160688354Y-91141599D01*
X160677550Y-91137289D01*
X160673561Y-91134767D01*
X160662773Y-91129006D01*
X160658448Y-91127089D01*
X160648854Y-91120508D01*
X160637535Y-91117822D01*
X160637533Y-91117821D01*
X160624873Y-91114817D01*
X160607276Y-91109252D01*
X160592638Y-91103412D01*
X160592635Y-91103411D01*
X160584378Y-91100117D01*
X160578085Y-91099500D01*
X160575006Y-91099500D01*
X160571933Y-91099350D01*
X160571944Y-91099134D01*
X160560569Y-91097802D01*
X160551254Y-91097346D01*
X160539934Y-91094660D01*
X160528405Y-91096229D01*
X160528404Y-91096229D01*
X160512827Y-91098349D01*
X160495836Y-91099500D01*
X159511680Y-91099500D01*
X159509007Y-91099304D01*
X159503972Y-91097575D01*
X159492350Y-91098011D01*
X159492348Y-91098011D01*
X159455059Y-91099411D01*
X159450333Y-91099500D01*
X159431366Y-91099500D01*
X159426631Y-91100382D01*
X159423105Y-91100610D01*
X159419365Y-91100751D01*
X159392106Y-91101774D01*
X159381421Y-91106364D01*
X159376821Y-91107401D01*
X159365100Y-91110962D01*
X159360697Y-91112661D01*
X159349261Y-91114791D01*
X159328275Y-91127727D01*
X159311903Y-91136231D01*
X159297426Y-91142451D01*
X159297422Y-91142453D01*
X159289251Y-91145964D01*
X159284365Y-91149978D01*
X159282180Y-91152163D01*
X159279917Y-91154215D01*
X159279772Y-91154055D01*
X159270765Y-91161175D01*
X159263870Y-91167427D01*
X159253966Y-91173532D01*
X159237398Y-91195320D01*
X159226204Y-91208139D01*
X158198601Y-92235742D01*
X158196567Y-92237498D01*
X158191784Y-92239836D01*
X158183872Y-92248365D01*
X158183871Y-92248366D01*
X158158480Y-92275738D01*
X158155200Y-92279143D01*
X158141805Y-92292538D01*
X158139081Y-92296508D01*
X158136756Y-92299156D01*
X158123561Y-92313380D01*
X158123559Y-92313383D01*
X158115652Y-92321907D01*
X158111342Y-92332711D01*
X158108820Y-92336700D01*
X158103059Y-92347488D01*
X158101142Y-92351813D01*
X158094561Y-92361407D01*
X158091875Y-92372726D01*
X158091874Y-92372728D01*
X158088870Y-92385388D01*
X158083305Y-92402985D01*
X158074170Y-92425883D01*
X158073553Y-92432176D01*
X158073553Y-92435255D01*
X158073403Y-92438328D01*
X158073187Y-92438317D01*
X158071855Y-92449692D01*
X158071399Y-92459007D01*
X158068713Y-92470327D01*
X158070282Y-92481856D01*
X158070282Y-92481857D01*
X158072402Y-92497434D01*
X158073553Y-92514425D01*
X158073553Y-96491292D01*
X158053551Y-96559413D01*
X157999895Y-96605906D01*
X157980165Y-96612998D01*
X157978743Y-96613379D01*
X157970562Y-96614456D01*
X157962940Y-96617613D01*
X157962937Y-96617614D01*
X157903072Y-96642411D01*
X157824483Y-96674964D01*
X157699042Y-96771218D01*
X157602788Y-96896659D01*
X157542280Y-97042738D01*
X157521642Y-97199500D01*
X157542280Y-97356262D01*
X157602788Y-97502341D01*
X157699042Y-97627782D01*
X157824483Y-97724036D01*
X157970562Y-97784544D01*
X158127324Y-97805182D01*
X158135512Y-97804104D01*
X158275898Y-97785622D01*
X158284086Y-97784544D01*
X158430165Y-97724036D01*
X158555606Y-97627782D01*
X158560629Y-97621236D01*
X158564193Y-97617672D01*
X158626505Y-97583646D01*
X158697320Y-97588711D01*
X158742383Y-97617672D01*
X158748001Y-97623290D01*
X158753024Y-97629836D01*
X158878465Y-97726090D01*
X159024544Y-97786598D01*
X159181306Y-97807236D01*
X159189494Y-97806158D01*
X159194789Y-97805461D01*
X159338068Y-97786598D01*
X159484147Y-97726090D01*
X159609588Y-97629836D01*
X159705842Y-97504395D01*
X159766350Y-97358316D01*
X159786988Y-97201554D01*
X159766350Y-97044792D01*
X159705842Y-96898713D01*
X159609588Y-96773272D01*
X159484147Y-96677018D01*
X159338068Y-96616510D01*
X159234108Y-96602823D01*
X159169182Y-96574102D01*
X159130090Y-96514837D01*
X159124555Y-96477902D01*
X159124555Y-94550555D01*
X159144557Y-94482434D01*
X159198213Y-94435941D01*
X159250555Y-94424555D01*
X159439446Y-94424555D01*
X159461335Y-94426471D01*
X159476754Y-94429191D01*
X159487609Y-94427278D01*
X159487956Y-94427278D01*
X159493805Y-94426434D01*
X159611233Y-94413210D01*
X159647218Y-94400620D01*
X159732286Y-94370856D01*
X159732289Y-94370855D01*
X159738970Y-94368517D01*
X159744962Y-94364752D01*
X159744964Y-94364751D01*
X159847567Y-94300280D01*
X159853556Y-94296517D01*
X159925676Y-94224392D01*
X159944245Y-94205822D01*
X159944247Y-94205819D01*
X159949245Y-94200821D01*
X159953004Y-94194838D01*
X159953007Y-94194834D01*
X160017472Y-94092222D01*
X160017473Y-94092219D01*
X160021236Y-94086230D01*
X160023629Y-94079391D01*
X160047886Y-94010044D01*
X160065920Y-93958490D01*
X160079097Y-93841400D01*
X160080001Y-93835139D01*
X160080001Y-93834863D01*
X160081913Y-93824009D01*
X160079997Y-93813151D01*
X160079997Y-93812798D01*
X160079157Y-93806983D01*
X160066701Y-93696583D01*
X160065908Y-93689554D01*
X160021201Y-93561844D01*
X159949198Y-93447283D01*
X159853509Y-93351616D01*
X159847521Y-93347854D01*
X159847518Y-93347852D01*
X159782771Y-93307179D01*
X159738933Y-93279640D01*
X159684530Y-93260609D01*
X159617892Y-93237298D01*
X159617889Y-93237297D01*
X159611213Y-93234962D01*
X159604187Y-93234171D01*
X159604183Y-93234170D01*
X159552149Y-93228312D01*
X159542041Y-93226521D01*
X159536155Y-93224172D01*
X159529862Y-93223555D01*
X159516971Y-93223555D01*
X159502876Y-93222764D01*
X159494849Y-93221860D01*
X159487729Y-93220833D01*
X159487613Y-93220833D01*
X159476754Y-93218919D01*
X159465898Y-93220834D01*
X159465897Y-93220834D01*
X159461335Y-93221639D01*
X159439446Y-93223555D01*
X159250555Y-93223555D01*
X159182434Y-93203553D01*
X159135941Y-93149897D01*
X159124555Y-93097555D01*
X159124555Y-92777607D01*
X159144557Y-92709486D01*
X159161460Y-92688511D01*
X159712568Y-92137404D01*
X159774880Y-92103379D01*
X159801663Y-92100500D01*
X160073339Y-92100500D01*
X160141460Y-92120502D01*
X160162434Y-92137405D01*
X160687188Y-92662159D01*
X160721214Y-92724471D01*
X160724093Y-92751254D01*
X160724093Y-95209754D01*
X160704091Y-95277875D01*
X160687189Y-95298849D01*
X160540100Y-95445939D01*
X160538070Y-95447692D01*
X160533286Y-95450030D01*
X160525374Y-95458559D01*
X160525373Y-95458560D01*
X160499982Y-95485932D01*
X160496702Y-95489337D01*
X160483307Y-95502732D01*
X160480583Y-95506702D01*
X160478258Y-95509350D01*
X160465063Y-95523574D01*
X160465061Y-95523577D01*
X160457154Y-95532101D01*
X160452844Y-95542905D01*
X160450322Y-95546894D01*
X160444561Y-95557682D01*
X160442644Y-95562007D01*
X160436063Y-95571601D01*
X160433377Y-95582920D01*
X160433376Y-95582922D01*
X160430372Y-95595582D01*
X160424807Y-95613179D01*
X160418967Y-95627817D01*
X160415672Y-95636077D01*
X160415055Y-95642370D01*
X160415055Y-95645449D01*
X160414905Y-95648522D01*
X160414689Y-95648511D01*
X160413357Y-95659886D01*
X160412901Y-95669201D01*
X160410215Y-95680521D01*
X160411784Y-95692050D01*
X160411784Y-95692051D01*
X160413904Y-95707628D01*
X160415055Y-95724619D01*
X160415055Y-98588189D01*
X160414859Y-98590862D01*
X160413130Y-98595897D01*
X160413566Y-98607519D01*
X160413566Y-98607521D01*
X160414966Y-98644810D01*
X160415055Y-98649536D01*
X160415055Y-98668503D01*
X160415937Y-98673238D01*
X160416165Y-98676764D01*
X160417329Y-98707763D01*
X160421919Y-98718448D01*
X160422956Y-98723048D01*
X160426517Y-98734769D01*
X160428216Y-98739172D01*
X160430346Y-98750608D01*
X160436450Y-98760510D01*
X160443282Y-98771594D01*
X160451786Y-98787966D01*
X160461518Y-98810616D01*
X160458964Y-98811713D01*
X160473627Y-98866579D01*
X160451967Y-98934191D01*
X160397191Y-98979359D01*
X160347665Y-98989500D01*
X159275252Y-98989500D01*
X159269184Y-98990707D01*
X159228939Y-98998712D01*
X159228938Y-98998712D01*
X159216769Y-99001133D01*
X159150448Y-99045448D01*
X159143557Y-99055761D01*
X159116159Y-99096765D01*
X159106133Y-99111769D01*
X159094500Y-99170252D01*
X159094500Y-102709748D01*
X159095707Y-102715816D01*
X159103595Y-102755470D01*
X159106133Y-102768231D01*
X159113026Y-102778547D01*
X159116698Y-102784043D01*
X159150448Y-102834552D01*
X159216769Y-102878867D01*
X159228938Y-102881288D01*
X159228939Y-102881288D01*
X159239653Y-102883419D01*
X159275252Y-102890500D01*
X161014748Y-102890500D01*
X161050347Y-102883419D01*
X161061061Y-102881288D01*
X161061062Y-102881288D01*
X161073231Y-102878867D01*
X161139552Y-102834552D01*
X161173302Y-102784043D01*
X161176974Y-102778547D01*
X161183867Y-102768231D01*
X161186406Y-102755470D01*
X161194293Y-102715816D01*
X161195500Y-102709748D01*
X161195500Y-99466661D01*
X161215502Y-99398540D01*
X161232405Y-99377566D01*
X161260452Y-99349519D01*
X161262486Y-99347763D01*
X161267269Y-99345425D01*
X161300573Y-99309523D01*
X161303853Y-99306118D01*
X161317248Y-99292723D01*
X161319972Y-99288753D01*
X161322297Y-99286105D01*
X161335490Y-99271882D01*
X161343401Y-99263354D01*
X161347712Y-99252549D01*
X161350235Y-99248558D01*
X161359678Y-99230874D01*
X161363911Y-99224703D01*
X161418938Y-99179842D01*
X161489484Y-99171853D01*
X161556910Y-99206881D01*
X161597595Y-99247566D01*
X161631621Y-99309878D01*
X161634500Y-99336661D01*
X161634500Y-102709748D01*
X161635707Y-102715816D01*
X161643595Y-102755470D01*
X161646133Y-102768231D01*
X161653026Y-102778547D01*
X161656698Y-102784043D01*
X161690448Y-102834552D01*
X161756769Y-102878867D01*
X161768938Y-102881288D01*
X161768939Y-102881288D01*
X161779653Y-102883419D01*
X161815252Y-102890500D01*
X163554748Y-102890500D01*
X163590347Y-102883419D01*
X163601061Y-102881288D01*
X163601062Y-102881288D01*
X163613231Y-102878867D01*
X163679552Y-102834552D01*
X163686443Y-102824239D01*
X163690848Y-102819834D01*
X163753160Y-102785808D01*
X163823975Y-102790873D01*
X163880811Y-102833420D01*
X163897925Y-102864699D01*
X163921676Y-102928054D01*
X163930214Y-102943649D01*
X164006715Y-103045724D01*
X164019276Y-103058285D01*
X164121351Y-103134786D01*
X164136946Y-103143324D01*
X164257394Y-103188478D01*
X164272649Y-103192105D01*
X164323514Y-103197631D01*
X164330328Y-103198000D01*
X164952885Y-103198000D01*
X164968124Y-103193525D01*
X164969329Y-103192135D01*
X164971000Y-103184452D01*
X164971000Y-98700116D01*
X164966525Y-98684877D01*
X164965135Y-98683672D01*
X164957452Y-98682001D01*
X164330331Y-98682001D01*
X164323510Y-98682371D01*
X164272648Y-98687895D01*
X164257396Y-98691521D01*
X164136946Y-98736676D01*
X164121351Y-98745214D01*
X164019276Y-98821715D01*
X164006715Y-98834276D01*
X163930214Y-98936351D01*
X163921676Y-98951946D01*
X163897925Y-99015301D01*
X163855283Y-99072065D01*
X163788722Y-99096765D01*
X163719373Y-99081557D01*
X163690848Y-99060166D01*
X163686443Y-99055761D01*
X163679552Y-99045448D01*
X163613231Y-99001133D01*
X163601062Y-98998712D01*
X163601061Y-98998712D01*
X163560816Y-98990707D01*
X163554748Y-98989500D01*
X162241661Y-98989500D01*
X162173540Y-98969498D01*
X162152566Y-98952595D01*
X161452960Y-98252989D01*
X161418934Y-98190677D01*
X161416055Y-98163894D01*
X161416055Y-97808803D01*
X161436057Y-97740682D01*
X161489713Y-97694189D01*
X161559987Y-97684085D01*
X161590268Y-97692392D01*
X161693238Y-97735044D01*
X161850000Y-97755682D01*
X161858188Y-97754604D01*
X161998574Y-97736122D01*
X162006762Y-97735044D01*
X162152841Y-97674536D01*
X162248692Y-97600987D01*
X162271736Y-97583305D01*
X162278282Y-97578282D01*
X162374536Y-97452841D01*
X162435044Y-97306762D01*
X162437462Y-97307764D01*
X162467618Y-97258277D01*
X162531475Y-97227247D01*
X162552385Y-97225500D01*
X162677983Y-97225500D01*
X162746104Y-97245502D01*
X162792597Y-97299158D01*
X162803189Y-97337376D01*
X162810073Y-97398406D01*
X162810074Y-97398409D01*
X162810866Y-97405433D01*
X162813203Y-97412109D01*
X162813203Y-97412110D01*
X162836927Y-97479887D01*
X162855568Y-97533145D01*
X162859333Y-97539135D01*
X162859333Y-97539136D01*
X162867057Y-97551426D01*
X162927567Y-97647709D01*
X163023251Y-97743381D01*
X163029241Y-97747144D01*
X163029243Y-97747146D01*
X163080538Y-97779373D01*
X163137824Y-97815365D01*
X163265541Y-97860051D01*
X163382378Y-97873215D01*
X163388924Y-97874160D01*
X163389144Y-97874160D01*
X163400000Y-97876074D01*
X163410859Y-97874159D01*
X163411208Y-97874159D01*
X163417037Y-97873318D01*
X163527437Y-97860880D01*
X163534467Y-97860088D01*
X163541138Y-97857754D01*
X163541142Y-97857753D01*
X163655519Y-97817734D01*
X163655518Y-97817734D01*
X163662193Y-97815399D01*
X163758958Y-97754604D01*
X163770781Y-97747176D01*
X163770783Y-97747174D01*
X163776773Y-97743411D01*
X163872463Y-97647733D01*
X163876225Y-97641747D01*
X163876229Y-97641742D01*
X163893340Y-97614514D01*
X163946522Y-97567480D01*
X164016690Y-97556665D01*
X164081566Y-97585503D01*
X164106703Y-97614511D01*
X164127567Y-97647709D01*
X164223251Y-97743381D01*
X164229241Y-97747144D01*
X164229243Y-97747146D01*
X164280538Y-97779373D01*
X164337824Y-97815365D01*
X164465541Y-97860051D01*
X164582378Y-97873215D01*
X164588924Y-97874160D01*
X164589144Y-97874160D01*
X164600000Y-97876074D01*
X164610859Y-97874159D01*
X164611208Y-97874159D01*
X164617037Y-97873318D01*
X164727437Y-97860880D01*
X164734467Y-97860088D01*
X164741138Y-97857754D01*
X164741142Y-97857753D01*
X164855519Y-97817734D01*
X164855518Y-97817734D01*
X164862193Y-97815399D01*
X164958958Y-97754604D01*
X164970781Y-97747176D01*
X164970783Y-97747174D01*
X164976773Y-97743411D01*
X165072463Y-97647733D01*
X165112953Y-97583305D01*
X165140702Y-97539152D01*
X165140704Y-97539149D01*
X165144466Y-97533162D01*
X165189171Y-97405442D01*
X165194719Y-97356262D01*
X165195929Y-97345532D01*
X165197622Y-97335985D01*
X165199883Y-97330316D01*
X165200500Y-97324023D01*
X165200500Y-97322495D01*
X165200689Y-97321718D01*
X165236226Y-97260255D01*
X165299350Y-97227762D01*
X165323119Y-97225500D01*
X167623339Y-97225500D01*
X167691460Y-97245502D01*
X167712434Y-97262405D01*
X168337595Y-97887566D01*
X168371621Y-97949878D01*
X168374500Y-97976661D01*
X168374500Y-98863500D01*
X168354498Y-98931621D01*
X168300842Y-98978114D01*
X168248500Y-98989500D01*
X166895252Y-98989500D01*
X166889184Y-98990707D01*
X166848939Y-98998712D01*
X166848938Y-98998712D01*
X166836769Y-99001133D01*
X166770448Y-99045448D01*
X166763557Y-99055761D01*
X166759152Y-99060166D01*
X166696840Y-99094192D01*
X166626025Y-99089127D01*
X166569189Y-99046580D01*
X166552075Y-99015301D01*
X166528324Y-98951946D01*
X166519786Y-98936351D01*
X166443285Y-98834276D01*
X166430724Y-98821715D01*
X166328649Y-98745214D01*
X166313054Y-98736676D01*
X166192606Y-98691522D01*
X166177351Y-98687895D01*
X166126486Y-98682369D01*
X166119672Y-98682000D01*
X165497115Y-98682000D01*
X165481876Y-98686475D01*
X165480671Y-98687865D01*
X165479000Y-98695548D01*
X165479000Y-103179884D01*
X165483475Y-103195123D01*
X165484865Y-103196328D01*
X165492548Y-103197999D01*
X166119669Y-103197999D01*
X166126490Y-103197629D01*
X166177352Y-103192105D01*
X166192604Y-103188479D01*
X166313054Y-103143324D01*
X166328649Y-103134786D01*
X166430724Y-103058285D01*
X166443285Y-103045724D01*
X166519786Y-102943649D01*
X166528324Y-102928054D01*
X166552075Y-102864699D01*
X166594717Y-102807935D01*
X166661278Y-102783235D01*
X166730627Y-102798443D01*
X166759152Y-102819834D01*
X166763557Y-102824239D01*
X166770448Y-102834552D01*
X166836769Y-102878867D01*
X166848938Y-102881288D01*
X166848939Y-102881288D01*
X166859653Y-102883419D01*
X166895252Y-102890500D01*
X168634748Y-102890500D01*
X168670347Y-102883419D01*
X168681061Y-102881288D01*
X168681062Y-102881288D01*
X168693231Y-102878867D01*
X168759552Y-102834552D01*
X168793302Y-102784043D01*
X168796974Y-102778547D01*
X168803867Y-102768231D01*
X168806406Y-102755470D01*
X168814293Y-102715816D01*
X168815500Y-102709748D01*
X168815500Y-99569661D01*
X168835502Y-99501540D01*
X168889158Y-99455047D01*
X168959432Y-99444943D01*
X169024012Y-99474437D01*
X169030595Y-99480566D01*
X169217595Y-99667566D01*
X169251621Y-99729878D01*
X169254500Y-99756661D01*
X169254500Y-102709748D01*
X169255707Y-102715816D01*
X169263595Y-102755470D01*
X169266133Y-102768231D01*
X169273026Y-102778547D01*
X169276698Y-102784043D01*
X169310448Y-102834552D01*
X169376769Y-102878867D01*
X169388938Y-102881288D01*
X169388939Y-102881288D01*
X169399653Y-102883419D01*
X169435252Y-102890500D01*
X169936128Y-102890500D01*
X170004249Y-102910502D01*
X170050742Y-102964158D01*
X170060846Y-103034432D01*
X170042814Y-103083539D01*
X169988780Y-103169529D01*
X169967882Y-103229243D01*
X169949920Y-103280568D01*
X169940361Y-103307881D01*
X169939569Y-103314906D01*
X169927019Y-103426205D01*
X169924803Y-103445855D01*
X169922744Y-103453538D01*
X169927036Y-103469560D01*
X169927035Y-103482208D01*
X169928053Y-103489939D01*
X169928037Y-105642173D01*
X169928016Y-108560105D01*
X169926995Y-108567868D01*
X169926997Y-108580487D01*
X169922707Y-108596510D01*
X169924765Y-108604185D01*
X169940331Y-108742161D01*
X169942669Y-108748840D01*
X169942669Y-108748841D01*
X169978847Y-108852199D01*
X169988755Y-108880507D01*
X170066744Y-109004612D01*
X170170388Y-109108256D01*
X170294493Y-109186245D01*
X170301174Y-109188583D01*
X170301175Y-109188584D01*
X170426108Y-109232313D01*
X170432839Y-109234669D01*
X170570815Y-109250235D01*
X170578490Y-109252293D01*
X170594515Y-109248002D01*
X170607785Y-109248004D01*
X170614867Y-109247082D01*
X171551972Y-109249608D01*
X173160019Y-109253943D01*
X173168356Y-109255052D01*
X173180416Y-109255053D01*
X173196441Y-109259349D01*
X173209209Y-109255929D01*
X173212347Y-109256135D01*
X173270457Y-109263791D01*
X173302217Y-109272304D01*
X173355872Y-109294532D01*
X173384350Y-109310976D01*
X173430418Y-109346327D01*
X173453673Y-109369582D01*
X173489024Y-109415650D01*
X173505468Y-109444128D01*
X173527696Y-109497783D01*
X173536209Y-109529543D01*
X173539536Y-109554795D01*
X173543865Y-109587654D01*
X173544071Y-109590791D01*
X173540651Y-109603559D01*
X173544947Y-109619583D01*
X173544948Y-109632273D01*
X173545960Y-109639960D01*
X173545960Y-116060040D01*
X173544948Y-116067727D01*
X173544947Y-116080417D01*
X173540651Y-116096441D01*
X173544071Y-116109209D01*
X173543865Y-116112346D01*
X173536209Y-116170455D01*
X173527696Y-116202217D01*
X173511152Y-116242152D01*
X173505469Y-116255870D01*
X173489024Y-116284350D01*
X173453673Y-116330418D01*
X173430418Y-116353673D01*
X173384350Y-116389024D01*
X173355872Y-116405468D01*
X173302217Y-116427696D01*
X173270457Y-116436209D01*
X173223522Y-116442392D01*
X173212346Y-116443865D01*
X173209209Y-116444071D01*
X173196441Y-116440651D01*
X173180416Y-116444947D01*
X173167729Y-116444948D01*
X173160042Y-116445960D01*
X158840519Y-116445969D01*
X144514939Y-116445978D01*
X144507267Y-116444967D01*
X144494561Y-116444965D01*
X144478539Y-116440669D01*
X144465770Y-116444088D01*
X144462638Y-116443882D01*
X144415207Y-116437630D01*
X144404522Y-116436222D01*
X144372764Y-116427709D01*
X144319108Y-116405478D01*
X144290638Y-116389038D01*
X144244563Y-116353681D01*
X144221314Y-116330431D01*
X144185962Y-116284362D01*
X144169516Y-116255881D01*
X144147289Y-116202228D01*
X144138776Y-116170471D01*
X144138774Y-116170455D01*
X144131106Y-116112268D01*
X144130905Y-116109207D01*
X144134320Y-116096454D01*
X144130024Y-116080430D01*
X144130022Y-116067731D01*
X144129011Y-116060054D01*
X144129014Y-115418439D01*
X144129015Y-115211400D01*
X150141358Y-115211400D01*
X150144661Y-115216060D01*
X150338399Y-115329271D01*
X150347686Y-115333721D01*
X150562006Y-115415562D01*
X150571908Y-115418439D01*
X150796699Y-115464173D01*
X150806951Y-115465396D01*
X151036202Y-115473802D01*
X151046488Y-115473335D01*
X151274043Y-115444184D01*
X151284129Y-115442041D01*
X151503864Y-115376117D01*
X151513459Y-115372356D01*
X151719466Y-115271435D01*
X151728332Y-115266150D01*
X151795945Y-115217921D01*
X151801065Y-115211400D01*
X165841358Y-115211400D01*
X165844661Y-115216060D01*
X166038399Y-115329271D01*
X166047686Y-115333721D01*
X166262006Y-115415562D01*
X166271908Y-115418439D01*
X166496699Y-115464173D01*
X166506951Y-115465396D01*
X166736202Y-115473802D01*
X166746488Y-115473335D01*
X166974043Y-115444184D01*
X166984129Y-115442041D01*
X167203864Y-115376117D01*
X167213459Y-115372356D01*
X167419466Y-115271435D01*
X167428332Y-115266150D01*
X167495945Y-115217921D01*
X167504346Y-115207221D01*
X167497358Y-115194068D01*
X166687812Y-114384522D01*
X166673868Y-114376908D01*
X166672035Y-114377039D01*
X166665420Y-114381290D01*
X165848635Y-115198075D01*
X165841358Y-115211400D01*
X151801065Y-115211400D01*
X151804346Y-115207221D01*
X151797358Y-115194068D01*
X150987812Y-114384522D01*
X150973868Y-114376908D01*
X150972035Y-114377039D01*
X150965420Y-114381290D01*
X150148635Y-115198075D01*
X150141358Y-115211400D01*
X144129015Y-115211400D01*
X144129019Y-113981912D01*
X149512737Y-113981912D01*
X149525944Y-114210951D01*
X149527377Y-114221153D01*
X149577810Y-114444942D01*
X149580898Y-114454795D01*
X149667204Y-114667340D01*
X149671852Y-114676541D01*
X149768736Y-114834643D01*
X149779192Y-114844104D01*
X149787970Y-114840320D01*
X150602978Y-114025312D01*
X150609356Y-114013632D01*
X151339408Y-114013632D01*
X151339539Y-114015465D01*
X151343790Y-114022080D01*
X152157130Y-114835420D01*
X152169141Y-114841979D01*
X152180880Y-114833011D01*
X152226012Y-114770202D01*
X152231327Y-114761357D01*
X152332966Y-114555706D01*
X152336765Y-114546111D01*
X152403453Y-114326620D01*
X152405632Y-114316539D01*
X152435813Y-114087289D01*
X152436332Y-114080614D01*
X152437915Y-114015864D01*
X152437721Y-114009147D01*
X152435482Y-113981912D01*
X165212737Y-113981912D01*
X165225944Y-114210951D01*
X165227377Y-114221153D01*
X165277810Y-114444942D01*
X165280898Y-114454795D01*
X165367204Y-114667340D01*
X165371852Y-114676541D01*
X165468736Y-114834643D01*
X165479192Y-114844104D01*
X165487970Y-114840320D01*
X166302978Y-114025312D01*
X166309356Y-114013632D01*
X167039408Y-114013632D01*
X167039539Y-114015465D01*
X167043790Y-114022080D01*
X167857130Y-114835420D01*
X167869141Y-114841979D01*
X167880880Y-114833011D01*
X167926012Y-114770202D01*
X167931327Y-114761357D01*
X168032966Y-114555706D01*
X168036765Y-114546111D01*
X168103453Y-114326620D01*
X168105632Y-114316539D01*
X168135813Y-114087289D01*
X168136332Y-114080614D01*
X168137915Y-114015864D01*
X168137721Y-114009147D01*
X168118776Y-113778706D01*
X168117093Y-113768544D01*
X168061204Y-113546039D01*
X168057883Y-113536284D01*
X167966409Y-113325910D01*
X167961531Y-113316812D01*
X167880384Y-113191376D01*
X167869698Y-113182174D01*
X167860133Y-113186577D01*
X167047022Y-113999688D01*
X167039408Y-114013632D01*
X166309356Y-114013632D01*
X166310592Y-114011368D01*
X166310461Y-114009535D01*
X166306210Y-114002920D01*
X165492884Y-113189594D01*
X165481348Y-113183294D01*
X165469065Y-113192918D01*
X165405849Y-113285589D01*
X165400756Y-113294553D01*
X165304163Y-113502645D01*
X165300606Y-113512313D01*
X165239299Y-113733379D01*
X165237368Y-113743499D01*
X165212989Y-113971623D01*
X165212737Y-113981912D01*
X152435482Y-113981912D01*
X152418776Y-113778706D01*
X152417093Y-113768544D01*
X152361204Y-113546039D01*
X152357883Y-113536284D01*
X152266409Y-113325910D01*
X152261531Y-113316812D01*
X152180384Y-113191376D01*
X152169698Y-113182174D01*
X152160133Y-113186577D01*
X151347022Y-113999688D01*
X151339408Y-114013632D01*
X150609356Y-114013632D01*
X150610592Y-114011368D01*
X150610461Y-114009535D01*
X150606210Y-114002920D01*
X149792884Y-113189594D01*
X149781348Y-113183294D01*
X149769065Y-113192918D01*
X149705849Y-113285589D01*
X149700756Y-113294553D01*
X149604163Y-113502645D01*
X149600606Y-113512313D01*
X149539299Y-113733379D01*
X149537368Y-113743499D01*
X149512989Y-113971623D01*
X149512737Y-113981912D01*
X144129019Y-113981912D01*
X144129023Y-112817499D01*
X150144795Y-112817499D01*
X150151540Y-112829830D01*
X150962188Y-113640478D01*
X150976132Y-113648092D01*
X150977965Y-113647961D01*
X150984580Y-113643710D01*
X151799590Y-112828700D01*
X151805707Y-112817499D01*
X165844795Y-112817499D01*
X165851540Y-112829830D01*
X166662188Y-113640478D01*
X166676132Y-113648092D01*
X166677965Y-113647961D01*
X166684580Y-113643710D01*
X167499590Y-112828700D01*
X167506611Y-112815843D01*
X167498838Y-112805176D01*
X167488667Y-112797143D01*
X167480083Y-112791440D01*
X167279250Y-112680574D01*
X167269838Y-112676344D01*
X167053591Y-112599766D01*
X167043620Y-112597132D01*
X166817769Y-112556902D01*
X166807516Y-112555933D01*
X166578116Y-112553130D01*
X166567832Y-112553850D01*
X166341067Y-112588550D01*
X166331039Y-112590939D01*
X166112984Y-112662210D01*
X166103475Y-112666207D01*
X165899993Y-112772133D01*
X165891268Y-112777627D01*
X165853248Y-112806174D01*
X165844795Y-112817499D01*
X151805707Y-112817499D01*
X151806611Y-112815843D01*
X151798838Y-112805176D01*
X151788667Y-112797143D01*
X151780083Y-112791440D01*
X151579250Y-112680574D01*
X151569838Y-112676344D01*
X151353591Y-112599766D01*
X151343620Y-112597132D01*
X151117769Y-112556902D01*
X151107516Y-112555933D01*
X150878116Y-112553130D01*
X150867832Y-112553850D01*
X150641067Y-112588550D01*
X150631039Y-112590939D01*
X150412984Y-112662210D01*
X150403475Y-112666207D01*
X150199993Y-112772133D01*
X150191268Y-112777627D01*
X150153248Y-112806174D01*
X150144795Y-112817499D01*
X144129023Y-112817499D01*
X144129032Y-110518439D01*
X144129033Y-110311400D01*
X150741358Y-110311400D01*
X150744661Y-110316060D01*
X150938399Y-110429271D01*
X150947686Y-110433721D01*
X151162006Y-110515562D01*
X151171908Y-110518439D01*
X151396699Y-110564173D01*
X151406951Y-110565396D01*
X151636202Y-110573802D01*
X151646488Y-110573335D01*
X151874043Y-110544184D01*
X151884129Y-110542041D01*
X152103864Y-110476117D01*
X152113459Y-110472356D01*
X152319466Y-110371435D01*
X152328332Y-110366150D01*
X152395945Y-110317921D01*
X152404346Y-110307221D01*
X152397358Y-110294068D01*
X151587812Y-109484522D01*
X151573868Y-109476908D01*
X151572035Y-109477039D01*
X151565420Y-109481290D01*
X150748635Y-110298075D01*
X150741358Y-110311400D01*
X144129033Y-110311400D01*
X144129036Y-109614957D01*
X144130048Y-109607269D01*
X144130050Y-109594578D01*
X144134345Y-109578556D01*
X144130926Y-109565787D01*
X144131131Y-109562655D01*
X144138789Y-109504538D01*
X144147301Y-109472780D01*
X144169529Y-109419125D01*
X144185973Y-109390647D01*
X144221324Y-109344579D01*
X144244579Y-109321324D01*
X144290647Y-109285973D01*
X144319125Y-109269529D01*
X144372780Y-109247301D01*
X144404538Y-109238789D01*
X144462655Y-109231131D01*
X144465787Y-109230926D01*
X144478556Y-109234345D01*
X144494579Y-109230050D01*
X144508977Y-109230048D01*
X144514887Y-109229291D01*
X145373525Y-109235226D01*
X147035009Y-109246711D01*
X147044391Y-109247979D01*
X147055456Y-109247978D01*
X147071479Y-109252269D01*
X147079161Y-109250210D01*
X147143205Y-109242987D01*
X147210105Y-109235442D01*
X147210107Y-109235442D01*
X147217134Y-109234649D01*
X147355484Y-109186228D01*
X147479593Y-109108239D01*
X147505920Y-109081912D01*
X150112737Y-109081912D01*
X150125944Y-109310951D01*
X150127377Y-109321153D01*
X150177810Y-109544942D01*
X150180898Y-109554795D01*
X150267204Y-109767340D01*
X150271852Y-109776541D01*
X150368736Y-109934643D01*
X150379192Y-109944104D01*
X150387970Y-109940320D01*
X151202978Y-109125312D01*
X151210592Y-109111368D01*
X151210461Y-109109535D01*
X151206210Y-109102920D01*
X150392884Y-108289594D01*
X150381348Y-108283294D01*
X150369065Y-108292918D01*
X150305849Y-108385589D01*
X150300756Y-108394553D01*
X150204163Y-108602645D01*
X150200606Y-108612313D01*
X150139299Y-108833379D01*
X150137368Y-108843499D01*
X150112989Y-109071623D01*
X150112737Y-109081912D01*
X147505920Y-109081912D01*
X147583239Y-109004593D01*
X147661228Y-108880484D01*
X147709649Y-108742134D01*
X147725210Y-108604161D01*
X147727269Y-108596479D01*
X147722978Y-108580459D01*
X147722980Y-108567823D01*
X147721960Y-108560073D01*
X147721953Y-105797279D01*
X147721947Y-103739942D01*
X147722966Y-103732202D01*
X147722965Y-103719558D01*
X147727256Y-103703538D01*
X147725197Y-103695855D01*
X147722708Y-103673776D01*
X147710431Y-103564906D01*
X147709639Y-103557881D01*
X147706299Y-103548335D01*
X147680065Y-103473376D01*
X147661220Y-103419529D01*
X147583231Y-103295417D01*
X147479583Y-103191769D01*
X147377862Y-103127850D01*
X147370440Y-103123186D01*
X147323404Y-103070006D01*
X147312586Y-102999838D01*
X147341420Y-102934961D01*
X147400753Y-102895971D01*
X147437479Y-102890500D01*
X148314748Y-102890500D01*
X148350347Y-102883419D01*
X148361061Y-102881288D01*
X148361062Y-102881288D01*
X148373231Y-102878867D01*
X148439552Y-102834552D01*
X148473302Y-102784043D01*
X148476974Y-102778547D01*
X148483867Y-102768231D01*
X148486406Y-102755470D01*
X148494293Y-102715816D01*
X148495500Y-102709748D01*
X148495500Y-100188953D01*
X148496494Y-100173161D01*
X148504728Y-100107978D01*
X148505171Y-100104474D01*
X148505583Y-100075000D01*
X148500706Y-100025262D01*
X148929520Y-100025262D01*
X148934058Y-100079302D01*
X148934500Y-100089846D01*
X148934500Y-102709748D01*
X148935707Y-102715816D01*
X148943595Y-102755470D01*
X148946133Y-102768231D01*
X148953026Y-102778547D01*
X148956698Y-102784043D01*
X148990448Y-102834552D01*
X149056769Y-102878867D01*
X149068938Y-102881288D01*
X149068939Y-102881288D01*
X149079653Y-102883419D01*
X149115252Y-102890500D01*
X150854748Y-102890500D01*
X150890347Y-102883419D01*
X150901061Y-102881288D01*
X150901062Y-102881288D01*
X150913231Y-102878867D01*
X150979552Y-102834552D01*
X150986443Y-102824239D01*
X150990848Y-102819834D01*
X151053160Y-102785808D01*
X151123975Y-102790873D01*
X151180811Y-102833420D01*
X151197925Y-102864699D01*
X151221676Y-102928054D01*
X151230214Y-102943648D01*
X151254156Y-102975594D01*
X151279004Y-103042100D01*
X151263951Y-103111483D01*
X151252113Y-103127306D01*
X151252850Y-103127850D01*
X151177959Y-103229243D01*
X151177958Y-103229246D01*
X151172366Y-103236816D01*
X151139359Y-103330809D01*
X151136044Y-103340248D01*
X151094601Y-103397893D01*
X151028572Y-103423982D01*
X151017161Y-103424500D01*
X150494286Y-103424500D01*
X150426165Y-103404498D01*
X150394323Y-103375204D01*
X150391875Y-103372013D01*
X150375630Y-103350842D01*
X150358305Y-103328264D01*
X150353282Y-103321718D01*
X150344405Y-103314906D01*
X150317082Y-103293941D01*
X150227841Y-103225464D01*
X150081762Y-103164956D01*
X149925000Y-103144318D01*
X149768238Y-103164956D01*
X149622159Y-103225464D01*
X149532918Y-103293941D01*
X149505596Y-103314906D01*
X149496718Y-103321718D01*
X149400464Y-103447159D01*
X149339956Y-103593238D01*
X149319318Y-103750000D01*
X149339956Y-103906762D01*
X149400464Y-104052841D01*
X149496718Y-104178282D01*
X149503264Y-104183305D01*
X149550204Y-104219323D01*
X149592071Y-104276661D01*
X149599500Y-104319286D01*
X149599500Y-107507394D01*
X149605621Y-107524210D01*
X149611305Y-107545424D01*
X149614412Y-107563045D01*
X149623360Y-107578544D01*
X149632639Y-107598443D01*
X149638760Y-107615260D01*
X149645846Y-107623705D01*
X149645847Y-107623707D01*
X149650265Y-107628972D01*
X149662856Y-107646953D01*
X149671806Y-107662455D01*
X149680248Y-107669539D01*
X149680250Y-107669541D01*
X149685516Y-107673960D01*
X149701042Y-107689486D01*
X149704934Y-107694123D01*
X149712545Y-107703194D01*
X149728043Y-107712142D01*
X149746033Y-107724739D01*
X149759739Y-107736240D01*
X149770092Y-107740008D01*
X149770097Y-107740011D01*
X149776560Y-107742363D01*
X149796462Y-107751643D01*
X149811955Y-107760588D01*
X149822809Y-107762502D01*
X149822815Y-107762504D01*
X149829576Y-107763696D01*
X149850784Y-107769378D01*
X149856308Y-107771388D01*
X149867606Y-107775500D01*
X150618658Y-107775500D01*
X150686779Y-107795502D01*
X150733272Y-107849158D01*
X150744350Y-107910308D01*
X150743954Y-107915961D01*
X150751540Y-107929830D01*
X152757130Y-109935420D01*
X152769141Y-109941979D01*
X152780880Y-109933011D01*
X152826012Y-109870202D01*
X152831327Y-109861357D01*
X152932966Y-109655706D01*
X152936765Y-109646111D01*
X153003453Y-109426620D01*
X153005632Y-109416539D01*
X153035813Y-109187289D01*
X153036332Y-109180614D01*
X153037915Y-109115864D01*
X153037721Y-109109146D01*
X153022313Y-108921729D01*
X153036666Y-108852199D01*
X153086332Y-108801466D01*
X153155541Y-108785638D01*
X153222322Y-108809740D01*
X153236984Y-108822310D01*
X153662595Y-109247921D01*
X153696621Y-109310233D01*
X153699500Y-109337016D01*
X153699500Y-109582394D01*
X153705621Y-109599210D01*
X153711305Y-109620424D01*
X153714412Y-109638045D01*
X153723360Y-109653544D01*
X153732639Y-109673443D01*
X153738760Y-109690260D01*
X153745846Y-109698705D01*
X153745847Y-109698707D01*
X153750265Y-109703972D01*
X153762856Y-109721953D01*
X153771806Y-109737455D01*
X153780248Y-109744539D01*
X153780250Y-109744541D01*
X153785516Y-109748960D01*
X153801042Y-109764486D01*
X153803437Y-109767340D01*
X153812545Y-109778194D01*
X153828043Y-109787142D01*
X153846033Y-109799739D01*
X153859739Y-109811240D01*
X153870092Y-109815008D01*
X153870097Y-109815011D01*
X153876560Y-109817363D01*
X153896462Y-109826643D01*
X153911955Y-109835588D01*
X153922809Y-109837502D01*
X153922815Y-109837504D01*
X153929576Y-109838696D01*
X153950784Y-109844378D01*
X153956308Y-109846388D01*
X153967606Y-109850500D01*
X154805290Y-109850500D01*
X154816272Y-109850980D01*
X154842820Y-109853303D01*
X154842822Y-109853303D01*
X154853807Y-109854264D01*
X154890215Y-109844508D01*
X154900942Y-109842130D01*
X154904301Y-109841538D01*
X154938045Y-109835588D01*
X154947590Y-109830077D01*
X154950866Y-109828885D01*
X154954034Y-109827408D01*
X154964684Y-109824554D01*
X154995544Y-109802945D01*
X155004815Y-109797039D01*
X155027906Y-109783707D01*
X155037455Y-109778194D01*
X155061685Y-109749318D01*
X155069111Y-109741215D01*
X155135078Y-109675248D01*
X155197390Y-109641222D01*
X155268403Y-109646361D01*
X155307394Y-109660978D01*
X155322649Y-109664605D01*
X155373514Y-109670131D01*
X155380328Y-109670500D01*
X155406885Y-109670500D01*
X155422124Y-109666025D01*
X155423329Y-109664635D01*
X155425000Y-109656952D01*
X155425000Y-109187326D01*
X155425167Y-109183922D01*
X155425500Y-109182248D01*
X155425500Y-108188500D01*
X155445502Y-108120379D01*
X155499158Y-108073886D01*
X155551500Y-108062500D01*
X155598500Y-108062500D01*
X155666621Y-108082502D01*
X155713114Y-108136158D01*
X155724500Y-108188500D01*
X155724500Y-109182248D01*
X155724833Y-109183922D01*
X155725000Y-109187326D01*
X155725000Y-109652384D01*
X155729475Y-109667623D01*
X155730865Y-109668828D01*
X155738548Y-109670499D01*
X155758290Y-109670499D01*
X155826411Y-109690501D01*
X155872904Y-109744157D01*
X155883008Y-109814431D01*
X155874698Y-109844718D01*
X155868117Y-109860605D01*
X155868116Y-109860610D01*
X155864956Y-109868238D01*
X155844318Y-110025000D01*
X155864956Y-110181762D01*
X155925464Y-110327841D01*
X156021718Y-110453282D01*
X156147159Y-110549536D01*
X156293238Y-110610044D01*
X156450000Y-110630682D01*
X156458188Y-110629604D01*
X156598574Y-110611122D01*
X156606762Y-110610044D01*
X156752841Y-110549536D01*
X156878282Y-110453282D01*
X156883305Y-110446736D01*
X156883308Y-110446733D01*
X156917656Y-110401969D01*
X156974994Y-110360101D01*
X157019352Y-110354351D01*
X157019344Y-110354263D01*
X157021463Y-110354078D01*
X157028601Y-110353152D01*
X157041307Y-110354264D01*
X157077715Y-110344508D01*
X157088442Y-110342130D01*
X157091801Y-110341538D01*
X157125545Y-110335588D01*
X157135090Y-110330077D01*
X157138366Y-110328885D01*
X157141534Y-110327408D01*
X157152184Y-110324554D01*
X157170969Y-110311400D01*
X165241358Y-110311400D01*
X165244661Y-110316060D01*
X165438399Y-110429271D01*
X165447686Y-110433721D01*
X165662006Y-110515562D01*
X165671908Y-110518439D01*
X165896699Y-110564173D01*
X165906951Y-110565396D01*
X166136202Y-110573802D01*
X166146488Y-110573335D01*
X166374043Y-110544184D01*
X166384129Y-110542041D01*
X166603864Y-110476117D01*
X166613459Y-110472356D01*
X166819466Y-110371435D01*
X166828332Y-110366150D01*
X166895945Y-110317921D01*
X166904346Y-110307221D01*
X166897358Y-110294068D01*
X166087812Y-109484522D01*
X166073868Y-109476908D01*
X166072035Y-109477039D01*
X166065420Y-109481290D01*
X165248635Y-110298075D01*
X165241358Y-110311400D01*
X157170969Y-110311400D01*
X157183044Y-110302945D01*
X157192315Y-110297039D01*
X157215406Y-110283707D01*
X157224955Y-110278194D01*
X157249185Y-110249317D01*
X157256611Y-110241215D01*
X157791215Y-109706611D01*
X157799319Y-109699184D01*
X157819749Y-109682041D01*
X157828194Y-109674955D01*
X157836263Y-109660979D01*
X157847039Y-109642315D01*
X157852945Y-109633044D01*
X157861782Y-109620424D01*
X157874554Y-109602184D01*
X157877408Y-109591533D01*
X157879503Y-109587041D01*
X157880436Y-109585248D01*
X157881197Y-109583412D01*
X157881828Y-109582057D01*
X157882099Y-109581589D01*
X157882294Y-109581680D01*
X157884566Y-109577315D01*
X157885588Y-109575545D01*
X157889168Y-109577612D01*
X157911804Y-109540488D01*
X157975669Y-109509476D01*
X158046162Y-109517916D01*
X158072110Y-109532909D01*
X158171351Y-109607286D01*
X158186946Y-109615824D01*
X158307394Y-109660978D01*
X158322649Y-109664605D01*
X158373514Y-109670131D01*
X158380328Y-109670500D01*
X158406885Y-109670500D01*
X158422124Y-109666025D01*
X158423329Y-109664635D01*
X158425000Y-109656952D01*
X158425000Y-109187326D01*
X158425167Y-109183922D01*
X158425500Y-109182248D01*
X158425500Y-108188500D01*
X158445502Y-108120379D01*
X158499158Y-108073886D01*
X158551500Y-108062500D01*
X158598500Y-108062500D01*
X158666621Y-108082502D01*
X158713114Y-108136158D01*
X158724500Y-108188500D01*
X158724500Y-109182248D01*
X158724833Y-109183922D01*
X158725000Y-109187326D01*
X158725000Y-109652384D01*
X158729475Y-109667623D01*
X158730865Y-109668828D01*
X158738548Y-109670499D01*
X158769669Y-109670499D01*
X158776490Y-109670129D01*
X158827352Y-109664605D01*
X158842604Y-109660979D01*
X158963054Y-109615824D01*
X158978649Y-109607286D01*
X159080724Y-109530785D01*
X159093285Y-109518224D01*
X159174533Y-109409815D01*
X159231392Y-109367300D01*
X159250776Y-109361801D01*
X159253597Y-109361240D01*
X159300421Y-109351926D01*
X159349579Y-109351926D01*
X159396403Y-109361240D01*
X159399224Y-109361801D01*
X159462133Y-109394710D01*
X159475467Y-109409815D01*
X159556715Y-109518224D01*
X159569276Y-109530785D01*
X159671351Y-109607286D01*
X159686946Y-109615824D01*
X159807394Y-109660978D01*
X159822649Y-109664605D01*
X159873514Y-109670131D01*
X159880328Y-109670500D01*
X159906885Y-109670500D01*
X159922124Y-109666025D01*
X159923329Y-109664635D01*
X159925000Y-109656952D01*
X159925000Y-109187326D01*
X159925167Y-109183922D01*
X159925500Y-109182248D01*
X159925500Y-108188500D01*
X159945502Y-108120379D01*
X159999158Y-108073886D01*
X160051500Y-108062500D01*
X160098500Y-108062500D01*
X160166621Y-108082502D01*
X160213114Y-108136158D01*
X160224500Y-108188500D01*
X160224500Y-109182248D01*
X160224833Y-109183922D01*
X160225000Y-109187326D01*
X160225000Y-109652384D01*
X160229475Y-109667623D01*
X160230865Y-109668828D01*
X160238548Y-109670499D01*
X160269669Y-109670499D01*
X160276490Y-109670129D01*
X160327352Y-109664605D01*
X160342604Y-109660979D01*
X160463054Y-109615824D01*
X160478649Y-109607286D01*
X160580724Y-109530785D01*
X160593285Y-109518224D01*
X160674533Y-109409815D01*
X160731392Y-109367300D01*
X160750776Y-109361801D01*
X160753597Y-109361240D01*
X160800421Y-109351926D01*
X160849579Y-109351926D01*
X160896403Y-109361240D01*
X160899224Y-109361801D01*
X160962133Y-109394710D01*
X160975467Y-109409815D01*
X161056715Y-109518224D01*
X161069276Y-109530785D01*
X161171351Y-109607286D01*
X161186946Y-109615824D01*
X161307394Y-109660978D01*
X161322649Y-109664605D01*
X161373514Y-109670131D01*
X161380328Y-109670500D01*
X161406885Y-109670500D01*
X161422124Y-109666025D01*
X161423329Y-109664635D01*
X161425000Y-109656952D01*
X161425000Y-109187326D01*
X161425167Y-109183922D01*
X161425500Y-109182248D01*
X161425500Y-108188500D01*
X161445502Y-108120379D01*
X161499158Y-108073886D01*
X161551500Y-108062500D01*
X161598500Y-108062500D01*
X161666621Y-108082502D01*
X161713114Y-108136158D01*
X161724500Y-108188500D01*
X161724500Y-109182248D01*
X161724833Y-109183922D01*
X161725000Y-109187326D01*
X161725000Y-109652384D01*
X161729475Y-109667623D01*
X161730865Y-109668828D01*
X161738548Y-109670499D01*
X161769669Y-109670499D01*
X161776490Y-109670129D01*
X161827352Y-109664605D01*
X161842604Y-109660979D01*
X161963054Y-109615824D01*
X161978649Y-109607286D01*
X162080724Y-109530785D01*
X162093285Y-109518224D01*
X162174533Y-109409815D01*
X162231392Y-109367300D01*
X162250776Y-109361801D01*
X162253597Y-109361240D01*
X162300421Y-109351926D01*
X162349579Y-109351926D01*
X162396403Y-109361240D01*
X162399224Y-109361801D01*
X162462133Y-109394710D01*
X162475467Y-109409815D01*
X162556715Y-109518224D01*
X162569276Y-109530785D01*
X162671351Y-109607286D01*
X162686946Y-109615824D01*
X162807394Y-109660978D01*
X162822649Y-109664605D01*
X162873514Y-109670131D01*
X162880328Y-109670500D01*
X162906885Y-109670500D01*
X162922124Y-109666025D01*
X162923329Y-109664635D01*
X162925000Y-109656952D01*
X162925000Y-109187326D01*
X162925167Y-109183922D01*
X162925500Y-109182248D01*
X162925500Y-108188500D01*
X162945502Y-108120379D01*
X162999158Y-108073886D01*
X163051500Y-108062500D01*
X163098500Y-108062500D01*
X163166621Y-108082502D01*
X163213114Y-108136158D01*
X163224500Y-108188500D01*
X163224500Y-109182248D01*
X163224833Y-109183922D01*
X163225000Y-109187326D01*
X163225000Y-109652384D01*
X163229475Y-109667623D01*
X163230865Y-109668828D01*
X163238548Y-109670499D01*
X163269669Y-109670499D01*
X163276490Y-109670129D01*
X163327352Y-109664605D01*
X163342604Y-109660979D01*
X163463054Y-109615824D01*
X163478649Y-109607286D01*
X163580724Y-109530785D01*
X163593285Y-109518224D01*
X163674533Y-109409815D01*
X163731392Y-109367300D01*
X163750777Y-109361801D01*
X163791061Y-109353788D01*
X163791062Y-109353788D01*
X163803231Y-109351367D01*
X163869552Y-109307052D01*
X163904298Y-109255052D01*
X163906974Y-109251047D01*
X163913867Y-109240731D01*
X163925500Y-109182248D01*
X163925500Y-109081912D01*
X164612737Y-109081912D01*
X164625944Y-109310951D01*
X164627377Y-109321153D01*
X164677810Y-109544942D01*
X164680898Y-109554795D01*
X164767204Y-109767340D01*
X164771852Y-109776541D01*
X164868736Y-109934643D01*
X164879192Y-109944104D01*
X164887970Y-109940320D01*
X165702978Y-109125312D01*
X165709356Y-109113632D01*
X166439408Y-109113632D01*
X166439539Y-109115465D01*
X166443790Y-109122080D01*
X167257130Y-109935420D01*
X167269141Y-109941979D01*
X167280880Y-109933011D01*
X167326012Y-109870202D01*
X167331327Y-109861357D01*
X167432966Y-109655706D01*
X167436765Y-109646111D01*
X167503453Y-109426620D01*
X167505632Y-109416539D01*
X167535813Y-109187289D01*
X167536332Y-109180614D01*
X167537915Y-109115864D01*
X167537721Y-109109147D01*
X167518776Y-108878706D01*
X167517093Y-108868544D01*
X167461204Y-108646039D01*
X167457883Y-108636284D01*
X167366409Y-108425910D01*
X167361531Y-108416812D01*
X167280384Y-108291376D01*
X167269698Y-108282174D01*
X167260133Y-108286577D01*
X166447022Y-109099688D01*
X166439408Y-109113632D01*
X165709356Y-109113632D01*
X165710592Y-109111368D01*
X165710461Y-109109535D01*
X165706210Y-109102920D01*
X164892884Y-108289594D01*
X164881348Y-108283294D01*
X164869065Y-108292918D01*
X164805849Y-108385589D01*
X164800756Y-108394553D01*
X164704163Y-108602645D01*
X164700606Y-108612313D01*
X164639299Y-108833379D01*
X164637368Y-108843499D01*
X164612989Y-109071623D01*
X164612737Y-109081912D01*
X163925500Y-109081912D01*
X163925500Y-107917499D01*
X165244795Y-107917499D01*
X165251540Y-107929830D01*
X166062188Y-108740478D01*
X166076132Y-108748092D01*
X166077965Y-108747961D01*
X166084580Y-108743710D01*
X166899590Y-107928700D01*
X166906611Y-107915843D01*
X166898838Y-107905176D01*
X166888667Y-107897143D01*
X166880083Y-107891440D01*
X166679250Y-107780574D01*
X166669838Y-107776344D01*
X166453591Y-107699766D01*
X166443620Y-107697132D01*
X166217769Y-107656902D01*
X166207516Y-107655933D01*
X165978116Y-107653130D01*
X165967832Y-107653850D01*
X165741067Y-107688550D01*
X165731039Y-107690939D01*
X165512984Y-107762210D01*
X165503475Y-107766207D01*
X165299993Y-107872133D01*
X165291268Y-107877627D01*
X165253248Y-107906174D01*
X165244795Y-107917499D01*
X163925500Y-107917499D01*
X163925500Y-107242752D01*
X163913867Y-107184269D01*
X163896734Y-107158629D01*
X163875500Y-107088628D01*
X163875500Y-106839868D01*
X163875696Y-106837194D01*
X163877426Y-106832157D01*
X163875589Y-106783228D01*
X163875500Y-106778502D01*
X163875500Y-106759551D01*
X163874618Y-106754818D01*
X163874390Y-106751291D01*
X163873663Y-106731919D01*
X163873662Y-106731917D01*
X163873226Y-106720291D01*
X163868632Y-106709599D01*
X163867595Y-106704996D01*
X163864038Y-106693285D01*
X163862339Y-106688882D01*
X163860209Y-106677446D01*
X163847272Y-106656458D01*
X163838769Y-106640088D01*
X163832548Y-106625608D01*
X163832545Y-106625603D01*
X163829036Y-106617436D01*
X163825023Y-106612550D01*
X163822840Y-106610367D01*
X163820776Y-106608091D01*
X163820937Y-106607945D01*
X163813835Y-106598960D01*
X163807571Y-106592053D01*
X163801468Y-106582151D01*
X163779689Y-106565590D01*
X163766868Y-106554395D01*
X163654417Y-106441944D01*
X163620392Y-106379633D01*
X163625456Y-106308817D01*
X163654417Y-106263754D01*
X164404970Y-105513201D01*
X164467282Y-105479175D01*
X164538097Y-105484240D01*
X164570400Y-105505000D01*
X164571718Y-105503282D01*
X164697159Y-105599536D01*
X164843238Y-105660044D01*
X165000000Y-105680682D01*
X165008188Y-105679604D01*
X165148574Y-105661122D01*
X165156762Y-105660044D01*
X165302841Y-105599536D01*
X165401376Y-105523928D01*
X165421736Y-105508305D01*
X165428282Y-105503282D01*
X165433782Y-105496115D01*
X165488723Y-105424514D01*
X165524536Y-105377841D01*
X165585044Y-105231762D01*
X165605682Y-105075000D01*
X165587141Y-104934167D01*
X165586122Y-104926426D01*
X165585044Y-104918238D01*
X165524536Y-104772159D01*
X165445698Y-104669415D01*
X165433305Y-104653264D01*
X165428282Y-104646718D01*
X165302841Y-104550464D01*
X165156762Y-104489956D01*
X165000000Y-104469318D01*
X164914571Y-104480565D01*
X164844423Y-104469626D01*
X164791324Y-104422498D01*
X164772134Y-104354144D01*
X164773203Y-104339197D01*
X164783372Y-104261956D01*
X164784450Y-104253768D01*
X164769555Y-104140628D01*
X164764890Y-104105194D01*
X164763812Y-104097006D01*
X164703304Y-103950927D01*
X164607050Y-103825486D01*
X164481609Y-103729232D01*
X164335530Y-103668724D01*
X164178768Y-103648086D01*
X164022006Y-103668724D01*
X163875927Y-103729232D01*
X163750486Y-103825486D01*
X163654232Y-103950927D01*
X163593724Y-104097006D01*
X163592646Y-104105194D01*
X163587981Y-104140628D01*
X163573086Y-104253768D01*
X163574164Y-104261956D01*
X163591236Y-104391628D01*
X163593724Y-104410530D01*
X163654232Y-104556609D01*
X163659259Y-104563160D01*
X163659261Y-104563164D01*
X163682912Y-104593987D01*
X163708512Y-104660207D01*
X163694247Y-104729756D01*
X163672044Y-104759785D01*
X163418475Y-105013354D01*
X163356163Y-105047380D01*
X163285348Y-105042315D01*
X163228512Y-104999768D01*
X163204458Y-104940705D01*
X163203598Y-104934167D01*
X163185044Y-104793238D01*
X163124536Y-104647159D01*
X163047713Y-104547041D01*
X163033305Y-104528264D01*
X163028282Y-104521718D01*
X162902841Y-104425464D01*
X162756762Y-104364956D01*
X162600000Y-104344318D01*
X162591812Y-104345396D01*
X162510231Y-104356136D01*
X162440082Y-104345196D01*
X162386984Y-104298068D01*
X162367794Y-104229714D01*
X162377376Y-104182996D01*
X162394768Y-104141009D01*
X162394769Y-104141006D01*
X162397928Y-104133379D01*
X162418566Y-103976617D01*
X162397928Y-103819855D01*
X162337420Y-103673776D01*
X162241166Y-103548335D01*
X162115725Y-103452081D01*
X161984904Y-103397893D01*
X161969646Y-103391573D01*
X161812884Y-103370935D01*
X161656122Y-103391573D01*
X161640864Y-103397893D01*
X161510043Y-103452081D01*
X161384602Y-103548335D01*
X161288348Y-103673776D01*
X161227840Y-103819855D01*
X161207202Y-103976617D01*
X161227840Y-104133379D01*
X161288348Y-104279458D01*
X161293375Y-104286009D01*
X161368276Y-104383623D01*
X161393876Y-104449844D01*
X161379611Y-104519393D01*
X161357408Y-104549422D01*
X161174548Y-104732282D01*
X161172514Y-104734038D01*
X161167731Y-104736376D01*
X161159819Y-104744905D01*
X161159818Y-104744906D01*
X161134427Y-104772278D01*
X161131147Y-104775683D01*
X161117752Y-104789078D01*
X161115028Y-104793048D01*
X161112703Y-104795696D01*
X161099508Y-104809920D01*
X161099506Y-104809923D01*
X161091599Y-104818447D01*
X161087289Y-104829251D01*
X161084767Y-104833240D01*
X161079006Y-104844028D01*
X161077089Y-104848353D01*
X161070508Y-104857947D01*
X161067822Y-104869266D01*
X161067821Y-104869268D01*
X161064817Y-104881928D01*
X161059252Y-104899525D01*
X161050117Y-104922423D01*
X161049500Y-104928716D01*
X161049500Y-104931795D01*
X161049350Y-104934868D01*
X161049134Y-104934857D01*
X161047802Y-104946232D01*
X161047346Y-104955547D01*
X161044660Y-104966867D01*
X161046229Y-104978396D01*
X161046229Y-104978397D01*
X161048349Y-104993974D01*
X161049500Y-105010965D01*
X161049500Y-106335836D01*
X161029498Y-106403957D01*
X161012596Y-106424931D01*
X160914096Y-106523432D01*
X160851784Y-106557457D01*
X160780968Y-106552393D01*
X160735905Y-106523432D01*
X160637405Y-106424932D01*
X160603379Y-106362620D01*
X160600500Y-106335837D01*
X160600500Y-104934167D01*
X160600696Y-104931494D01*
X160602425Y-104926459D01*
X160601964Y-104914163D01*
X160600589Y-104877546D01*
X160600500Y-104872820D01*
X160600500Y-104853853D01*
X160599618Y-104849118D01*
X160599390Y-104845592D01*
X160598926Y-104833240D01*
X160598226Y-104814593D01*
X160593636Y-104803908D01*
X160592599Y-104799308D01*
X160589038Y-104787587D01*
X160587339Y-104783184D01*
X160585209Y-104771748D01*
X160572272Y-104750760D01*
X160563769Y-104734390D01*
X160557549Y-104719913D01*
X160557547Y-104719909D01*
X160554036Y-104711738D01*
X160550022Y-104706852D01*
X160547837Y-104704667D01*
X160545785Y-104702404D01*
X160545945Y-104702259D01*
X160538825Y-104693252D01*
X160532573Y-104686357D01*
X160526468Y-104676453D01*
X160504680Y-104659885D01*
X160491861Y-104648691D01*
X160477955Y-104634785D01*
X160443929Y-104572473D01*
X160448994Y-104501658D01*
X160467085Y-104468990D01*
X160495768Y-104431609D01*
X160556276Y-104285530D01*
X160558765Y-104266628D01*
X160575836Y-104136956D01*
X160576914Y-104128768D01*
X160556276Y-103972006D01*
X160495768Y-103825927D01*
X160399514Y-103700486D01*
X160274073Y-103604232D01*
X160127994Y-103543724D01*
X159971232Y-103523086D01*
X159814470Y-103543724D01*
X159668391Y-103604232D01*
X159542950Y-103700486D01*
X159446696Y-103825927D01*
X159386188Y-103972006D01*
X159365550Y-104128768D01*
X159366628Y-104136956D01*
X159366628Y-104140628D01*
X159346626Y-104208749D01*
X159292970Y-104255242D01*
X159240628Y-104266628D01*
X159236956Y-104266628D01*
X159228768Y-104265550D01*
X159072006Y-104286188D01*
X158925927Y-104346696D01*
X158800486Y-104442950D01*
X158795463Y-104449496D01*
X158780853Y-104468536D01*
X158704232Y-104568391D01*
X158643724Y-104714470D01*
X158623086Y-104871232D01*
X158623926Y-104877613D01*
X158604162Y-104944924D01*
X158550506Y-104991417D01*
X158480232Y-105001521D01*
X158415652Y-104972027D01*
X158409069Y-104965898D01*
X158202956Y-104759785D01*
X158168930Y-104697473D01*
X158173995Y-104626658D01*
X158192088Y-104593987D01*
X158215739Y-104563164D01*
X158215741Y-104563160D01*
X158220768Y-104556609D01*
X158281276Y-104410530D01*
X158283765Y-104391628D01*
X158300836Y-104261956D01*
X158301914Y-104253768D01*
X158287019Y-104140628D01*
X158282354Y-104105194D01*
X158281276Y-104097006D01*
X158220768Y-103950927D01*
X158124514Y-103825486D01*
X157999073Y-103729232D01*
X157852994Y-103668724D01*
X157696232Y-103648086D01*
X157539470Y-103668724D01*
X157393391Y-103729232D01*
X157267950Y-103825486D01*
X157171696Y-103950927D01*
X157111188Y-104097006D01*
X157110110Y-104105194D01*
X157105445Y-104140628D01*
X157090550Y-104253768D01*
X157091628Y-104261956D01*
X157091628Y-104265628D01*
X157071626Y-104333749D01*
X157017970Y-104380242D01*
X156965628Y-104391628D01*
X156961956Y-104391628D01*
X156953768Y-104390550D01*
X156797006Y-104411188D01*
X156650927Y-104471696D01*
X156525486Y-104567950D01*
X156429232Y-104693391D01*
X156368724Y-104839470D01*
X156348086Y-104996232D01*
X156368724Y-105152994D01*
X156429232Y-105299073D01*
X156525486Y-105424514D01*
X156650927Y-105520768D01*
X156797006Y-105581276D01*
X156805194Y-105582354D01*
X156816064Y-105583785D01*
X156953768Y-105601914D01*
X156961956Y-105600836D01*
X157102342Y-105582354D01*
X157110530Y-105581276D01*
X157256609Y-105520768D01*
X157293988Y-105492086D01*
X157360207Y-105466487D01*
X157429755Y-105480752D01*
X157459785Y-105502955D01*
X158012595Y-106055765D01*
X158046621Y-106118077D01*
X158049500Y-106144860D01*
X158049500Y-106335836D01*
X158029498Y-106403957D01*
X158012596Y-106424931D01*
X157899548Y-106537980D01*
X157897513Y-106539736D01*
X157892731Y-106542074D01*
X157882935Y-106552634D01*
X157859414Y-106577989D01*
X157856162Y-106581365D01*
X157842752Y-106594776D01*
X157840029Y-106598745D01*
X157837701Y-106601396D01*
X157824508Y-106615618D01*
X157824506Y-106615621D01*
X157816599Y-106624145D01*
X157812289Y-106634949D01*
X157809767Y-106638938D01*
X157804006Y-106649726D01*
X157802089Y-106654051D01*
X157795508Y-106663645D01*
X157792822Y-106674964D01*
X157792821Y-106674966D01*
X157789817Y-106687626D01*
X157784252Y-106705223D01*
X157779216Y-106717847D01*
X157775117Y-106728121D01*
X157774500Y-106734414D01*
X157774500Y-106737493D01*
X157774350Y-106740566D01*
X157774134Y-106740555D01*
X157772802Y-106751930D01*
X157772346Y-106761245D01*
X157769660Y-106772565D01*
X157771229Y-106784094D01*
X157771229Y-106784095D01*
X157773349Y-106799672D01*
X157774500Y-106816663D01*
X157774500Y-106936000D01*
X157754498Y-107004121D01*
X157700842Y-107050614D01*
X157648500Y-107062000D01*
X157405252Y-107062000D01*
X157349579Y-107073074D01*
X157300421Y-107073074D01*
X157244748Y-107062000D01*
X157026500Y-107062000D01*
X156958379Y-107041998D01*
X156911886Y-106988342D01*
X156900500Y-106936000D01*
X156900500Y-106344713D01*
X156900979Y-106333732D01*
X156903303Y-106307170D01*
X156903303Y-106307168D01*
X156904263Y-106296193D01*
X156894508Y-106259783D01*
X156892133Y-106249072D01*
X156885588Y-106211955D01*
X156880079Y-106202412D01*
X156878888Y-106199140D01*
X156877408Y-106195967D01*
X156874554Y-106185316D01*
X156852945Y-106154456D01*
X156847039Y-106145185D01*
X156833707Y-106122094D01*
X156828194Y-106112545D01*
X156799317Y-106088315D01*
X156791215Y-106080889D01*
X156294111Y-105583785D01*
X156286684Y-105575681D01*
X156269541Y-105555251D01*
X156269542Y-105555251D01*
X156262455Y-105546806D01*
X156252906Y-105541293D01*
X156229815Y-105527961D01*
X156220544Y-105522055D01*
X156211527Y-105515741D01*
X156189684Y-105500446D01*
X156179034Y-105497592D01*
X156175866Y-105496115D01*
X156172590Y-105494923D01*
X156163045Y-105489412D01*
X156127104Y-105483075D01*
X156125942Y-105482870D01*
X156115215Y-105480492D01*
X156078807Y-105470736D01*
X156067822Y-105471697D01*
X156067820Y-105471697D01*
X156041272Y-105474020D01*
X156030290Y-105474500D01*
X155872022Y-105474500D01*
X155803901Y-105454498D01*
X155757408Y-105400842D01*
X155748949Y-105375500D01*
X155748242Y-105372275D01*
X155747519Y-105364631D01*
X155744977Y-105357392D01*
X155744976Y-105357388D01*
X155721150Y-105289543D01*
X155702634Y-105236816D01*
X155697042Y-105229246D01*
X155697041Y-105229243D01*
X155627742Y-105135421D01*
X155622150Y-105127850D01*
X155561683Y-105083188D01*
X155520757Y-105052959D01*
X155520754Y-105052958D01*
X155513184Y-105047366D01*
X155385369Y-105002481D01*
X155377723Y-105001758D01*
X155377722Y-105001758D01*
X155371752Y-105001194D01*
X155353834Y-104999500D01*
X154346166Y-104999500D01*
X154328248Y-105001194D01*
X154322278Y-105001758D01*
X154322277Y-105001758D01*
X154314631Y-105002481D01*
X154186816Y-105047366D01*
X154179246Y-105052958D01*
X154179243Y-105052959D01*
X154138317Y-105083188D01*
X154077850Y-105127850D01*
X154072258Y-105135421D01*
X154002959Y-105229243D01*
X154002958Y-105229246D01*
X153997366Y-105236816D01*
X153952481Y-105364631D01*
X153951758Y-105372277D01*
X153951758Y-105372278D01*
X153951232Y-105377841D01*
X153949500Y-105396166D01*
X153949500Y-106203834D01*
X153952481Y-106235369D01*
X153955025Y-106242613D01*
X153955026Y-106242616D01*
X153995107Y-106356752D01*
X153998805Y-106427652D01*
X153963585Y-106489297D01*
X153900628Y-106522114D01*
X153876224Y-106524500D01*
X153362017Y-106524500D01*
X153293896Y-106504498D01*
X153272922Y-106487595D01*
X152962405Y-106177078D01*
X152928379Y-106114766D01*
X152925500Y-106087983D01*
X152925500Y-105396166D01*
X152923768Y-105377841D01*
X152923242Y-105372278D01*
X152923242Y-105372277D01*
X152922519Y-105364631D01*
X152877634Y-105236816D01*
X152872042Y-105229246D01*
X152872041Y-105229243D01*
X152802742Y-105135421D01*
X152797150Y-105127850D01*
X152736683Y-105083188D01*
X152695757Y-105052959D01*
X152695754Y-105052958D01*
X152688184Y-105047366D01*
X152560369Y-105002481D01*
X152552723Y-105001758D01*
X152552722Y-105001758D01*
X152546752Y-105001194D01*
X152528834Y-104999500D01*
X151521166Y-104999500D01*
X151503248Y-105001194D01*
X151497278Y-105001758D01*
X151497277Y-105001758D01*
X151489631Y-105002481D01*
X151361816Y-105047366D01*
X151354246Y-105052958D01*
X151354243Y-105052959D01*
X151313317Y-105083188D01*
X151252850Y-105127850D01*
X151247258Y-105135421D01*
X151177959Y-105229243D01*
X151177958Y-105229246D01*
X151172366Y-105236816D01*
X151127481Y-105364631D01*
X151126758Y-105372277D01*
X151126758Y-105372278D01*
X151126232Y-105377841D01*
X151124500Y-105396166D01*
X151124500Y-106203834D01*
X151127481Y-106235369D01*
X151172366Y-106363184D01*
X151177958Y-106370754D01*
X151177959Y-106370757D01*
X151217973Y-106424931D01*
X151252850Y-106472150D01*
X151260421Y-106477742D01*
X151354243Y-106547041D01*
X151354246Y-106547042D01*
X151361816Y-106552634D01*
X151489631Y-106597519D01*
X151497277Y-106598242D01*
X151497278Y-106598242D01*
X151503248Y-106598806D01*
X151521166Y-106600500D01*
X152412983Y-106600500D01*
X152481104Y-106620502D01*
X152502078Y-106637405D01*
X152930895Y-107066222D01*
X152938321Y-107074325D01*
X152962545Y-107103194D01*
X152972088Y-107108704D01*
X152972092Y-107108707D01*
X152995179Y-107122036D01*
X153004448Y-107127940D01*
X153035316Y-107149554D01*
X153045964Y-107152407D01*
X153049135Y-107153886D01*
X153052411Y-107155078D01*
X153061955Y-107160588D01*
X153099076Y-107167134D01*
X153109783Y-107169508D01*
X153146193Y-107179263D01*
X153157168Y-107178303D01*
X153157170Y-107178303D01*
X153183731Y-107175979D01*
X153194712Y-107175500D01*
X154098500Y-107175500D01*
X154166621Y-107195502D01*
X154213114Y-107249158D01*
X154224500Y-107301500D01*
X154224500Y-108584984D01*
X154204498Y-108653105D01*
X154150842Y-108699598D01*
X154080568Y-108709702D01*
X154015988Y-108680208D01*
X154009405Y-108674079D01*
X152569111Y-107233785D01*
X152561684Y-107225681D01*
X152544541Y-107205251D01*
X152544542Y-107205251D01*
X152537455Y-107196806D01*
X152515740Y-107184269D01*
X152504815Y-107177961D01*
X152495544Y-107172055D01*
X152473715Y-107156770D01*
X152464684Y-107150446D01*
X152454034Y-107147592D01*
X152450866Y-107146115D01*
X152447590Y-107144923D01*
X152438045Y-107139412D01*
X152404301Y-107133462D01*
X152400942Y-107132870D01*
X152390215Y-107130492D01*
X152353807Y-107120736D01*
X152342822Y-107121697D01*
X152342820Y-107121697D01*
X152316272Y-107124020D01*
X152305290Y-107124500D01*
X150376500Y-107124500D01*
X150308379Y-107104498D01*
X150261886Y-107050842D01*
X150250500Y-106998500D01*
X150250500Y-104319286D01*
X150270502Y-104251165D01*
X150299796Y-104219323D01*
X150346736Y-104183305D01*
X150353282Y-104178282D01*
X150394323Y-104124796D01*
X150451661Y-104082929D01*
X150494286Y-104075500D01*
X150998500Y-104075500D01*
X151066621Y-104095502D01*
X151113114Y-104149158D01*
X151123724Y-104197931D01*
X151124360Y-104197901D01*
X151124500Y-104200868D01*
X151124500Y-104203834D01*
X151127481Y-104235369D01*
X151172366Y-104363184D01*
X151177958Y-104370754D01*
X151177959Y-104370757D01*
X151218367Y-104425464D01*
X151252850Y-104472150D01*
X151260421Y-104477742D01*
X151354243Y-104547041D01*
X151354246Y-104547042D01*
X151361816Y-104552634D01*
X151489631Y-104597519D01*
X151497277Y-104598242D01*
X151497278Y-104598242D01*
X151503248Y-104598806D01*
X151521166Y-104600500D01*
X152528834Y-104600500D01*
X152546752Y-104598806D01*
X152552722Y-104598242D01*
X152552723Y-104598242D01*
X152560369Y-104597519D01*
X152688184Y-104552634D01*
X152695754Y-104547042D01*
X152695757Y-104547041D01*
X152789579Y-104477742D01*
X152797150Y-104472150D01*
X152831633Y-104425464D01*
X152872041Y-104370757D01*
X152872042Y-104370754D01*
X152877634Y-104363184D01*
X152922519Y-104235369D01*
X152925500Y-104203834D01*
X152925500Y-104200868D01*
X152925640Y-104197901D01*
X152926544Y-104197944D01*
X152945502Y-104133379D01*
X152999158Y-104086886D01*
X153051500Y-104075500D01*
X153823500Y-104075500D01*
X153891621Y-104095502D01*
X153938114Y-104149158D01*
X153948724Y-104197931D01*
X153949360Y-104197901D01*
X153949500Y-104200868D01*
X153949500Y-104203834D01*
X153952481Y-104235369D01*
X153997366Y-104363184D01*
X154002958Y-104370754D01*
X154002959Y-104370757D01*
X154043367Y-104425464D01*
X154077850Y-104472150D01*
X154085421Y-104477742D01*
X154179243Y-104547041D01*
X154179246Y-104547042D01*
X154186816Y-104552634D01*
X154314631Y-104597519D01*
X154322277Y-104598242D01*
X154322278Y-104598242D01*
X154328248Y-104598806D01*
X154346166Y-104600500D01*
X155353834Y-104600500D01*
X155371752Y-104598806D01*
X155377722Y-104598242D01*
X155377723Y-104598242D01*
X155385369Y-104597519D01*
X155513184Y-104552634D01*
X155520754Y-104547042D01*
X155520757Y-104547041D01*
X155614579Y-104477742D01*
X155622150Y-104472150D01*
X155656633Y-104425464D01*
X155697041Y-104370757D01*
X155697042Y-104370754D01*
X155702634Y-104363184D01*
X155747519Y-104235369D01*
X155750500Y-104203834D01*
X155750500Y-103396166D01*
X155748806Y-103378248D01*
X155748242Y-103372278D01*
X155748242Y-103372277D01*
X155747519Y-103364631D01*
X155702634Y-103236816D01*
X155697042Y-103229246D01*
X155697041Y-103229243D01*
X155627742Y-103135421D01*
X155622150Y-103127850D01*
X155614579Y-103122258D01*
X155614577Y-103122256D01*
X155608612Y-103117850D01*
X155565702Y-103061288D01*
X155560183Y-102990506D01*
X155593809Y-102927977D01*
X155655902Y-102893554D01*
X155683473Y-102890500D01*
X155934748Y-102890500D01*
X155970347Y-102883419D01*
X155981061Y-102881288D01*
X155981062Y-102881288D01*
X155993231Y-102878867D01*
X156059552Y-102834552D01*
X156093302Y-102784043D01*
X156096974Y-102778547D01*
X156103867Y-102768231D01*
X156106406Y-102755470D01*
X156114293Y-102715816D01*
X156115500Y-102709748D01*
X156115500Y-99170252D01*
X156103867Y-99111769D01*
X156093842Y-99096765D01*
X156066443Y-99055761D01*
X156059552Y-99045448D01*
X155993231Y-99001133D01*
X155981062Y-98998712D01*
X155981061Y-98998712D01*
X155940816Y-98990707D01*
X155934748Y-98989500D01*
X155551500Y-98989500D01*
X155483379Y-98969498D01*
X155436886Y-98915842D01*
X155425500Y-98863500D01*
X155425500Y-98044698D01*
X155425980Y-98033716D01*
X155428302Y-98007180D01*
X155428302Y-98007178D01*
X155429263Y-97996193D01*
X155419512Y-97959803D01*
X155417132Y-97949069D01*
X155412502Y-97922812D01*
X155410588Y-97911955D01*
X155405076Y-97902407D01*
X155403883Y-97899130D01*
X155402406Y-97895962D01*
X155399553Y-97885316D01*
X155377942Y-97854452D01*
X155372038Y-97845184D01*
X155358704Y-97822089D01*
X155353194Y-97812545D01*
X155324330Y-97788325D01*
X155316227Y-97780900D01*
X155019104Y-97483778D01*
X155011677Y-97475673D01*
X154994541Y-97455251D01*
X154987455Y-97446806D01*
X154977906Y-97441293D01*
X154954815Y-97427961D01*
X154945544Y-97422055D01*
X154945364Y-97421929D01*
X154914684Y-97400446D01*
X154904034Y-97397592D01*
X154900866Y-97396115D01*
X154897590Y-97394923D01*
X154888045Y-97389412D01*
X154854301Y-97383462D01*
X154850942Y-97382870D01*
X154840215Y-97380492D01*
X154803807Y-97370736D01*
X154792822Y-97371697D01*
X154792820Y-97371697D01*
X154766272Y-97374020D01*
X154755290Y-97374500D01*
X150444286Y-97374500D01*
X150376165Y-97354498D01*
X150344323Y-97325204D01*
X150308305Y-97278264D01*
X150303282Y-97271718D01*
X150222079Y-97209409D01*
X150180213Y-97152072D01*
X150175991Y-97081201D01*
X150209659Y-97020406D01*
X150216101Y-97015463D01*
X150257142Y-96961977D01*
X150314480Y-96920110D01*
X150357105Y-96912681D01*
X155600165Y-96912681D01*
X155668286Y-96932683D01*
X155689260Y-96949586D01*
X157242595Y-98502922D01*
X157276621Y-98565234D01*
X157279500Y-98592017D01*
X157279500Y-98863500D01*
X157259498Y-98931621D01*
X157205842Y-98978114D01*
X157153500Y-98989500D01*
X156735252Y-98989500D01*
X156729184Y-98990707D01*
X156688939Y-98998712D01*
X156688938Y-98998712D01*
X156676769Y-99001133D01*
X156610448Y-99045448D01*
X156603557Y-99055761D01*
X156576159Y-99096765D01*
X156566133Y-99111769D01*
X156554500Y-99170252D01*
X156554500Y-102709748D01*
X156555707Y-102715816D01*
X156563595Y-102755470D01*
X156566133Y-102768231D01*
X156573026Y-102778547D01*
X156576698Y-102784043D01*
X156610448Y-102834552D01*
X156676769Y-102878867D01*
X156688938Y-102881288D01*
X156688939Y-102881288D01*
X156699653Y-102883419D01*
X156735252Y-102890500D01*
X158474748Y-102890500D01*
X158510347Y-102883419D01*
X158521061Y-102881288D01*
X158521062Y-102881288D01*
X158533231Y-102878867D01*
X158599552Y-102834552D01*
X158633302Y-102784043D01*
X158636974Y-102778547D01*
X158643867Y-102768231D01*
X158646406Y-102755470D01*
X158654293Y-102715816D01*
X158655500Y-102709748D01*
X158655500Y-99170252D01*
X158643867Y-99111769D01*
X158633842Y-99096765D01*
X158606443Y-99055761D01*
X158599552Y-99045448D01*
X158533231Y-99001133D01*
X158521062Y-98998712D01*
X158521061Y-98998712D01*
X158480816Y-98990707D01*
X158474748Y-98989500D01*
X158056500Y-98989500D01*
X157988379Y-98969498D01*
X157941886Y-98915842D01*
X157930500Y-98863500D01*
X157930500Y-98424713D01*
X157930979Y-98413732D01*
X157933303Y-98387170D01*
X157933303Y-98387168D01*
X157934263Y-98376193D01*
X157924508Y-98339783D01*
X157922133Y-98329072D01*
X157915588Y-98291955D01*
X157910078Y-98282411D01*
X157908886Y-98279135D01*
X157907407Y-98275964D01*
X157904554Y-98265316D01*
X157882940Y-98234448D01*
X157877036Y-98225179D01*
X157863707Y-98202092D01*
X157863704Y-98202088D01*
X157858194Y-98192545D01*
X157829324Y-98168320D01*
X157821221Y-98160894D01*
X156031291Y-96370965D01*
X156023864Y-96362861D01*
X156006722Y-96342432D01*
X156006723Y-96342432D01*
X155999636Y-96333987D01*
X155990087Y-96328474D01*
X155966996Y-96315142D01*
X155957725Y-96309236D01*
X155955710Y-96307825D01*
X155926865Y-96287627D01*
X155916215Y-96284773D01*
X155913047Y-96283296D01*
X155909771Y-96282104D01*
X155900226Y-96276593D01*
X155866482Y-96270643D01*
X155863123Y-96270051D01*
X155852396Y-96267673D01*
X155815988Y-96257917D01*
X155805003Y-96258878D01*
X155805001Y-96258878D01*
X155778453Y-96261201D01*
X155767471Y-96261681D01*
X150357105Y-96261681D01*
X150288984Y-96241679D01*
X150257142Y-96212385D01*
X150221124Y-96165445D01*
X150216101Y-96158899D01*
X150090660Y-96062645D01*
X149944581Y-96002137D01*
X149787819Y-95981499D01*
X149631057Y-96002137D01*
X149484978Y-96062645D01*
X149359537Y-96158899D01*
X149263283Y-96284340D01*
X149202775Y-96430419D01*
X149182137Y-96587181D01*
X149202775Y-96743943D01*
X149263283Y-96890022D01*
X149359537Y-97015463D01*
X149408431Y-97052980D01*
X149440739Y-97077771D01*
X149482606Y-97135109D01*
X149486828Y-97205980D01*
X149453160Y-97266775D01*
X149446718Y-97271718D01*
X149350464Y-97397159D01*
X149289956Y-97543238D01*
X149269318Y-97700000D01*
X149289956Y-97856762D01*
X149350464Y-98002841D01*
X149446718Y-98128282D01*
X149572159Y-98224536D01*
X149718238Y-98285044D01*
X149726426Y-98286122D01*
X149796619Y-98295363D01*
X149875000Y-98305682D01*
X149883188Y-98304604D01*
X149896846Y-98302806D01*
X149953381Y-98295363D01*
X150023574Y-98286122D01*
X150031762Y-98285044D01*
X150177841Y-98224536D01*
X150303282Y-98128282D01*
X150344323Y-98074796D01*
X150401661Y-98032929D01*
X150444286Y-98025500D01*
X154587983Y-98025500D01*
X154656104Y-98045502D01*
X154677079Y-98062405D01*
X154737596Y-98122923D01*
X154771621Y-98185236D01*
X154774500Y-98212018D01*
X154774500Y-98863500D01*
X154754498Y-98931621D01*
X154700842Y-98978114D01*
X154648500Y-98989500D01*
X154195252Y-98989500D01*
X154189184Y-98990707D01*
X154148939Y-98998712D01*
X154148938Y-98998712D01*
X154136769Y-99001133D01*
X154070448Y-99045448D01*
X154063557Y-99055761D01*
X154059152Y-99060166D01*
X153996840Y-99094192D01*
X153926025Y-99089127D01*
X153869189Y-99046580D01*
X153852075Y-99015301D01*
X153828324Y-98951946D01*
X153819786Y-98936351D01*
X153743285Y-98834276D01*
X153730724Y-98821715D01*
X153628649Y-98745214D01*
X153613054Y-98736676D01*
X153492606Y-98691522D01*
X153477351Y-98687895D01*
X153426486Y-98682369D01*
X153419672Y-98682000D01*
X152797115Y-98682000D01*
X152781876Y-98686475D01*
X152780671Y-98687865D01*
X152779000Y-98695548D01*
X152779000Y-101068000D01*
X152758998Y-101136121D01*
X152705342Y-101182614D01*
X152653000Y-101194000D01*
X152397000Y-101194000D01*
X152328879Y-101173998D01*
X152282386Y-101120342D01*
X152271000Y-101068000D01*
X152271000Y-98700116D01*
X152266525Y-98684877D01*
X152265135Y-98683672D01*
X152257452Y-98682001D01*
X151630331Y-98682001D01*
X151623510Y-98682371D01*
X151572648Y-98687895D01*
X151557396Y-98691521D01*
X151436946Y-98736676D01*
X151421351Y-98745214D01*
X151319276Y-98821715D01*
X151306715Y-98834276D01*
X151230214Y-98936351D01*
X151221676Y-98951946D01*
X151197925Y-99015301D01*
X151155283Y-99072065D01*
X151088722Y-99096765D01*
X151019373Y-99081557D01*
X150990848Y-99060166D01*
X150986443Y-99055761D01*
X150979552Y-99045448D01*
X150913231Y-99001133D01*
X150901062Y-98998712D01*
X150901061Y-98998712D01*
X150860816Y-98990707D01*
X150854748Y-98989500D01*
X150047089Y-98989500D01*
X150033919Y-98988810D01*
X149998498Y-98985087D01*
X149998496Y-98985087D01*
X149992369Y-98984443D01*
X149944382Y-98988810D01*
X149942503Y-98988981D01*
X149931084Y-98989500D01*
X149115252Y-98989500D01*
X149109184Y-98990707D01*
X149068939Y-98998712D01*
X149068938Y-98998712D01*
X149056769Y-99001133D01*
X148990448Y-99045448D01*
X148983557Y-99055761D01*
X148956159Y-99096765D01*
X148946133Y-99111769D01*
X148934500Y-99170252D01*
X148934500Y-99973817D01*
X148933715Y-99987862D01*
X148929520Y-100025262D01*
X148500706Y-100025262D01*
X148496101Y-99978293D01*
X148495500Y-99965999D01*
X148495500Y-99170252D01*
X148483867Y-99111769D01*
X148473842Y-99096765D01*
X148446443Y-99055761D01*
X148439552Y-99045448D01*
X148373231Y-99001133D01*
X148361062Y-98998712D01*
X148361061Y-98998712D01*
X148320816Y-98990707D01*
X148314748Y-98989500D01*
X146575252Y-98989500D01*
X146569184Y-98990707D01*
X146528939Y-98998712D01*
X146528938Y-98998712D01*
X146516769Y-99001133D01*
X146450448Y-99045448D01*
X146443557Y-99055761D01*
X146416159Y-99096765D01*
X146406133Y-99111769D01*
X146394500Y-99170252D01*
X146394500Y-102709748D01*
X146395707Y-102715816D01*
X146403595Y-102755470D01*
X146406133Y-102768231D01*
X146413026Y-102778547D01*
X146416698Y-102784043D01*
X146450448Y-102834552D01*
X146457733Y-102839420D01*
X146490550Y-102899518D01*
X146485485Y-102970333D01*
X146442938Y-103027169D01*
X146376418Y-103051980D01*
X146367306Y-103052301D01*
X145982846Y-103051890D01*
X145914748Y-103031815D01*
X145868312Y-102978110D01*
X145858284Y-102907825D01*
X145887846Y-102843276D01*
X145890076Y-102840884D01*
X145899552Y-102834552D01*
X145933302Y-102784043D01*
X145936974Y-102778547D01*
X145943867Y-102768231D01*
X145946406Y-102755470D01*
X145954293Y-102715816D01*
X145955500Y-102709748D01*
X145955500Y-100114373D01*
X145956494Y-100098581D01*
X145959728Y-100072978D01*
X145960171Y-100069474D01*
X145960583Y-100040000D01*
X145956101Y-99994288D01*
X145955500Y-99981994D01*
X145955500Y-99170252D01*
X145943867Y-99111769D01*
X145933842Y-99096765D01*
X145906443Y-99055761D01*
X145899552Y-99045448D01*
X145833231Y-99001133D01*
X145821062Y-98998712D01*
X145821061Y-98998712D01*
X145780816Y-98990707D01*
X145774748Y-98989500D01*
X144967089Y-98989500D01*
X144953919Y-98988810D01*
X144918498Y-98985087D01*
X144918496Y-98985087D01*
X144912369Y-98984443D01*
X144864382Y-98988810D01*
X144862503Y-98988981D01*
X144851084Y-98989500D01*
X144035252Y-98989500D01*
X144029184Y-98990707D01*
X143988939Y-98998712D01*
X143988938Y-98998712D01*
X143976769Y-99001133D01*
X143910448Y-99045448D01*
X143903557Y-99055761D01*
X143876159Y-99096765D01*
X143866133Y-99111769D01*
X143854500Y-99170252D01*
X143854500Y-99973817D01*
X143853715Y-99987862D01*
X143849520Y-100025262D01*
X143854058Y-100079302D01*
X143854500Y-100089846D01*
X143854500Y-102709748D01*
X143855707Y-102715816D01*
X143863595Y-102755470D01*
X143866133Y-102768231D01*
X143873026Y-102778547D01*
X143876698Y-102784043D01*
X143910448Y-102834552D01*
X143915790Y-102838122D01*
X143947832Y-102896800D01*
X143942767Y-102967615D01*
X143900220Y-103024451D01*
X143833700Y-103049262D01*
X143824576Y-103049583D01*
X143445559Y-103049178D01*
X143377460Y-103029103D01*
X143331025Y-102975398D01*
X143320996Y-102905113D01*
X143350558Y-102840564D01*
X143350564Y-102840558D01*
X143359552Y-102834552D01*
X143393302Y-102784043D01*
X143396974Y-102778547D01*
X143403867Y-102768231D01*
X143406406Y-102755470D01*
X143414293Y-102715816D01*
X143415500Y-102709748D01*
X143415500Y-100114373D01*
X143416494Y-100098581D01*
X143419728Y-100072978D01*
X143420171Y-100069474D01*
X143420583Y-100040000D01*
X143416101Y-99994288D01*
X143415500Y-99981994D01*
X143415500Y-99170252D01*
X143403867Y-99111769D01*
X143393842Y-99096765D01*
X143366443Y-99055761D01*
X143359552Y-99045448D01*
X143293231Y-99001133D01*
X143281062Y-98998712D01*
X143281061Y-98998712D01*
X143240816Y-98990707D01*
X143234748Y-98989500D01*
X142427089Y-98989500D01*
X142413919Y-98988810D01*
X142378498Y-98985087D01*
X142378496Y-98985087D01*
X142372369Y-98984443D01*
X142324382Y-98988810D01*
X142322503Y-98988981D01*
X142311084Y-98989500D01*
X141495252Y-98989500D01*
X141489184Y-98990707D01*
X141448939Y-98998712D01*
X141448938Y-98998712D01*
X141436769Y-99001133D01*
X141370448Y-99045448D01*
X141363557Y-99055761D01*
X141359152Y-99060166D01*
X141296840Y-99094192D01*
X141226025Y-99089127D01*
X141169189Y-99046580D01*
X141152075Y-99015301D01*
X141128324Y-98951946D01*
X141119786Y-98936351D01*
X141043285Y-98834276D01*
X141030724Y-98821715D01*
X140928649Y-98745214D01*
X140913054Y-98736676D01*
X140792606Y-98691522D01*
X140777351Y-98687895D01*
X140726486Y-98682369D01*
X140719672Y-98682000D01*
X140097115Y-98682000D01*
X140081876Y-98686475D01*
X140080671Y-98687865D01*
X140079000Y-98695548D01*
X140079000Y-101312000D01*
X140058998Y-101380121D01*
X140005342Y-101426614D01*
X139953000Y-101438000D01*
X139697000Y-101438000D01*
X139628879Y-101417998D01*
X139582386Y-101364342D01*
X139571000Y-101312000D01*
X139571000Y-98700116D01*
X139566525Y-98684877D01*
X139565135Y-98683672D01*
X139557452Y-98682001D01*
X138930331Y-98682001D01*
X138923510Y-98682371D01*
X138872648Y-98687895D01*
X138857396Y-98691521D01*
X138736946Y-98736676D01*
X138721351Y-98745214D01*
X138619276Y-98821715D01*
X138606715Y-98834276D01*
X138530214Y-98936351D01*
X138521676Y-98951946D01*
X138497925Y-99015301D01*
X138455283Y-99072065D01*
X138388722Y-99096765D01*
X138319373Y-99081557D01*
X138290848Y-99060166D01*
X138286443Y-99055761D01*
X138279552Y-99045448D01*
X138213231Y-99001133D01*
X138201062Y-98998712D01*
X138201061Y-98998712D01*
X138160816Y-98990707D01*
X138154748Y-98989500D01*
X137347089Y-98989500D01*
X137333919Y-98988810D01*
X137298498Y-98985087D01*
X137298496Y-98985087D01*
X137292369Y-98984443D01*
X137244382Y-98988810D01*
X137242503Y-98988981D01*
X137231084Y-98989500D01*
X136415252Y-98989500D01*
X136409184Y-98990707D01*
X136368939Y-98998712D01*
X136368938Y-98998712D01*
X136356769Y-99001133D01*
X136290448Y-99045448D01*
X136283557Y-99055761D01*
X136256159Y-99096765D01*
X136246133Y-99111769D01*
X136234500Y-99170252D01*
X136234500Y-99973817D01*
X136233715Y-99987862D01*
X136229520Y-100025262D01*
X136234058Y-100079302D01*
X136234500Y-100089846D01*
X136234500Y-102709748D01*
X136235707Y-102715816D01*
X136243595Y-102755470D01*
X136246133Y-102768231D01*
X136253026Y-102778547D01*
X136256698Y-102784043D01*
X136289692Y-102833420D01*
X136290448Y-102834552D01*
X136290222Y-102834703D01*
X136319679Y-102888647D01*
X136314614Y-102959462D01*
X136272067Y-103016298D01*
X136205547Y-103041109D01*
X136196424Y-103041430D01*
X135833695Y-103041043D01*
X135765595Y-103020968D01*
X135719160Y-102967263D01*
X135709131Y-102896978D01*
X135736913Y-102836315D01*
X135739552Y-102834552D01*
X135773302Y-102784043D01*
X135776974Y-102778547D01*
X135783867Y-102768231D01*
X135786406Y-102755470D01*
X135794293Y-102715816D01*
X135795500Y-102709748D01*
X135795500Y-100114373D01*
X135796494Y-100098581D01*
X135799728Y-100072978D01*
X135800171Y-100069474D01*
X135800583Y-100040000D01*
X135796101Y-99994288D01*
X135795500Y-99981994D01*
X135795500Y-99170252D01*
X135783867Y-99111769D01*
X135773842Y-99096765D01*
X135746443Y-99055761D01*
X135739552Y-99045448D01*
X135673231Y-99001133D01*
X135661062Y-98998712D01*
X135661061Y-98998712D01*
X135620816Y-98990707D01*
X135614748Y-98989500D01*
X134807089Y-98989500D01*
X134793919Y-98988810D01*
X134758498Y-98985087D01*
X134758496Y-98985087D01*
X134752369Y-98984443D01*
X134704382Y-98988810D01*
X134702503Y-98988981D01*
X134691084Y-98989500D01*
X133875252Y-98989500D01*
X133869184Y-98990707D01*
X133828939Y-98998712D01*
X133828938Y-98998712D01*
X133816769Y-99001133D01*
X133750448Y-99045448D01*
X133743557Y-99055761D01*
X133716159Y-99096765D01*
X133706133Y-99111769D01*
X133694500Y-99170252D01*
X133694500Y-99973817D01*
X133693715Y-99987862D01*
X133689520Y-100025262D01*
X133694058Y-100079302D01*
X133694500Y-100089846D01*
X133694500Y-102709748D01*
X133695707Y-102715816D01*
X133703595Y-102755470D01*
X133706133Y-102768231D01*
X133713026Y-102778547D01*
X133750448Y-102834552D01*
X133749319Y-102835307D01*
X133776962Y-102885930D01*
X133771897Y-102956745D01*
X133729350Y-103013581D01*
X133662830Y-103038392D01*
X133653706Y-103038713D01*
X133296406Y-103038331D01*
X133228307Y-103018256D01*
X133181871Y-102964551D01*
X133171843Y-102894266D01*
X133199031Y-102834900D01*
X133199552Y-102834552D01*
X133209387Y-102819834D01*
X133236974Y-102778547D01*
X133243867Y-102768231D01*
X133246406Y-102755470D01*
X133254293Y-102715816D01*
X133255500Y-102709748D01*
X133255500Y-100114373D01*
X133256494Y-100098581D01*
X133259728Y-100072978D01*
X133260171Y-100069474D01*
X133260583Y-100040000D01*
X133256101Y-99994288D01*
X133255500Y-99981994D01*
X133255500Y-99170252D01*
X133243867Y-99111769D01*
X133233842Y-99096765D01*
X133206443Y-99055761D01*
X133199552Y-99045448D01*
X133133231Y-99001133D01*
X133121062Y-98998712D01*
X133121061Y-98998712D01*
X133080816Y-98990707D01*
X133074748Y-98989500D01*
X132267089Y-98989500D01*
X132253919Y-98988810D01*
X132218498Y-98985087D01*
X132218496Y-98985087D01*
X132212369Y-98984443D01*
X132164382Y-98988810D01*
X132162503Y-98988981D01*
X132151084Y-98989500D01*
X131335252Y-98989500D01*
X131329184Y-98990707D01*
X131288939Y-98998712D01*
X131288938Y-98998712D01*
X131276769Y-99001133D01*
X131210448Y-99045448D01*
X131203557Y-99055761D01*
X131176159Y-99096765D01*
X131166133Y-99111769D01*
X131154500Y-99170252D01*
X131154500Y-99973817D01*
X131153715Y-99987862D01*
X131149520Y-100025262D01*
X131154058Y-100079302D01*
X131154500Y-100089846D01*
X131154500Y-102709748D01*
X131155707Y-102715816D01*
X131163595Y-102755470D01*
X131166133Y-102768231D01*
X131173026Y-102778547D01*
X131210448Y-102834552D01*
X131208415Y-102835910D01*
X131234245Y-102883213D01*
X131229180Y-102954028D01*
X131186633Y-103010864D01*
X131120113Y-103035675D01*
X131110989Y-103035996D01*
X130759117Y-103035620D01*
X130691018Y-103015545D01*
X130644583Y-102961840D01*
X130634554Y-102891555D01*
X130660400Y-102835119D01*
X130659552Y-102834552D01*
X130663074Y-102829281D01*
X130693842Y-102783235D01*
X130696974Y-102778547D01*
X130703867Y-102768231D01*
X130706406Y-102755470D01*
X130714293Y-102715816D01*
X130715500Y-102709748D01*
X130715500Y-100114373D01*
X130716494Y-100098581D01*
X130719728Y-100072978D01*
X130720171Y-100069474D01*
X130720583Y-100040000D01*
X130716101Y-99994288D01*
X130715500Y-99981994D01*
X130715500Y-99170252D01*
X130703867Y-99111769D01*
X130693842Y-99096765D01*
X130666443Y-99055761D01*
X130659552Y-99045448D01*
X130593231Y-99001133D01*
X130581062Y-98998712D01*
X130581061Y-98998712D01*
X130540816Y-98990707D01*
X130534748Y-98989500D01*
X129727089Y-98989500D01*
X129713919Y-98988810D01*
X129678498Y-98985087D01*
X129678496Y-98985087D01*
X129672369Y-98984443D01*
X129624382Y-98988810D01*
X129622503Y-98988981D01*
X129611084Y-98989500D01*
X128795252Y-98989500D01*
X128789184Y-98990707D01*
X128748939Y-98998712D01*
X128748938Y-98998712D01*
X128736769Y-99001133D01*
X128670448Y-99045448D01*
X128663557Y-99055761D01*
X128659152Y-99060166D01*
X128596840Y-99094192D01*
X128526025Y-99089127D01*
X128469189Y-99046580D01*
X128452075Y-99015301D01*
X128428324Y-98951946D01*
X128419786Y-98936351D01*
X128343285Y-98834276D01*
X128330724Y-98821715D01*
X128228649Y-98745214D01*
X128213054Y-98736676D01*
X128092606Y-98691522D01*
X128077351Y-98687895D01*
X128026486Y-98682369D01*
X128019672Y-98682000D01*
X127397115Y-98682000D01*
X127381876Y-98686475D01*
X127380671Y-98687865D01*
X127379000Y-98695548D01*
X127379000Y-101312000D01*
X127358998Y-101380121D01*
X127305342Y-101426614D01*
X127253000Y-101438000D01*
X126997000Y-101438000D01*
X126928879Y-101417998D01*
X126882386Y-101364342D01*
X126871000Y-101312000D01*
X126871000Y-98700116D01*
X126866525Y-98684877D01*
X126865135Y-98683672D01*
X126857452Y-98682001D01*
X126230331Y-98682001D01*
X126223510Y-98682371D01*
X126172648Y-98687895D01*
X126157396Y-98691521D01*
X126036946Y-98736676D01*
X126021351Y-98745214D01*
X125919276Y-98821715D01*
X125906715Y-98834276D01*
X125830214Y-98936351D01*
X125821676Y-98951946D01*
X125797925Y-99015301D01*
X125755283Y-99072065D01*
X125688722Y-99096765D01*
X125619373Y-99081557D01*
X125590848Y-99060166D01*
X125586443Y-99055761D01*
X125579552Y-99045448D01*
X125513231Y-99001133D01*
X125501062Y-98998712D01*
X125501061Y-98998712D01*
X125460816Y-98990707D01*
X125454748Y-98989500D01*
X124647089Y-98989500D01*
X124633919Y-98988810D01*
X124598498Y-98985087D01*
X124598496Y-98985087D01*
X124592369Y-98984443D01*
X124544382Y-98988810D01*
X124542503Y-98988981D01*
X124531084Y-98989500D01*
X123715252Y-98989500D01*
X123709184Y-98990707D01*
X123668939Y-98998712D01*
X123668938Y-98998712D01*
X123656769Y-99001133D01*
X123590448Y-99045448D01*
X123583557Y-99055761D01*
X123556159Y-99096765D01*
X123546133Y-99111769D01*
X123534500Y-99170252D01*
X123534500Y-99973817D01*
X123533715Y-99987862D01*
X123529520Y-100025262D01*
X123534058Y-100079302D01*
X123534500Y-100089846D01*
X123534500Y-102709748D01*
X123535707Y-102715816D01*
X123543595Y-102755470D01*
X123546133Y-102768231D01*
X123553025Y-102778546D01*
X123553027Y-102778550D01*
X123588637Y-102831843D01*
X123609852Y-102899595D01*
X123591069Y-102968062D01*
X123538252Y-103015506D01*
X123483737Y-103027845D01*
X123442969Y-103027801D01*
X123146234Y-103027484D01*
X123078135Y-103007409D01*
X123031699Y-102953704D01*
X123021671Y-102883419D01*
X123041604Y-102831481D01*
X123076974Y-102778547D01*
X123083867Y-102768231D01*
X123086406Y-102755470D01*
X123094293Y-102715816D01*
X123095500Y-102709748D01*
X123095500Y-100114373D01*
X123096494Y-100098581D01*
X123099728Y-100072978D01*
X123100171Y-100069474D01*
X123100583Y-100040000D01*
X123096101Y-99994288D01*
X123095500Y-99981994D01*
X123095500Y-99170252D01*
X123083867Y-99111769D01*
X123073842Y-99096765D01*
X123046443Y-99055761D01*
X123039552Y-99045448D01*
X122973231Y-99001133D01*
X122961062Y-98998712D01*
X122961061Y-98998712D01*
X122920816Y-98990707D01*
X122914748Y-98989500D01*
X122107089Y-98989500D01*
X122093919Y-98988810D01*
X122058498Y-98985087D01*
X122058496Y-98985087D01*
X122052369Y-98984443D01*
X122004382Y-98988810D01*
X122002503Y-98988981D01*
X121991084Y-98989500D01*
X121175252Y-98989500D01*
X121169184Y-98990707D01*
X121128939Y-98998712D01*
X121128938Y-98998712D01*
X121116769Y-99001133D01*
X121050448Y-99045448D01*
X121043557Y-99055761D01*
X121016159Y-99096765D01*
X121006133Y-99111769D01*
X120994500Y-99170252D01*
X120994500Y-99973817D01*
X120993715Y-99987862D01*
X120989520Y-100025262D01*
X120994058Y-100079302D01*
X120994500Y-100089846D01*
X120994500Y-102709748D01*
X120995707Y-102715816D01*
X121003595Y-102755470D01*
X121006133Y-102768231D01*
X121013025Y-102778546D01*
X121013027Y-102778550D01*
X121046822Y-102829127D01*
X121068037Y-102896880D01*
X121049254Y-102965347D01*
X120996437Y-103012790D01*
X120941924Y-103025129D01*
X120389964Y-103024539D01*
X120382017Y-103023487D01*
X120369581Y-103023486D01*
X120353559Y-103019191D01*
X120340792Y-103022610D01*
X120337656Y-103022404D01*
X120279557Y-103014749D01*
X120247789Y-103006234D01*
X120194150Y-102984011D01*
X120165670Y-102967565D01*
X120119610Y-102932217D01*
X120096358Y-102908962D01*
X120061014Y-102862898D01*
X120044569Y-102834411D01*
X120022354Y-102780774D01*
X120013842Y-102749005D01*
X120009473Y-102715816D01*
X120006134Y-102690451D01*
X120005953Y-102687681D01*
X120009350Y-102675000D01*
X120005057Y-102658977D01*
X120005057Y-102646567D01*
X120004002Y-102638589D01*
X120003998Y-102634351D01*
X119994190Y-93425000D01*
X125319318Y-93425000D01*
X125339956Y-93581762D01*
X125400464Y-93727841D01*
X125496718Y-93853282D01*
X125622159Y-93949536D01*
X125768238Y-94010044D01*
X125925000Y-94030682D01*
X125933188Y-94029604D01*
X126073574Y-94011122D01*
X126081762Y-94010044D01*
X126227841Y-93949536D01*
X126353282Y-93853282D01*
X126394323Y-93799796D01*
X126451661Y-93757929D01*
X126494286Y-93750500D01*
X148372797Y-93750500D01*
X148440918Y-93770502D01*
X148487411Y-93824158D01*
X148497719Y-93892944D01*
X148495894Y-93906808D01*
X148494816Y-93915000D01*
X148515454Y-94071762D01*
X148575962Y-94217841D01*
X148672216Y-94343282D01*
X148797657Y-94439536D01*
X148943736Y-94500044D01*
X149100498Y-94520682D01*
X149108686Y-94519604D01*
X149249072Y-94501122D01*
X149257260Y-94500044D01*
X149403339Y-94439536D01*
X149528780Y-94343282D01*
X149625034Y-94217841D01*
X149685542Y-94071762D01*
X149706180Y-93915000D01*
X149685542Y-93758238D01*
X149625034Y-93612159D01*
X149528780Y-93486718D01*
X149403339Y-93390464D01*
X149257260Y-93329956D01*
X149100498Y-93309318D01*
X149033655Y-93318118D01*
X148963508Y-93307179D01*
X148928115Y-93282291D01*
X148854609Y-93208785D01*
X148847182Y-93200681D01*
X148830039Y-93180251D01*
X148830040Y-93180251D01*
X148822953Y-93171806D01*
X148813404Y-93166293D01*
X148790313Y-93152961D01*
X148781042Y-93147055D01*
X148759213Y-93131770D01*
X148750182Y-93125446D01*
X148739532Y-93122592D01*
X148736364Y-93121115D01*
X148733088Y-93119923D01*
X148723543Y-93114412D01*
X148689799Y-93108462D01*
X148686440Y-93107870D01*
X148675713Y-93105492D01*
X148639305Y-93095736D01*
X148628320Y-93096697D01*
X148628318Y-93096697D01*
X148601770Y-93099020D01*
X148590788Y-93099500D01*
X126494286Y-93099500D01*
X126426165Y-93079498D01*
X126394323Y-93050204D01*
X126358305Y-93003264D01*
X126353282Y-92996718D01*
X126227841Y-92900464D01*
X126081762Y-92839956D01*
X125925000Y-92819318D01*
X125768238Y-92839956D01*
X125622159Y-92900464D01*
X125496718Y-92996718D01*
X125400464Y-93122159D01*
X125339956Y-93268238D01*
X125319318Y-93425000D01*
X119994190Y-93425000D01*
X119990271Y-89745000D01*
X140599318Y-89745000D01*
X140619956Y-89901762D01*
X140680464Y-90047841D01*
X140685491Y-90054392D01*
X140763034Y-90155448D01*
X140776718Y-90173282D01*
X140782501Y-90177719D01*
X140816312Y-90239635D01*
X140811249Y-90310451D01*
X140793154Y-90343126D01*
X140704105Y-90459177D01*
X140704103Y-90459180D01*
X140699075Y-90465733D01*
X140638567Y-90611812D01*
X140617929Y-90768574D01*
X140638567Y-90925336D01*
X140699075Y-91071415D01*
X140795329Y-91196856D01*
X140920770Y-91293110D01*
X141066849Y-91353618D01*
X141223611Y-91374256D01*
X141231799Y-91373178D01*
X141372185Y-91354696D01*
X141380373Y-91353618D01*
X141526452Y-91293110D01*
X141651893Y-91196856D01*
X141692934Y-91143370D01*
X141750272Y-91101503D01*
X141792897Y-91094074D01*
X142236314Y-91094074D01*
X142247296Y-91094554D01*
X142273844Y-91096877D01*
X142273846Y-91096877D01*
X142284831Y-91097838D01*
X142321239Y-91088082D01*
X142331966Y-91085704D01*
X142335325Y-91085112D01*
X142369069Y-91079162D01*
X142378614Y-91073651D01*
X142381890Y-91072459D01*
X142385058Y-91070982D01*
X142395708Y-91068128D01*
X142426568Y-91046519D01*
X142435839Y-91040613D01*
X142458930Y-91027281D01*
X142468479Y-91021768D01*
X142492709Y-90992891D01*
X142500135Y-90984789D01*
X147497519Y-85987405D01*
X147559831Y-85953379D01*
X147586614Y-85950500D01*
X154220290Y-85950500D01*
X154231272Y-85950980D01*
X154257820Y-85953303D01*
X154257822Y-85953303D01*
X154268807Y-85954264D01*
X154305215Y-85944508D01*
X154315942Y-85942130D01*
X154319301Y-85941538D01*
X154353045Y-85935588D01*
X154362590Y-85930077D01*
X154365866Y-85928885D01*
X154369034Y-85927408D01*
X154379684Y-85924554D01*
X154410544Y-85902945D01*
X154419815Y-85897039D01*
X154442906Y-85883707D01*
X154452455Y-85878194D01*
X154476685Y-85849317D01*
X154484111Y-85841215D01*
X156977921Y-83347405D01*
X157040233Y-83313379D01*
X157067016Y-83310500D01*
X157534723Y-83310500D01*
X157549642Y-83311386D01*
X157582894Y-83315351D01*
X157589029Y-83314879D01*
X157589031Y-83314879D01*
X157641117Y-83310871D01*
X157650784Y-83310500D01*
X158474748Y-83310500D01*
X158480816Y-83309293D01*
X158521061Y-83301288D01*
X158521062Y-83301288D01*
X158533231Y-83298867D01*
X158599552Y-83254552D01*
X158632122Y-83205808D01*
X158636974Y-83198547D01*
X158643867Y-83188231D01*
X158655500Y-83129748D01*
X158655500Y-82334373D01*
X158656494Y-82318581D01*
X158659728Y-82292978D01*
X158660171Y-82289474D01*
X158660583Y-82260000D01*
X158659138Y-82245262D01*
X159089520Y-82245262D01*
X159090036Y-82251405D01*
X159094058Y-82299302D01*
X159094500Y-82309846D01*
X159094500Y-83129748D01*
X159106133Y-83188231D01*
X159113026Y-83198547D01*
X159117878Y-83205808D01*
X159150448Y-83254552D01*
X159216769Y-83298867D01*
X159228938Y-83301288D01*
X159228939Y-83301288D01*
X159269184Y-83309293D01*
X159275252Y-83310500D01*
X160074723Y-83310500D01*
X160089642Y-83311386D01*
X160122894Y-83315351D01*
X160129029Y-83314879D01*
X160129031Y-83314879D01*
X160181117Y-83310871D01*
X160190784Y-83310500D01*
X161014748Y-83310500D01*
X161020816Y-83309293D01*
X161061061Y-83301288D01*
X161061062Y-83301288D01*
X161073231Y-83298867D01*
X161139552Y-83254552D01*
X161172122Y-83205808D01*
X161176974Y-83198547D01*
X161183867Y-83188231D01*
X161195500Y-83129748D01*
X161195500Y-82334373D01*
X161196494Y-82318581D01*
X161199728Y-82292978D01*
X161200171Y-82289474D01*
X161200583Y-82260000D01*
X161199138Y-82245262D01*
X161629520Y-82245262D01*
X161630036Y-82251405D01*
X161634058Y-82299302D01*
X161634500Y-82309846D01*
X161634500Y-83129748D01*
X161646133Y-83188231D01*
X161653026Y-83198547D01*
X161657878Y-83205808D01*
X161690448Y-83254552D01*
X161756769Y-83298867D01*
X161768938Y-83301288D01*
X161768939Y-83301288D01*
X161809184Y-83309293D01*
X161815252Y-83310500D01*
X162614723Y-83310500D01*
X162629642Y-83311386D01*
X162662894Y-83315351D01*
X162669029Y-83314879D01*
X162669031Y-83314879D01*
X162721117Y-83310871D01*
X162730784Y-83310500D01*
X163554748Y-83310500D01*
X163560816Y-83309293D01*
X163601061Y-83301288D01*
X163601062Y-83301288D01*
X163613231Y-83298867D01*
X163679552Y-83254552D01*
X163686443Y-83244239D01*
X163690848Y-83239834D01*
X163753160Y-83205808D01*
X163823975Y-83210873D01*
X163880811Y-83253420D01*
X163897925Y-83284699D01*
X163921676Y-83348054D01*
X163930214Y-83363649D01*
X164006715Y-83465724D01*
X164019276Y-83478285D01*
X164121351Y-83554786D01*
X164136946Y-83563324D01*
X164257394Y-83608478D01*
X164272649Y-83612105D01*
X164323514Y-83617631D01*
X164330328Y-83618000D01*
X164952885Y-83618000D01*
X164968124Y-83613525D01*
X164969329Y-83612135D01*
X164971000Y-83604452D01*
X164971000Y-83599884D01*
X165479000Y-83599884D01*
X165483475Y-83615123D01*
X165484865Y-83616328D01*
X165492548Y-83617999D01*
X166119669Y-83617999D01*
X166126490Y-83617629D01*
X166177352Y-83612105D01*
X166192604Y-83608479D01*
X166313054Y-83563324D01*
X166328649Y-83554786D01*
X166430724Y-83478285D01*
X166443285Y-83465724D01*
X166519786Y-83363649D01*
X166528324Y-83348054D01*
X166552075Y-83284699D01*
X166594717Y-83227935D01*
X166661278Y-83203235D01*
X166730627Y-83218443D01*
X166759152Y-83239834D01*
X166763557Y-83244239D01*
X166770448Y-83254552D01*
X166836769Y-83298867D01*
X166848938Y-83301288D01*
X166848939Y-83301288D01*
X166889184Y-83309293D01*
X166895252Y-83310500D01*
X167694723Y-83310500D01*
X167709642Y-83311386D01*
X167742894Y-83315351D01*
X167749029Y-83314879D01*
X167749031Y-83314879D01*
X167801117Y-83310871D01*
X167810784Y-83310500D01*
X168634748Y-83310500D01*
X168640816Y-83309293D01*
X168681061Y-83301288D01*
X168681062Y-83301288D01*
X168693231Y-83298867D01*
X168759552Y-83254552D01*
X168792122Y-83205808D01*
X168796974Y-83198547D01*
X168803867Y-83188231D01*
X168815500Y-83129748D01*
X168815500Y-82334373D01*
X168816494Y-82318581D01*
X168819728Y-82292978D01*
X168820171Y-82289474D01*
X168820583Y-82260000D01*
X168819138Y-82245262D01*
X169249520Y-82245262D01*
X169250036Y-82251405D01*
X169254058Y-82299302D01*
X169254500Y-82309846D01*
X169254500Y-83129748D01*
X169266133Y-83188231D01*
X169273026Y-83198547D01*
X169277878Y-83205808D01*
X169310448Y-83254552D01*
X169376769Y-83298867D01*
X169388938Y-83301288D01*
X169388939Y-83301288D01*
X169429184Y-83309293D01*
X169435252Y-83310500D01*
X170234723Y-83310500D01*
X170249642Y-83311386D01*
X170282894Y-83315351D01*
X170289029Y-83314879D01*
X170289031Y-83314879D01*
X170341117Y-83310871D01*
X170350784Y-83310500D01*
X171174748Y-83310500D01*
X171180816Y-83309293D01*
X171221061Y-83301288D01*
X171221062Y-83301288D01*
X171233231Y-83298867D01*
X171299552Y-83254552D01*
X171332122Y-83205808D01*
X171336974Y-83198547D01*
X171343867Y-83188231D01*
X171355500Y-83129748D01*
X171355500Y-82334373D01*
X171356494Y-82318581D01*
X171359728Y-82292978D01*
X171360171Y-82289474D01*
X171360583Y-82260000D01*
X171356101Y-82214288D01*
X171355500Y-82201994D01*
X171355500Y-79590252D01*
X171343867Y-79531769D01*
X171333842Y-79516765D01*
X171306443Y-79475761D01*
X171299552Y-79465448D01*
X171233231Y-79421133D01*
X171221062Y-79418712D01*
X171221061Y-79418712D01*
X171180816Y-79410707D01*
X171174748Y-79409500D01*
X169435252Y-79409500D01*
X169429184Y-79410707D01*
X169388939Y-79418712D01*
X169388938Y-79418712D01*
X169376769Y-79421133D01*
X169310448Y-79465448D01*
X169303557Y-79475761D01*
X169276159Y-79516765D01*
X169266133Y-79531769D01*
X169254500Y-79590252D01*
X169254500Y-82193817D01*
X169253715Y-82207862D01*
X169249520Y-82245262D01*
X168819138Y-82245262D01*
X168816101Y-82214288D01*
X168815500Y-82201994D01*
X168815500Y-79590252D01*
X168803867Y-79531769D01*
X168793842Y-79516765D01*
X168766443Y-79475761D01*
X168759552Y-79465448D01*
X168693231Y-79421133D01*
X168681062Y-79418712D01*
X168681061Y-79418712D01*
X168640816Y-79410707D01*
X168634748Y-79409500D01*
X166895252Y-79409500D01*
X166889184Y-79410707D01*
X166848939Y-79418712D01*
X166848938Y-79418712D01*
X166836769Y-79421133D01*
X166770448Y-79465448D01*
X166763557Y-79475761D01*
X166759152Y-79480166D01*
X166696840Y-79514192D01*
X166626025Y-79509127D01*
X166569189Y-79466580D01*
X166552075Y-79435301D01*
X166528324Y-79371946D01*
X166519786Y-79356351D01*
X166443285Y-79254276D01*
X166430724Y-79241715D01*
X166328649Y-79165214D01*
X166313054Y-79156676D01*
X166192606Y-79111522D01*
X166177351Y-79107895D01*
X166126486Y-79102369D01*
X166119672Y-79102000D01*
X165497115Y-79102000D01*
X165481876Y-79106475D01*
X165480671Y-79107865D01*
X165479000Y-79115548D01*
X165479000Y-83599884D01*
X164971000Y-83599884D01*
X164971000Y-79120116D01*
X164966525Y-79104877D01*
X164965135Y-79103672D01*
X164957452Y-79102001D01*
X164330331Y-79102001D01*
X164323510Y-79102371D01*
X164272648Y-79107895D01*
X164257396Y-79111521D01*
X164136946Y-79156676D01*
X164121351Y-79165214D01*
X164019276Y-79241715D01*
X164006715Y-79254276D01*
X163930214Y-79356351D01*
X163921676Y-79371946D01*
X163897925Y-79435301D01*
X163855283Y-79492065D01*
X163788722Y-79516765D01*
X163719373Y-79501557D01*
X163690848Y-79480166D01*
X163686443Y-79475761D01*
X163679552Y-79465448D01*
X163613231Y-79421133D01*
X163601062Y-79418712D01*
X163601061Y-79418712D01*
X163560816Y-79410707D01*
X163554748Y-79409500D01*
X161815252Y-79409500D01*
X161809184Y-79410707D01*
X161768939Y-79418712D01*
X161768938Y-79418712D01*
X161756769Y-79421133D01*
X161690448Y-79465448D01*
X161683557Y-79475761D01*
X161656159Y-79516765D01*
X161646133Y-79531769D01*
X161634500Y-79590252D01*
X161634500Y-82193817D01*
X161633715Y-82207862D01*
X161629520Y-82245262D01*
X161199138Y-82245262D01*
X161196101Y-82214288D01*
X161195500Y-82201994D01*
X161195500Y-79590252D01*
X161183867Y-79531769D01*
X161173842Y-79516765D01*
X161146443Y-79475761D01*
X161139552Y-79465448D01*
X161073231Y-79421133D01*
X161061062Y-79418712D01*
X161061061Y-79418712D01*
X161020816Y-79410707D01*
X161014748Y-79409500D01*
X159275252Y-79409500D01*
X159269184Y-79410707D01*
X159228939Y-79418712D01*
X159228938Y-79418712D01*
X159216769Y-79421133D01*
X159150448Y-79465448D01*
X159143557Y-79475761D01*
X159116159Y-79516765D01*
X159106133Y-79531769D01*
X159094500Y-79590252D01*
X159094500Y-82193817D01*
X159093715Y-82207862D01*
X159089520Y-82245262D01*
X158659138Y-82245262D01*
X158656101Y-82214288D01*
X158655500Y-82201994D01*
X158655500Y-79590252D01*
X158643867Y-79531769D01*
X158633842Y-79516765D01*
X158606443Y-79475761D01*
X158599552Y-79465448D01*
X158533231Y-79421133D01*
X158521062Y-79418712D01*
X158521061Y-79418712D01*
X158480816Y-79410707D01*
X158474748Y-79409500D01*
X156735252Y-79409500D01*
X156729184Y-79410707D01*
X156688939Y-79418712D01*
X156688938Y-79418712D01*
X156676769Y-79421133D01*
X156610448Y-79465448D01*
X156603557Y-79475761D01*
X156576159Y-79516765D01*
X156566133Y-79531769D01*
X156554500Y-79590252D01*
X156554500Y-82193817D01*
X156553715Y-82207862D01*
X156549520Y-82245262D01*
X156550036Y-82251405D01*
X156554058Y-82299302D01*
X156554500Y-82309846D01*
X156554500Y-82797984D01*
X156534498Y-82866105D01*
X156517595Y-82887079D01*
X156330595Y-83074079D01*
X156268283Y-83108105D01*
X156197468Y-83103040D01*
X156140632Y-83060493D01*
X156115821Y-82993973D01*
X156115500Y-82984984D01*
X156115500Y-82334373D01*
X156116494Y-82318581D01*
X156119728Y-82292978D01*
X156120171Y-82289474D01*
X156120583Y-82260000D01*
X156116101Y-82214288D01*
X156115500Y-82201994D01*
X156115500Y-79590252D01*
X156103867Y-79531769D01*
X156093842Y-79516765D01*
X156066443Y-79475761D01*
X156059552Y-79465448D01*
X155993231Y-79421133D01*
X155981062Y-79418712D01*
X155981061Y-79418712D01*
X155940816Y-79410707D01*
X155934748Y-79409500D01*
X154195252Y-79409500D01*
X154189184Y-79410707D01*
X154148939Y-79418712D01*
X154148938Y-79418712D01*
X154136769Y-79421133D01*
X154070448Y-79465448D01*
X154063557Y-79475761D01*
X154036159Y-79516765D01*
X154026133Y-79531769D01*
X154014500Y-79590252D01*
X154014500Y-82193817D01*
X154013715Y-82207862D01*
X154009520Y-82245262D01*
X154010036Y-82251405D01*
X154014058Y-82299302D01*
X154014500Y-82309846D01*
X154014500Y-82797984D01*
X153994498Y-82866105D01*
X153977595Y-82887079D01*
X153790595Y-83074079D01*
X153728283Y-83108105D01*
X153657468Y-83103040D01*
X153600632Y-83060493D01*
X153575821Y-82993973D01*
X153575500Y-82984984D01*
X153575500Y-79590252D01*
X153563867Y-79531769D01*
X153553842Y-79516765D01*
X153526443Y-79475761D01*
X153519552Y-79465448D01*
X153453231Y-79421133D01*
X153441062Y-79418712D01*
X153441061Y-79418712D01*
X153400816Y-79410707D01*
X153394748Y-79409500D01*
X151655252Y-79409500D01*
X151649184Y-79410707D01*
X151608939Y-79418712D01*
X151608938Y-79418712D01*
X151596769Y-79421133D01*
X151530448Y-79465448D01*
X151523557Y-79475761D01*
X151496159Y-79516765D01*
X151486133Y-79531769D01*
X151474500Y-79590252D01*
X151474500Y-83129748D01*
X151486133Y-83188231D01*
X151493026Y-83198547D01*
X151497878Y-83205808D01*
X151530448Y-83254552D01*
X151596769Y-83298867D01*
X151608938Y-83301288D01*
X151608939Y-83301288D01*
X151649184Y-83309293D01*
X151655252Y-83310500D01*
X153249984Y-83310500D01*
X153318105Y-83330502D01*
X153364598Y-83384158D01*
X153374702Y-83454432D01*
X153345208Y-83519012D01*
X153339079Y-83525595D01*
X152052079Y-84812595D01*
X151989767Y-84846621D01*
X151962984Y-84849500D01*
X147232915Y-84849500D01*
X147221934Y-84849021D01*
X147195372Y-84846697D01*
X147195370Y-84846697D01*
X147184395Y-84845737D01*
X147147985Y-84855492D01*
X147137278Y-84857866D01*
X147100157Y-84864412D01*
X147090614Y-84869921D01*
X147087342Y-84871112D01*
X147084169Y-84872592D01*
X147073518Y-84875446D01*
X147042658Y-84897055D01*
X147033387Y-84902961D01*
X147010296Y-84916293D01*
X147000747Y-84921806D01*
X146993661Y-84930251D01*
X146976517Y-84950682D01*
X146969091Y-84958785D01*
X142023367Y-89904509D01*
X141961055Y-89938535D01*
X141890240Y-89933470D01*
X141845177Y-89904509D01*
X141840076Y-89899408D01*
X141806050Y-89837096D01*
X141804249Y-89793868D01*
X141809604Y-89753191D01*
X141809604Y-89753188D01*
X141810682Y-89745000D01*
X141790044Y-89588238D01*
X141729536Y-89442159D01*
X141633282Y-89316718D01*
X141507841Y-89220464D01*
X141361762Y-89159956D01*
X141205000Y-89139318D01*
X141048238Y-89159956D01*
X140902159Y-89220464D01*
X140776718Y-89316718D01*
X140680464Y-89442159D01*
X140619956Y-89588238D01*
X140599318Y-89745000D01*
X119990271Y-89745000D01*
X119986223Y-85944509D01*
X119982283Y-82245262D01*
X120989520Y-82245262D01*
X120990036Y-82251405D01*
X120994058Y-82299302D01*
X120994500Y-82309846D01*
X120994500Y-83129748D01*
X121006133Y-83188231D01*
X121013026Y-83198547D01*
X121017878Y-83205808D01*
X121050448Y-83254552D01*
X121116769Y-83298867D01*
X121128938Y-83301288D01*
X121128939Y-83301288D01*
X121169184Y-83309293D01*
X121175252Y-83310500D01*
X121974723Y-83310500D01*
X121989642Y-83311386D01*
X122022894Y-83315351D01*
X122029029Y-83314879D01*
X122029031Y-83314879D01*
X122081117Y-83310871D01*
X122090784Y-83310500D01*
X122914748Y-83310500D01*
X122920816Y-83309293D01*
X122961061Y-83301288D01*
X122961062Y-83301288D01*
X122973231Y-83298867D01*
X123039552Y-83254552D01*
X123072122Y-83205808D01*
X123076974Y-83198547D01*
X123083867Y-83188231D01*
X123095500Y-83129748D01*
X123095500Y-82334373D01*
X123096494Y-82318581D01*
X123099728Y-82292978D01*
X123100171Y-82289474D01*
X123100583Y-82260000D01*
X123099138Y-82245262D01*
X123529520Y-82245262D01*
X123530036Y-82251405D01*
X123534058Y-82299302D01*
X123534500Y-82309846D01*
X123534500Y-83129748D01*
X123546133Y-83188231D01*
X123553026Y-83198547D01*
X123557878Y-83205808D01*
X123590448Y-83254552D01*
X123656769Y-83298867D01*
X123668938Y-83301288D01*
X123668939Y-83301288D01*
X123709184Y-83309293D01*
X123715252Y-83310500D01*
X124514723Y-83310500D01*
X124529642Y-83311386D01*
X124562894Y-83315351D01*
X124569029Y-83314879D01*
X124569031Y-83314879D01*
X124621117Y-83310871D01*
X124630784Y-83310500D01*
X125454748Y-83310500D01*
X125460816Y-83309293D01*
X125501061Y-83301288D01*
X125501062Y-83301288D01*
X125513231Y-83298867D01*
X125579552Y-83254552D01*
X125586443Y-83244239D01*
X125590848Y-83239834D01*
X125653160Y-83205808D01*
X125723975Y-83210873D01*
X125780811Y-83253420D01*
X125797925Y-83284699D01*
X125821676Y-83348054D01*
X125830214Y-83363649D01*
X125906715Y-83465724D01*
X125919276Y-83478285D01*
X126021351Y-83554786D01*
X126036946Y-83563324D01*
X126157394Y-83608478D01*
X126172649Y-83612105D01*
X126223514Y-83617631D01*
X126230328Y-83618000D01*
X126852885Y-83618000D01*
X126868124Y-83613525D01*
X126869329Y-83612135D01*
X126871000Y-83604452D01*
X126871000Y-83599884D01*
X127379000Y-83599884D01*
X127383475Y-83615123D01*
X127384865Y-83616328D01*
X127392548Y-83617999D01*
X128019669Y-83617999D01*
X128026490Y-83617629D01*
X128077352Y-83612105D01*
X128092604Y-83608479D01*
X128213054Y-83563324D01*
X128228649Y-83554786D01*
X128330724Y-83478285D01*
X128343285Y-83465724D01*
X128419786Y-83363649D01*
X128428324Y-83348054D01*
X128452075Y-83284699D01*
X128494717Y-83227935D01*
X128561278Y-83203235D01*
X128630627Y-83218443D01*
X128659152Y-83239834D01*
X128663557Y-83244239D01*
X128670448Y-83254552D01*
X128736769Y-83298867D01*
X128748938Y-83301288D01*
X128748939Y-83301288D01*
X128789184Y-83309293D01*
X128795252Y-83310500D01*
X129594723Y-83310500D01*
X129609642Y-83311386D01*
X129642894Y-83315351D01*
X129649029Y-83314879D01*
X129649031Y-83314879D01*
X129701117Y-83310871D01*
X129710784Y-83310500D01*
X130534748Y-83310500D01*
X130540816Y-83309293D01*
X130581061Y-83301288D01*
X130581062Y-83301288D01*
X130593231Y-83298867D01*
X130659552Y-83254552D01*
X130692122Y-83205808D01*
X130696974Y-83198547D01*
X130703867Y-83188231D01*
X130715500Y-83129748D01*
X130715500Y-82334373D01*
X130716494Y-82318581D01*
X130719728Y-82292978D01*
X130720171Y-82289474D01*
X130720583Y-82260000D01*
X130719138Y-82245262D01*
X131149520Y-82245262D01*
X131150036Y-82251405D01*
X131154058Y-82299302D01*
X131154500Y-82309846D01*
X131154500Y-83129748D01*
X131166133Y-83188231D01*
X131173026Y-83198547D01*
X131177878Y-83205808D01*
X131210448Y-83254552D01*
X131276769Y-83298867D01*
X131288938Y-83301288D01*
X131288939Y-83301288D01*
X131329184Y-83309293D01*
X131335252Y-83310500D01*
X132134723Y-83310500D01*
X132149642Y-83311386D01*
X132182894Y-83315351D01*
X132189029Y-83314879D01*
X132189031Y-83314879D01*
X132241117Y-83310871D01*
X132250784Y-83310500D01*
X133074748Y-83310500D01*
X133080816Y-83309293D01*
X133121061Y-83301288D01*
X133121062Y-83301288D01*
X133133231Y-83298867D01*
X133199552Y-83254552D01*
X133232122Y-83205808D01*
X133236974Y-83198547D01*
X133243867Y-83188231D01*
X133255500Y-83129748D01*
X133255500Y-82334373D01*
X133256494Y-82318581D01*
X133259728Y-82292978D01*
X133260171Y-82289474D01*
X133260583Y-82260000D01*
X133259138Y-82245262D01*
X133689520Y-82245262D01*
X133690036Y-82251405D01*
X133694058Y-82299302D01*
X133694500Y-82309846D01*
X133694500Y-83129748D01*
X133706133Y-83188231D01*
X133713026Y-83198547D01*
X133717878Y-83205808D01*
X133750448Y-83254552D01*
X133816769Y-83298867D01*
X133828938Y-83301288D01*
X133828939Y-83301288D01*
X133869184Y-83309293D01*
X133875252Y-83310500D01*
X134674723Y-83310500D01*
X134689642Y-83311386D01*
X134722894Y-83315351D01*
X134729029Y-83314879D01*
X134729031Y-83314879D01*
X134781117Y-83310871D01*
X134790784Y-83310500D01*
X135614748Y-83310500D01*
X135620816Y-83309293D01*
X135661061Y-83301288D01*
X135661062Y-83301288D01*
X135673231Y-83298867D01*
X135739552Y-83254552D01*
X135772122Y-83205808D01*
X135776974Y-83198547D01*
X135783867Y-83188231D01*
X135795500Y-83129748D01*
X135795500Y-82334373D01*
X135796494Y-82318581D01*
X135799728Y-82292978D01*
X135800171Y-82289474D01*
X135800583Y-82260000D01*
X135799138Y-82245262D01*
X136229520Y-82245262D01*
X136230036Y-82251405D01*
X136234058Y-82299302D01*
X136234500Y-82309846D01*
X136234500Y-83129748D01*
X136246133Y-83188231D01*
X136253026Y-83198547D01*
X136257878Y-83205808D01*
X136290448Y-83254552D01*
X136356769Y-83298867D01*
X136368938Y-83301288D01*
X136368939Y-83301288D01*
X136409184Y-83309293D01*
X136415252Y-83310500D01*
X137214723Y-83310500D01*
X137229642Y-83311386D01*
X137262894Y-83315351D01*
X137269029Y-83314879D01*
X137269031Y-83314879D01*
X137321117Y-83310871D01*
X137330784Y-83310500D01*
X138154748Y-83310500D01*
X138160816Y-83309293D01*
X138201061Y-83301288D01*
X138201062Y-83301288D01*
X138213231Y-83298867D01*
X138279552Y-83254552D01*
X138286443Y-83244239D01*
X138290848Y-83239834D01*
X138353160Y-83205808D01*
X138423975Y-83210873D01*
X138480811Y-83253420D01*
X138497925Y-83284699D01*
X138521676Y-83348054D01*
X138530214Y-83363649D01*
X138606715Y-83465724D01*
X138619276Y-83478285D01*
X138721351Y-83554786D01*
X138736946Y-83563324D01*
X138857394Y-83608478D01*
X138872649Y-83612105D01*
X138923514Y-83617631D01*
X138930328Y-83618000D01*
X139552885Y-83618000D01*
X139568124Y-83613525D01*
X139569329Y-83612135D01*
X139571000Y-83604452D01*
X139571000Y-83599884D01*
X140079000Y-83599884D01*
X140083475Y-83615123D01*
X140084865Y-83616328D01*
X140092548Y-83617999D01*
X140719669Y-83617999D01*
X140726490Y-83617629D01*
X140777352Y-83612105D01*
X140792604Y-83608479D01*
X140913054Y-83563324D01*
X140928649Y-83554786D01*
X141030724Y-83478285D01*
X141043285Y-83465724D01*
X141119786Y-83363649D01*
X141128324Y-83348054D01*
X141152075Y-83284699D01*
X141194717Y-83227935D01*
X141261278Y-83203235D01*
X141330627Y-83218443D01*
X141359152Y-83239834D01*
X141363557Y-83244239D01*
X141370448Y-83254552D01*
X141436769Y-83298867D01*
X141448938Y-83301288D01*
X141448939Y-83301288D01*
X141489184Y-83309293D01*
X141495252Y-83310500D01*
X142294723Y-83310500D01*
X142309642Y-83311386D01*
X142342894Y-83315351D01*
X142349029Y-83314879D01*
X142349031Y-83314879D01*
X142401117Y-83310871D01*
X142410784Y-83310500D01*
X143234748Y-83310500D01*
X143240816Y-83309293D01*
X143281061Y-83301288D01*
X143281062Y-83301288D01*
X143293231Y-83298867D01*
X143359552Y-83254552D01*
X143392122Y-83205808D01*
X143396974Y-83198547D01*
X143403867Y-83188231D01*
X143415500Y-83129748D01*
X143415500Y-82334373D01*
X143416494Y-82318581D01*
X143419728Y-82292978D01*
X143420171Y-82289474D01*
X143420583Y-82260000D01*
X143419138Y-82245262D01*
X143849520Y-82245262D01*
X143850036Y-82251405D01*
X143854058Y-82299302D01*
X143854500Y-82309846D01*
X143854500Y-83129748D01*
X143866133Y-83188231D01*
X143873026Y-83198547D01*
X143877878Y-83205808D01*
X143910448Y-83254552D01*
X143976769Y-83298867D01*
X143988938Y-83301288D01*
X143988939Y-83301288D01*
X144029184Y-83309293D01*
X144035252Y-83310500D01*
X144834723Y-83310500D01*
X144849642Y-83311386D01*
X144882894Y-83315351D01*
X144889029Y-83314879D01*
X144889031Y-83314879D01*
X144941117Y-83310871D01*
X144950784Y-83310500D01*
X145774748Y-83310500D01*
X145780816Y-83309293D01*
X145821061Y-83301288D01*
X145821062Y-83301288D01*
X145833231Y-83298867D01*
X145899552Y-83254552D01*
X145932122Y-83205808D01*
X145936974Y-83198547D01*
X145943867Y-83188231D01*
X145955500Y-83129748D01*
X145955500Y-82334373D01*
X145956494Y-82318581D01*
X145959728Y-82292978D01*
X145960171Y-82289474D01*
X145960583Y-82260000D01*
X145959138Y-82245262D01*
X146389520Y-82245262D01*
X146390036Y-82251405D01*
X146394058Y-82299302D01*
X146394500Y-82309846D01*
X146394500Y-83129748D01*
X146406133Y-83188231D01*
X146413026Y-83198547D01*
X146417878Y-83205808D01*
X146450448Y-83254552D01*
X146516769Y-83298867D01*
X146528938Y-83301288D01*
X146528939Y-83301288D01*
X146569184Y-83309293D01*
X146575252Y-83310500D01*
X147374723Y-83310500D01*
X147389642Y-83311386D01*
X147422894Y-83315351D01*
X147429029Y-83314879D01*
X147429031Y-83314879D01*
X147481117Y-83310871D01*
X147490784Y-83310500D01*
X148314748Y-83310500D01*
X148320816Y-83309293D01*
X148361061Y-83301288D01*
X148361062Y-83301288D01*
X148373231Y-83298867D01*
X148439552Y-83254552D01*
X148472122Y-83205808D01*
X148476974Y-83198547D01*
X148483867Y-83188231D01*
X148495500Y-83129748D01*
X148495500Y-82334373D01*
X148496494Y-82318581D01*
X148499728Y-82292978D01*
X148500171Y-82289474D01*
X148500583Y-82260000D01*
X148499138Y-82245262D01*
X148929520Y-82245262D01*
X148930036Y-82251405D01*
X148934058Y-82299302D01*
X148934500Y-82309846D01*
X148934500Y-83129748D01*
X148946133Y-83188231D01*
X148953026Y-83198547D01*
X148957878Y-83205808D01*
X148990448Y-83254552D01*
X149056769Y-83298867D01*
X149068938Y-83301288D01*
X149068939Y-83301288D01*
X149109184Y-83309293D01*
X149115252Y-83310500D01*
X149914723Y-83310500D01*
X149929642Y-83311386D01*
X149962894Y-83315351D01*
X149969029Y-83314879D01*
X149969031Y-83314879D01*
X150021117Y-83310871D01*
X150030784Y-83310500D01*
X150854748Y-83310500D01*
X150860816Y-83309293D01*
X150901061Y-83301288D01*
X150901062Y-83301288D01*
X150913231Y-83298867D01*
X150979552Y-83254552D01*
X151012122Y-83205808D01*
X151016974Y-83198547D01*
X151023867Y-83188231D01*
X151035500Y-83129748D01*
X151035500Y-82334373D01*
X151036494Y-82318581D01*
X151039728Y-82292978D01*
X151040171Y-82289474D01*
X151040583Y-82260000D01*
X151036101Y-82214288D01*
X151035500Y-82201994D01*
X151035500Y-79590252D01*
X151023867Y-79531769D01*
X151013842Y-79516765D01*
X150986443Y-79475761D01*
X150979552Y-79465448D01*
X150913231Y-79421133D01*
X150901062Y-79418712D01*
X150901061Y-79418712D01*
X150860816Y-79410707D01*
X150854748Y-79409500D01*
X149115252Y-79409500D01*
X149109184Y-79410707D01*
X149068939Y-79418712D01*
X149068938Y-79418712D01*
X149056769Y-79421133D01*
X148990448Y-79465448D01*
X148983557Y-79475761D01*
X148956159Y-79516765D01*
X148946133Y-79531769D01*
X148934500Y-79590252D01*
X148934500Y-82193817D01*
X148933715Y-82207862D01*
X148929520Y-82245262D01*
X148499138Y-82245262D01*
X148496101Y-82214288D01*
X148495500Y-82201994D01*
X148495500Y-79590252D01*
X148483867Y-79531769D01*
X148473842Y-79516765D01*
X148446443Y-79475761D01*
X148439552Y-79465448D01*
X148373231Y-79421133D01*
X148361062Y-79418712D01*
X148361061Y-79418712D01*
X148320816Y-79410707D01*
X148314748Y-79409500D01*
X146575252Y-79409500D01*
X146569184Y-79410707D01*
X146528939Y-79418712D01*
X146528938Y-79418712D01*
X146516769Y-79421133D01*
X146450448Y-79465448D01*
X146443557Y-79475761D01*
X146416159Y-79516765D01*
X146406133Y-79531769D01*
X146394500Y-79590252D01*
X146394500Y-82193817D01*
X146393715Y-82207862D01*
X146389520Y-82245262D01*
X145959138Y-82245262D01*
X145956101Y-82214288D01*
X145955500Y-82201994D01*
X145955500Y-79590252D01*
X145943867Y-79531769D01*
X145933842Y-79516765D01*
X145906443Y-79475761D01*
X145899552Y-79465448D01*
X145833231Y-79421133D01*
X145821062Y-79418712D01*
X145821061Y-79418712D01*
X145780816Y-79410707D01*
X145774748Y-79409500D01*
X144035252Y-79409500D01*
X144029184Y-79410707D01*
X143988939Y-79418712D01*
X143988938Y-79418712D01*
X143976769Y-79421133D01*
X143910448Y-79465448D01*
X143903557Y-79475761D01*
X143876159Y-79516765D01*
X143866133Y-79531769D01*
X143854500Y-79590252D01*
X143854500Y-82193817D01*
X143853715Y-82207862D01*
X143849520Y-82245262D01*
X143419138Y-82245262D01*
X143416101Y-82214288D01*
X143415500Y-82201994D01*
X143415500Y-79590252D01*
X143403867Y-79531769D01*
X143393842Y-79516765D01*
X143366443Y-79475761D01*
X143359552Y-79465448D01*
X143293231Y-79421133D01*
X143281062Y-79418712D01*
X143281061Y-79418712D01*
X143240816Y-79410707D01*
X143234748Y-79409500D01*
X141495252Y-79409500D01*
X141489184Y-79410707D01*
X141448939Y-79418712D01*
X141448938Y-79418712D01*
X141436769Y-79421133D01*
X141370448Y-79465448D01*
X141363557Y-79475761D01*
X141359152Y-79480166D01*
X141296840Y-79514192D01*
X141226025Y-79509127D01*
X141169189Y-79466580D01*
X141152075Y-79435301D01*
X141128324Y-79371946D01*
X141119786Y-79356351D01*
X141043285Y-79254276D01*
X141030724Y-79241715D01*
X140928649Y-79165214D01*
X140913054Y-79156676D01*
X140792606Y-79111522D01*
X140777351Y-79107895D01*
X140726486Y-79102369D01*
X140719672Y-79102000D01*
X140097115Y-79102000D01*
X140081876Y-79106475D01*
X140080671Y-79107865D01*
X140079000Y-79115548D01*
X140079000Y-83599884D01*
X139571000Y-83599884D01*
X139571000Y-79120116D01*
X139566525Y-79104877D01*
X139565135Y-79103672D01*
X139557452Y-79102001D01*
X138930331Y-79102001D01*
X138923510Y-79102371D01*
X138872648Y-79107895D01*
X138857396Y-79111521D01*
X138736946Y-79156676D01*
X138721351Y-79165214D01*
X138619276Y-79241715D01*
X138606715Y-79254276D01*
X138530214Y-79356351D01*
X138521676Y-79371946D01*
X138497925Y-79435301D01*
X138455283Y-79492065D01*
X138388722Y-79516765D01*
X138319373Y-79501557D01*
X138290848Y-79480166D01*
X138286443Y-79475761D01*
X138279552Y-79465448D01*
X138213231Y-79421133D01*
X138201062Y-79418712D01*
X138201061Y-79418712D01*
X138160816Y-79410707D01*
X138154748Y-79409500D01*
X136415252Y-79409500D01*
X136409184Y-79410707D01*
X136368939Y-79418712D01*
X136368938Y-79418712D01*
X136356769Y-79421133D01*
X136290448Y-79465448D01*
X136283557Y-79475761D01*
X136256159Y-79516765D01*
X136246133Y-79531769D01*
X136234500Y-79590252D01*
X136234500Y-82193817D01*
X136233715Y-82207862D01*
X136229520Y-82245262D01*
X135799138Y-82245262D01*
X135796101Y-82214288D01*
X135795500Y-82201994D01*
X135795500Y-79590252D01*
X135783867Y-79531769D01*
X135773842Y-79516765D01*
X135746443Y-79475761D01*
X135739552Y-79465448D01*
X135673231Y-79421133D01*
X135661062Y-79418712D01*
X135661061Y-79418712D01*
X135620816Y-79410707D01*
X135614748Y-79409500D01*
X133875252Y-79409500D01*
X133869184Y-79410707D01*
X133828939Y-79418712D01*
X133828938Y-79418712D01*
X133816769Y-79421133D01*
X133750448Y-79465448D01*
X133743557Y-79475761D01*
X133716159Y-79516765D01*
X133706133Y-79531769D01*
X133694500Y-79590252D01*
X133694500Y-82193817D01*
X133693715Y-82207862D01*
X133689520Y-82245262D01*
X133259138Y-82245262D01*
X133256101Y-82214288D01*
X133255500Y-82201994D01*
X133255500Y-79590252D01*
X133243867Y-79531769D01*
X133233842Y-79516765D01*
X133206443Y-79475761D01*
X133199552Y-79465448D01*
X133133231Y-79421133D01*
X133121062Y-79418712D01*
X133121061Y-79418712D01*
X133080816Y-79410707D01*
X133074748Y-79409500D01*
X131335252Y-79409500D01*
X131329184Y-79410707D01*
X131288939Y-79418712D01*
X131288938Y-79418712D01*
X131276769Y-79421133D01*
X131210448Y-79465448D01*
X131203557Y-79475761D01*
X131176159Y-79516765D01*
X131166133Y-79531769D01*
X131154500Y-79590252D01*
X131154500Y-82193817D01*
X131153715Y-82207862D01*
X131149520Y-82245262D01*
X130719138Y-82245262D01*
X130716101Y-82214288D01*
X130715500Y-82201994D01*
X130715500Y-79590252D01*
X130703867Y-79531769D01*
X130693842Y-79516765D01*
X130666443Y-79475761D01*
X130659552Y-79465448D01*
X130593231Y-79421133D01*
X130581062Y-79418712D01*
X130581061Y-79418712D01*
X130540816Y-79410707D01*
X130534748Y-79409500D01*
X128795252Y-79409500D01*
X128789184Y-79410707D01*
X128748939Y-79418712D01*
X128748938Y-79418712D01*
X128736769Y-79421133D01*
X128670448Y-79465448D01*
X128663557Y-79475761D01*
X128659152Y-79480166D01*
X128596840Y-79514192D01*
X128526025Y-79509127D01*
X128469189Y-79466580D01*
X128452075Y-79435301D01*
X128428324Y-79371946D01*
X128419786Y-79356351D01*
X128343285Y-79254276D01*
X128330724Y-79241715D01*
X128228649Y-79165214D01*
X128213054Y-79156676D01*
X128092606Y-79111522D01*
X128077351Y-79107895D01*
X128026486Y-79102369D01*
X128019672Y-79102000D01*
X127397115Y-79102000D01*
X127381876Y-79106475D01*
X127380671Y-79107865D01*
X127379000Y-79115548D01*
X127379000Y-83599884D01*
X126871000Y-83599884D01*
X126871000Y-79120116D01*
X126866525Y-79104877D01*
X126865135Y-79103672D01*
X126857452Y-79102001D01*
X126230331Y-79102001D01*
X126223510Y-79102371D01*
X126172648Y-79107895D01*
X126157396Y-79111521D01*
X126036946Y-79156676D01*
X126021351Y-79165214D01*
X125919276Y-79241715D01*
X125906715Y-79254276D01*
X125830214Y-79356351D01*
X125821676Y-79371946D01*
X125797925Y-79435301D01*
X125755283Y-79492065D01*
X125688722Y-79516765D01*
X125619373Y-79501557D01*
X125590848Y-79480166D01*
X125586443Y-79475761D01*
X125579552Y-79465448D01*
X125513231Y-79421133D01*
X125501062Y-79418712D01*
X125501061Y-79418712D01*
X125460816Y-79410707D01*
X125454748Y-79409500D01*
X123715252Y-79409500D01*
X123709184Y-79410707D01*
X123668939Y-79418712D01*
X123668938Y-79418712D01*
X123656769Y-79421133D01*
X123590448Y-79465448D01*
X123583557Y-79475761D01*
X123556159Y-79516765D01*
X123546133Y-79531769D01*
X123534500Y-79590252D01*
X123534500Y-82193817D01*
X123533715Y-82207862D01*
X123529520Y-82245262D01*
X123099138Y-82245262D01*
X123096101Y-82214288D01*
X123095500Y-82201994D01*
X123095500Y-79590252D01*
X123083867Y-79531769D01*
X123073842Y-79516765D01*
X123046443Y-79475761D01*
X123039552Y-79465448D01*
X122973231Y-79421133D01*
X122961062Y-79418712D01*
X122961061Y-79418712D01*
X122920816Y-79410707D01*
X122914748Y-79409500D01*
X121175252Y-79409500D01*
X121169184Y-79410707D01*
X121128939Y-79418712D01*
X121128938Y-79418712D01*
X121116769Y-79421133D01*
X121050448Y-79465448D01*
X121043557Y-79475761D01*
X121016159Y-79516765D01*
X121006133Y-79531769D01*
X120994500Y-79590252D01*
X120994500Y-82193817D01*
X120993715Y-82207862D01*
X120989520Y-82245262D01*
X119982283Y-82245262D01*
X119979079Y-79236421D01*
X119980050Y-79229021D01*
X119980053Y-79216051D01*
X119984349Y-79200031D01*
X119980931Y-79187261D01*
X119981137Y-79184123D01*
X119981798Y-79179114D01*
X119988797Y-79126020D01*
X119997312Y-79094257D01*
X120019540Y-79040612D01*
X120035986Y-79012134D01*
X120071339Y-78966069D01*
X120094591Y-78942819D01*
X120140657Y-78907471D01*
X120169138Y-78891027D01*
X120198562Y-78878838D01*
X120222787Y-78868803D01*
X120254547Y-78860291D01*
X120269782Y-78858284D01*
X120312964Y-78852594D01*
X120315849Y-78852405D01*
X120328559Y-78855809D01*
X120344584Y-78851513D01*
X120357174Y-78851512D01*
X120364961Y-78850485D01*
X148133994Y-78839052D01*
X172385033Y-78829068D01*
X172392626Y-78830066D01*
G37*
%TD.AperFunction*%
%TA.AperFunction,Conductor*%
G36*
X155009642Y-83311386D02*
G01*
X155042894Y-83315351D01*
X155049029Y-83314879D01*
X155049031Y-83314879D01*
X155101117Y-83310871D01*
X155110784Y-83310500D01*
X155789984Y-83310500D01*
X155858105Y-83330502D01*
X155904598Y-83384158D01*
X155914702Y-83454432D01*
X155885208Y-83519012D01*
X155879079Y-83525595D01*
X154142079Y-85262595D01*
X154079767Y-85296621D01*
X154052984Y-85299500D01*
X152790016Y-85299500D01*
X152721895Y-85279498D01*
X152675402Y-85225842D01*
X152665298Y-85155568D01*
X152694792Y-85090988D01*
X152700921Y-85084405D01*
X154437921Y-83347405D01*
X154500233Y-83313379D01*
X154527016Y-83310500D01*
X154994723Y-83310500D01*
X155009642Y-83311386D01*
G37*
%TD.AperFunction*%
%TD*%
M02*
