%TF.GenerationSoftware,KiCad,Pcbnew,(6.0.11-0)*%
%TF.CreationDate,2023-07-31T17:49:31-05:00*%
%TF.ProjectId,PicoDVI-N64,5069636f-4456-4492-9d4e-36342e6b6963,rev?*%
%TF.SameCoordinates,Original*%
%TF.FileFunction,Drillmap*%
%TF.FilePolarity,Positive*%
%FSLAX45Y45*%
G04 Gerber Fmt 4.5, Leading zero omitted, Abs format (unit mm)*
G04 Created by KiCad (PCBNEW (6.0.11-0)) date 2023-07-31 17:49:31*
%MOMM*%
%LPD*%
G01*
G04 APERTURE LIST*
%ADD10C,0.050000*%
%ADD11C,0.200000*%
%ADD12C,0.030000*%
%ADD13C,0.040000*%
%ADD14C,0.102000*%
%ADD15C,0.130000*%
G04 APERTURE END LIST*
D10*
X14707500Y-10200500D02*
X12056351Y-10202647D01*
X17369500Y-11050500D02*
X17369646Y-11609646D01*
X14549500Y-10909499D02*
G75*
G03*
X14397500Y-11069000I-530J-151671D01*
G01*
X12056999Y-8026568D02*
G75*
G03*
X12037000Y-8044062I-1799J-18122D01*
G01*
X17143000Y-10202145D02*
G75*
G03*
X17157000Y-10189500I-2920J17305D01*
G01*
X17007852Y-10859648D02*
G75*
G03*
X17057852Y-10909648I50008J8D01*
G01*
X17056854Y-10201994D02*
G75*
G03*
X17006854Y-10252000I6J-50006D01*
G01*
X17220000Y-10910000D02*
X17057852Y-10909648D01*
X12042000Y-10189000D02*
G75*
G03*
X12056351Y-10202647I14330J700D01*
G01*
X17369500Y-11050500D02*
G75*
G03*
X17220000Y-10910000I-144758J-4242D01*
G01*
X12042000Y-10189000D02*
X12037000Y-8044062D01*
X17143000Y-10202146D02*
X17056854Y-10202000D01*
X14397500Y-11069000D02*
X14397851Y-11609648D01*
X17160502Y-8041500D02*
G75*
G03*
X17142646Y-8024854I-17862J-1260D01*
G01*
X14397852Y-11609648D02*
G75*
G03*
X14447851Y-11659648I50008J8D01*
G01*
X17006854Y-10252000D02*
X17007852Y-10859648D01*
X12057000Y-8026562D02*
X17142646Y-8024854D01*
X17319646Y-11659646D02*
G75*
G03*
X17369646Y-11609646I-6J50006D01*
G01*
X17319646Y-11659646D02*
X14447851Y-11659648D01*
X17157000Y-10189500D02*
X17160500Y-8041500D01*
X14707146Y-10909646D02*
X14549500Y-10909500D01*
X14757500Y-10250500D02*
G75*
G03*
X14707500Y-10200500I-50000J0D01*
G01*
X14707146Y-10909646D02*
G75*
G03*
X14757146Y-10859646I-6J50006D01*
G01*
X14757146Y-10859646D02*
X14757500Y-10250500D01*
D11*
D12*
X12600000Y-8707500D02*
X12630000Y-8737500D01*
X12630000Y-8707500D02*
X12600000Y-8737500D01*
X12762500Y-9775000D02*
X12792500Y-9805000D01*
X12792500Y-9775000D02*
X12762500Y-9805000D01*
X12902500Y-8710000D02*
X12932500Y-8740000D01*
X12932500Y-8710000D02*
X12902500Y-8740000D01*
X13377500Y-8715000D02*
X13407500Y-8745000D01*
X13407500Y-8715000D02*
X13377500Y-8745000D01*
X13460000Y-9027500D02*
X13490000Y-9057500D01*
X13490000Y-9027500D02*
X13460000Y-9057500D01*
X13615000Y-9242500D02*
X13645000Y-9272500D01*
X13645000Y-9242500D02*
X13615000Y-9272500D01*
X13730000Y-8712500D02*
X13760000Y-8742500D01*
X13760000Y-8712500D02*
X13730000Y-8742500D01*
X14012500Y-9515000D02*
X14042500Y-9545000D01*
X14042500Y-9515000D02*
X14012500Y-9545000D01*
X14322500Y-8575000D02*
X14352500Y-8605000D01*
X14352500Y-8575000D02*
X14322500Y-8605000D01*
X14375000Y-8650000D02*
X14405000Y-8680000D01*
X14405000Y-8650000D02*
X14375000Y-8680000D01*
X14490000Y-11557500D02*
X14520000Y-11587500D01*
X14520000Y-11557500D02*
X14490000Y-11587500D01*
X14532500Y-11043000D02*
X14562500Y-11073000D01*
X14562500Y-11043000D02*
X14532500Y-11073000D01*
X14560000Y-9579016D02*
X14590000Y-9609016D01*
X14590000Y-9579016D02*
X14560000Y-9609016D01*
X14587500Y-8490000D02*
X14617500Y-8520000D01*
X14617500Y-8490000D02*
X14587500Y-8520000D01*
X14856500Y-9554500D02*
X14886500Y-9584500D01*
X14886500Y-9554500D02*
X14856500Y-9584500D01*
X14857500Y-9770000D02*
X14887500Y-9800000D01*
X14887500Y-9770000D02*
X14857500Y-9800000D01*
X14892500Y-8355000D02*
X14922500Y-8385000D01*
X14922500Y-8355000D02*
X14892500Y-8385000D01*
X15090000Y-8357500D02*
X15120000Y-8387500D01*
X15120000Y-8357500D02*
X15090000Y-8387500D01*
X15207000Y-8733500D02*
X15237000Y-8763500D01*
X15237000Y-8733500D02*
X15207000Y-8763500D01*
X15357500Y-10737500D02*
X15387500Y-10767500D01*
X15387500Y-10737500D02*
X15357500Y-10767500D01*
X15392500Y-8810000D02*
X15422500Y-8840000D01*
X15422500Y-8810000D02*
X15392500Y-8840000D01*
X15472500Y-8357500D02*
X15502500Y-8387500D01*
X15502500Y-8357500D02*
X15472500Y-8387500D01*
X15543522Y-10951011D02*
X15573522Y-10981011D01*
X15573522Y-10951011D02*
X15543522Y-10981011D01*
X15630000Y-9520000D02*
X15660000Y-9550000D01*
X15660000Y-9520000D02*
X15630000Y-9550000D01*
X15702500Y-9107500D02*
X15732500Y-9137500D01*
X15732500Y-9107500D02*
X15702500Y-9137500D01*
X15715000Y-10592500D02*
X15745000Y-10622500D01*
X15745000Y-10592500D02*
X15715000Y-10622500D01*
X15722500Y-10312500D02*
X15752500Y-10342500D01*
X15752500Y-10312500D02*
X15722500Y-10342500D01*
X15845000Y-10951250D02*
X15875000Y-10981250D01*
X15875000Y-10951250D02*
X15845000Y-10981250D01*
X15912500Y-11550000D02*
X15942500Y-11580000D01*
X15942500Y-11550000D02*
X15912500Y-11580000D01*
X15960000Y-9472500D02*
X15990000Y-9502500D01*
X15990000Y-9472500D02*
X15960000Y-9502500D01*
X15977500Y-10303950D02*
X16007500Y-10333950D01*
X16007500Y-10303950D02*
X15977500Y-10333950D01*
X15992500Y-9694950D02*
X16022500Y-9724950D01*
X16022500Y-9694950D02*
X15992500Y-9724950D01*
X15995000Y-10951250D02*
X16025000Y-10981250D01*
X16025000Y-10951250D02*
X15995000Y-10981250D01*
X16032500Y-8375000D02*
X16062500Y-8405000D01*
X16062500Y-8375000D02*
X16032500Y-8405000D01*
X16077500Y-10412500D02*
X16107500Y-10442500D01*
X16107500Y-10412500D02*
X16077500Y-10442500D01*
X16125000Y-10292500D02*
X16155000Y-10322500D01*
X16155000Y-10292500D02*
X16125000Y-10322500D01*
X16145000Y-10951250D02*
X16175000Y-10981250D01*
X16175000Y-10951250D02*
X16145000Y-10981250D01*
X16222500Y-8370000D02*
X16252500Y-8400000D01*
X16252500Y-8370000D02*
X16222500Y-8400000D01*
X16295000Y-10951250D02*
X16325000Y-10981250D01*
X16325000Y-10951250D02*
X16295000Y-10981250D01*
X16442500Y-10315000D02*
X16472500Y-10345000D01*
X16472500Y-10315000D02*
X16442500Y-10345000D01*
X16570000Y-10445000D02*
X16600000Y-10475000D01*
X16600000Y-10445000D02*
X16570000Y-10475000D01*
X16725000Y-11090000D02*
X16755000Y-11120000D01*
X16755000Y-11090000D02*
X16725000Y-11120000D01*
X16727500Y-8370000D02*
X16757500Y-8400000D01*
X16757500Y-8370000D02*
X16727500Y-8400000D01*
X16875500Y-10252500D02*
X16905500Y-10282500D01*
X16905500Y-10252500D02*
X16875500Y-10282500D01*
X16980000Y-8360000D02*
X17010000Y-8390000D01*
X17010000Y-8360000D02*
X16980000Y-8390000D01*
X17194500Y-11056500D02*
X17224500Y-11086500D01*
X17224500Y-11056500D02*
X17194500Y-11086500D01*
X17254000Y-11555500D02*
X17284000Y-11585500D01*
X17284000Y-11555500D02*
X17254000Y-11585500D01*
D13*
X12612500Y-9342500D02*
G75*
G03*
X12612500Y-9342500I-20000J0D01*
G01*
X14140500Y-8974500D02*
G75*
G03*
X14140500Y-8974500I-20000J0D01*
G01*
X14142361Y-9076857D02*
G75*
G03*
X14142361Y-9076857I-20000J0D01*
G01*
X14930050Y-9391500D02*
G75*
G03*
X14930050Y-9391500I-20000J0D01*
G01*
X14998782Y-9658718D02*
G75*
G03*
X14998782Y-9658718I-20000J0D01*
G01*
X15007500Y-9770000D02*
G75*
G03*
X15007500Y-9770000I-20000J0D01*
G01*
X15012500Y-10375000D02*
G75*
G03*
X15012500Y-10375000I-20000J0D01*
G01*
X15665000Y-11002500D02*
G75*
G03*
X15665000Y-11002500I-20000J0D01*
G01*
X15715377Y-10499623D02*
G75*
G03*
X15715377Y-10499623I-20000J0D01*
G01*
X15789623Y-10425377D02*
G75*
G03*
X15789623Y-10425377I-20000J0D01*
G01*
X15832732Y-9719950D02*
G75*
G03*
X15832732Y-9719950I-20000J0D01*
G01*
X15938131Y-9720155D02*
G75*
G03*
X15938131Y-9720155I-20000J0D01*
G01*
X15942877Y-10487123D02*
G75*
G03*
X15942877Y-10487123I-20000J0D01*
G01*
X16017123Y-10412877D02*
G75*
G03*
X16017123Y-10412877I-20000J0D01*
G01*
X16201288Y-10397662D02*
G75*
G03*
X16201288Y-10397662I-20000J0D01*
G01*
X16201555Y-9615109D02*
G75*
G03*
X16201555Y-9615109I-20000J0D01*
G01*
X16205000Y-9715000D02*
G75*
G03*
X16205000Y-9715000I-20000J0D01*
G01*
X16280000Y-10495000D02*
G75*
G03*
X16280000Y-10495000I-20000J0D01*
G01*
X16437877Y-10425377D02*
G75*
G03*
X16437877Y-10425377I-20000J0D01*
G01*
X16520000Y-10507500D02*
G75*
G03*
X16520000Y-10507500I-20000J0D01*
G01*
D14*
X12204500Y-8175000D02*
X12204500Y-8277000D01*
X12153500Y-8226000D02*
X12255500Y-8226000D01*
X12204500Y-9953000D02*
X12204500Y-10055000D01*
X12153500Y-10004000D02*
X12255500Y-10004000D01*
X12458500Y-8175000D02*
X12458500Y-8277000D01*
X12407500Y-8226000D02*
X12509500Y-8226000D01*
X12458500Y-9953000D02*
X12458500Y-10055000D01*
X12407500Y-10004000D02*
X12509500Y-10004000D01*
X12712500Y-8175000D02*
X12712500Y-8277000D01*
X12661500Y-8226000D02*
X12763500Y-8226000D01*
X12712500Y-9953000D02*
X12712500Y-10055000D01*
X12661500Y-10004000D02*
X12763500Y-10004000D01*
X12966500Y-8175000D02*
X12966500Y-8277000D01*
X12915500Y-8226000D02*
X13017500Y-8226000D01*
X12966500Y-9953000D02*
X12966500Y-10055000D01*
X12915500Y-10004000D02*
X13017500Y-10004000D01*
X13220500Y-8175000D02*
X13220500Y-8277000D01*
X13169500Y-8226000D02*
X13271500Y-8226000D01*
X13220500Y-9953000D02*
X13220500Y-10055000D01*
X13169500Y-10004000D02*
X13271500Y-10004000D01*
X13474500Y-8175000D02*
X13474500Y-8277000D01*
X13423500Y-8226000D02*
X13525500Y-8226000D01*
X13474500Y-9953000D02*
X13474500Y-10055000D01*
X13423500Y-10004000D02*
X13525500Y-10004000D01*
X13728500Y-8175000D02*
X13728500Y-8277000D01*
X13677500Y-8226000D02*
X13779500Y-8226000D01*
X13728500Y-9953000D02*
X13728500Y-10055000D01*
X13677500Y-10004000D02*
X13779500Y-10004000D01*
X13982500Y-8175000D02*
X13982500Y-8277000D01*
X13931500Y-8226000D02*
X14033500Y-8226000D01*
X13982500Y-9953000D02*
X13982500Y-10055000D01*
X13931500Y-10004000D02*
X14033500Y-10004000D01*
X14236500Y-8175000D02*
X14236500Y-8277000D01*
X14185500Y-8226000D02*
X14287500Y-8226000D01*
X14236500Y-9953000D02*
X14236500Y-10055000D01*
X14185500Y-10004000D02*
X14287500Y-10004000D01*
X14490500Y-8175000D02*
X14490500Y-8277000D01*
X14439500Y-8226000D02*
X14541500Y-8226000D01*
X14490500Y-9953000D02*
X14490500Y-10055000D01*
X14439500Y-10004000D02*
X14541500Y-10004000D01*
X14744500Y-8175000D02*
X14744500Y-8277000D01*
X14693500Y-8226000D02*
X14795500Y-8226000D01*
X14745000Y-9956500D02*
X14745000Y-10058500D01*
X14694000Y-10007500D02*
X14796000Y-10007500D01*
X14998500Y-8175000D02*
X14998500Y-8277000D01*
X14947500Y-8226000D02*
X15049500Y-8226000D01*
X14998500Y-9953000D02*
X14998500Y-10055000D01*
X14947500Y-10004000D02*
X15049500Y-10004000D01*
X15252500Y-8175000D02*
X15252500Y-8277000D01*
X15201500Y-8226000D02*
X15303500Y-8226000D01*
X15506500Y-8175000D02*
X15506500Y-8277000D01*
X15455500Y-8226000D02*
X15557500Y-8226000D01*
X15760500Y-8175000D02*
X15760500Y-8277000D01*
X15709500Y-8226000D02*
X15811500Y-8226000D01*
X16014500Y-8175000D02*
X16014500Y-8277000D01*
X15963500Y-8226000D02*
X16065500Y-8226000D01*
X16268500Y-8175000D02*
X16268500Y-8277000D01*
X16217500Y-8226000D02*
X16319500Y-8226000D01*
X16522500Y-8175000D02*
X16522500Y-8277000D01*
X16471500Y-8226000D02*
X16573500Y-8226000D01*
X16776500Y-8175000D02*
X16776500Y-8277000D01*
X16725500Y-8226000D02*
X16827500Y-8226000D01*
X17030500Y-8175000D02*
X17030500Y-8277000D01*
X16979500Y-8226000D02*
X17081500Y-8226000D01*
D15*
X15143462Y-11447212D02*
X15143462Y-11355288D01*
X15051538Y-11355288D01*
X15051538Y-11447212D01*
X15143462Y-11447212D01*
X15203462Y-10957212D02*
X15203462Y-10865288D01*
X15111538Y-10865288D01*
X15111538Y-10957212D01*
X15203462Y-10957212D01*
X16653462Y-10957212D02*
X16653462Y-10865288D01*
X16561538Y-10865288D01*
X16561538Y-10957212D01*
X16653462Y-10957212D01*
X16713462Y-11447212D02*
X16713462Y-11355288D01*
X16621538Y-11355288D01*
X16621538Y-11447212D01*
X16713462Y-11447212D01*
D11*
X12292119Y-11972624D02*
X12292119Y-11772624D01*
X12339738Y-11772624D01*
X12368309Y-11782148D01*
X12387357Y-11801195D01*
X12396881Y-11820243D01*
X12406405Y-11858338D01*
X12406405Y-11886910D01*
X12396881Y-11925005D01*
X12387357Y-11944052D01*
X12368309Y-11963100D01*
X12339738Y-11972624D01*
X12292119Y-11972624D01*
X12492119Y-11972624D02*
X12492119Y-11839291D01*
X12492119Y-11877386D02*
X12501643Y-11858338D01*
X12511167Y-11848814D01*
X12530214Y-11839291D01*
X12549262Y-11839291D01*
X12615928Y-11972624D02*
X12615928Y-11839291D01*
X12615928Y-11772624D02*
X12606405Y-11782148D01*
X12615928Y-11791672D01*
X12625452Y-11782148D01*
X12615928Y-11772624D01*
X12615928Y-11791672D01*
X12739738Y-11972624D02*
X12720690Y-11963100D01*
X12711167Y-11944052D01*
X12711167Y-11772624D01*
X12844500Y-11972624D02*
X12825452Y-11963100D01*
X12815928Y-11944052D01*
X12815928Y-11772624D01*
X13073071Y-11972624D02*
X13073071Y-11772624D01*
X13139738Y-11915481D01*
X13206405Y-11772624D01*
X13206405Y-11972624D01*
X13387357Y-11972624D02*
X13387357Y-11867862D01*
X13377833Y-11848814D01*
X13358786Y-11839291D01*
X13320690Y-11839291D01*
X13301643Y-11848814D01*
X13387357Y-11963100D02*
X13368309Y-11972624D01*
X13320690Y-11972624D01*
X13301643Y-11963100D01*
X13292119Y-11944052D01*
X13292119Y-11925005D01*
X13301643Y-11905957D01*
X13320690Y-11896433D01*
X13368309Y-11896433D01*
X13387357Y-11886910D01*
X13482595Y-11839291D02*
X13482595Y-12039291D01*
X13482595Y-11848814D02*
X13501643Y-11839291D01*
X13539738Y-11839291D01*
X13558786Y-11848814D01*
X13568309Y-11858338D01*
X13577833Y-11877386D01*
X13577833Y-11934529D01*
X13568309Y-11953576D01*
X13558786Y-11963100D01*
X13539738Y-11972624D01*
X13501643Y-11972624D01*
X13482595Y-11963100D01*
X13663548Y-11953576D02*
X13673071Y-11963100D01*
X13663548Y-11972624D01*
X13654024Y-11963100D01*
X13663548Y-11953576D01*
X13663548Y-11972624D01*
X13663548Y-11848814D02*
X13673071Y-11858338D01*
X13663548Y-11867862D01*
X13654024Y-11858338D01*
X13663548Y-11848814D01*
X13663548Y-11867862D01*
D12*
X12004500Y-12287148D02*
X12034500Y-12317148D01*
X12034500Y-12287148D02*
X12004500Y-12317148D01*
D11*
X12330214Y-12192624D02*
X12349262Y-12192624D01*
X12368309Y-12202148D01*
X12377833Y-12211672D01*
X12387357Y-12230719D01*
X12396881Y-12268814D01*
X12396881Y-12316433D01*
X12387357Y-12354529D01*
X12377833Y-12373576D01*
X12368309Y-12383100D01*
X12349262Y-12392624D01*
X12330214Y-12392624D01*
X12311167Y-12383100D01*
X12301643Y-12373576D01*
X12292119Y-12354529D01*
X12282595Y-12316433D01*
X12282595Y-12268814D01*
X12292119Y-12230719D01*
X12301643Y-12211672D01*
X12311167Y-12202148D01*
X12330214Y-12192624D01*
X12482595Y-12373576D02*
X12492119Y-12383100D01*
X12482595Y-12392624D01*
X12473071Y-12383100D01*
X12482595Y-12373576D01*
X12482595Y-12392624D01*
X12558786Y-12192624D02*
X12682595Y-12192624D01*
X12615928Y-12268814D01*
X12644500Y-12268814D01*
X12663548Y-12278338D01*
X12673071Y-12287862D01*
X12682595Y-12306910D01*
X12682595Y-12354529D01*
X12673071Y-12373576D01*
X12663548Y-12383100D01*
X12644500Y-12392624D01*
X12587357Y-12392624D01*
X12568309Y-12383100D01*
X12558786Y-12373576D01*
X12806405Y-12192624D02*
X12825452Y-12192624D01*
X12844500Y-12202148D01*
X12854024Y-12211672D01*
X12863548Y-12230719D01*
X12873071Y-12268814D01*
X12873071Y-12316433D01*
X12863548Y-12354529D01*
X12854024Y-12373576D01*
X12844500Y-12383100D01*
X12825452Y-12392624D01*
X12806405Y-12392624D01*
X12787357Y-12383100D01*
X12777833Y-12373576D01*
X12768309Y-12354529D01*
X12758786Y-12316433D01*
X12758786Y-12268814D01*
X12768309Y-12230719D01*
X12777833Y-12211672D01*
X12787357Y-12202148D01*
X12806405Y-12192624D01*
X12996881Y-12192624D02*
X13015928Y-12192624D01*
X13034976Y-12202148D01*
X13044500Y-12211672D01*
X13054024Y-12230719D01*
X13063548Y-12268814D01*
X13063548Y-12316433D01*
X13054024Y-12354529D01*
X13044500Y-12373576D01*
X13034976Y-12383100D01*
X13015928Y-12392624D01*
X12996881Y-12392624D01*
X12977833Y-12383100D01*
X12968309Y-12373576D01*
X12958786Y-12354529D01*
X12949262Y-12316433D01*
X12949262Y-12268814D01*
X12958786Y-12230719D01*
X12968309Y-12211672D01*
X12977833Y-12202148D01*
X12996881Y-12192624D01*
X13149262Y-12392624D02*
X13149262Y-12259291D01*
X13149262Y-12278338D02*
X13158786Y-12268814D01*
X13177833Y-12259291D01*
X13206405Y-12259291D01*
X13225452Y-12268814D01*
X13234976Y-12287862D01*
X13234976Y-12392624D01*
X13234976Y-12287862D02*
X13244500Y-12268814D01*
X13263548Y-12259291D01*
X13292119Y-12259291D01*
X13311167Y-12268814D01*
X13320690Y-12287862D01*
X13320690Y-12392624D01*
X13415928Y-12392624D02*
X13415928Y-12259291D01*
X13415928Y-12278338D02*
X13425452Y-12268814D01*
X13444500Y-12259291D01*
X13473071Y-12259291D01*
X13492119Y-12268814D01*
X13501643Y-12287862D01*
X13501643Y-12392624D01*
X13501643Y-12287862D02*
X13511167Y-12268814D01*
X13530214Y-12259291D01*
X13558786Y-12259291D01*
X13577833Y-12268814D01*
X13587357Y-12287862D01*
X13587357Y-12392624D01*
X13977833Y-12183100D02*
X13806405Y-12440243D01*
X14234976Y-12192624D02*
X14254024Y-12192624D01*
X14273071Y-12202148D01*
X14282595Y-12211672D01*
X14292119Y-12230719D01*
X14301643Y-12268814D01*
X14301643Y-12316433D01*
X14292119Y-12354529D01*
X14282595Y-12373576D01*
X14273071Y-12383100D01*
X14254024Y-12392624D01*
X14234976Y-12392624D01*
X14215928Y-12383100D01*
X14206405Y-12373576D01*
X14196881Y-12354529D01*
X14187357Y-12316433D01*
X14187357Y-12268814D01*
X14196881Y-12230719D01*
X14206405Y-12211672D01*
X14215928Y-12202148D01*
X14234976Y-12192624D01*
X14387357Y-12373576D02*
X14396881Y-12383100D01*
X14387357Y-12392624D01*
X14377833Y-12383100D01*
X14387357Y-12373576D01*
X14387357Y-12392624D01*
X14520690Y-12192624D02*
X14539738Y-12192624D01*
X14558786Y-12202148D01*
X14568309Y-12211672D01*
X14577833Y-12230719D01*
X14587357Y-12268814D01*
X14587357Y-12316433D01*
X14577833Y-12354529D01*
X14568309Y-12373576D01*
X14558786Y-12383100D01*
X14539738Y-12392624D01*
X14520690Y-12392624D01*
X14501643Y-12383100D01*
X14492119Y-12373576D01*
X14482595Y-12354529D01*
X14473071Y-12316433D01*
X14473071Y-12268814D01*
X14482595Y-12230719D01*
X14492119Y-12211672D01*
X14501643Y-12202148D01*
X14520690Y-12192624D01*
X14777833Y-12392624D02*
X14663548Y-12392624D01*
X14720690Y-12392624D02*
X14720690Y-12192624D01*
X14701643Y-12221195D01*
X14682595Y-12240243D01*
X14663548Y-12249767D01*
X14968309Y-12392624D02*
X14854024Y-12392624D01*
X14911167Y-12392624D02*
X14911167Y-12192624D01*
X14892119Y-12221195D01*
X14873071Y-12240243D01*
X14854024Y-12249767D01*
X15082595Y-12278338D02*
X15063548Y-12268814D01*
X15054024Y-12259291D01*
X15044500Y-12240243D01*
X15044500Y-12230719D01*
X15054024Y-12211672D01*
X15063548Y-12202148D01*
X15082595Y-12192624D01*
X15120690Y-12192624D01*
X15139738Y-12202148D01*
X15149262Y-12211672D01*
X15158786Y-12230719D01*
X15158786Y-12240243D01*
X15149262Y-12259291D01*
X15139738Y-12268814D01*
X15120690Y-12278338D01*
X15082595Y-12278338D01*
X15063548Y-12287862D01*
X15054024Y-12297386D01*
X15044500Y-12316433D01*
X15044500Y-12354529D01*
X15054024Y-12373576D01*
X15063548Y-12383100D01*
X15082595Y-12392624D01*
X15120690Y-12392624D01*
X15139738Y-12383100D01*
X15149262Y-12373576D01*
X15158786Y-12354529D01*
X15158786Y-12316433D01*
X15149262Y-12297386D01*
X15139738Y-12287862D01*
X15120690Y-12278338D01*
X15234976Y-12192624D02*
X15234976Y-12230719D01*
X15311167Y-12192624D02*
X15311167Y-12230719D01*
X15606405Y-12468814D02*
X15596881Y-12459291D01*
X15577833Y-12430719D01*
X15568309Y-12411672D01*
X15558786Y-12383100D01*
X15549262Y-12335481D01*
X15549262Y-12297386D01*
X15558786Y-12249767D01*
X15568309Y-12221195D01*
X15577833Y-12202148D01*
X15596881Y-12173576D01*
X15606405Y-12164052D01*
X15768309Y-12259291D02*
X15768309Y-12392624D01*
X15720690Y-12183100D02*
X15673071Y-12325957D01*
X15796881Y-12325957D01*
X15854024Y-12192624D02*
X15987357Y-12192624D01*
X15901643Y-12392624D01*
X16215928Y-12392624D02*
X16215928Y-12192624D01*
X16301643Y-12392624D02*
X16301643Y-12287862D01*
X16292119Y-12268814D01*
X16273071Y-12259291D01*
X16244500Y-12259291D01*
X16225452Y-12268814D01*
X16215928Y-12278338D01*
X16425452Y-12392624D02*
X16406405Y-12383100D01*
X16396881Y-12373576D01*
X16387357Y-12354529D01*
X16387357Y-12297386D01*
X16396881Y-12278338D01*
X16406405Y-12268814D01*
X16425452Y-12259291D01*
X16454024Y-12259291D01*
X16473071Y-12268814D01*
X16482595Y-12278338D01*
X16492119Y-12297386D01*
X16492119Y-12354529D01*
X16482595Y-12373576D01*
X16473071Y-12383100D01*
X16454024Y-12392624D01*
X16425452Y-12392624D01*
X16606405Y-12392624D02*
X16587357Y-12383100D01*
X16577833Y-12364052D01*
X16577833Y-12192624D01*
X16758786Y-12383100D02*
X16739738Y-12392624D01*
X16701643Y-12392624D01*
X16682595Y-12383100D01*
X16673071Y-12364052D01*
X16673071Y-12287862D01*
X16682595Y-12268814D01*
X16701643Y-12259291D01*
X16739738Y-12259291D01*
X16758786Y-12268814D01*
X16768309Y-12287862D01*
X16768309Y-12306910D01*
X16673071Y-12325957D01*
X16844500Y-12383100D02*
X16863548Y-12392624D01*
X16901643Y-12392624D01*
X16920690Y-12383100D01*
X16930214Y-12364052D01*
X16930214Y-12354529D01*
X16920690Y-12335481D01*
X16901643Y-12325957D01*
X16873071Y-12325957D01*
X16854024Y-12316433D01*
X16844500Y-12297386D01*
X16844500Y-12287862D01*
X16854024Y-12268814D01*
X16873071Y-12259291D01*
X16901643Y-12259291D01*
X16920690Y-12268814D01*
X16996881Y-12468814D02*
X17006405Y-12459291D01*
X17025452Y-12430719D01*
X17034976Y-12411672D01*
X17044500Y-12383100D01*
X17054024Y-12335481D01*
X17054024Y-12297386D01*
X17044500Y-12249767D01*
X17034976Y-12221195D01*
X17025452Y-12202148D01*
X17006405Y-12173576D01*
X16996881Y-12164052D01*
D13*
X12034500Y-12566148D02*
G75*
G03*
X12034500Y-12566148I-20000J0D01*
G01*
D11*
X12330214Y-12456624D02*
X12349262Y-12456624D01*
X12368309Y-12466148D01*
X12377833Y-12475672D01*
X12387357Y-12494719D01*
X12396881Y-12532814D01*
X12396881Y-12580433D01*
X12387357Y-12618529D01*
X12377833Y-12637576D01*
X12368309Y-12647100D01*
X12349262Y-12656624D01*
X12330214Y-12656624D01*
X12311167Y-12647100D01*
X12301643Y-12637576D01*
X12292119Y-12618529D01*
X12282595Y-12580433D01*
X12282595Y-12532814D01*
X12292119Y-12494719D01*
X12301643Y-12475672D01*
X12311167Y-12466148D01*
X12330214Y-12456624D01*
X12482595Y-12637576D02*
X12492119Y-12647100D01*
X12482595Y-12656624D01*
X12473071Y-12647100D01*
X12482595Y-12637576D01*
X12482595Y-12656624D01*
X12663548Y-12523291D02*
X12663548Y-12656624D01*
X12615928Y-12447100D02*
X12568309Y-12589957D01*
X12692119Y-12589957D01*
X12806405Y-12456624D02*
X12825452Y-12456624D01*
X12844500Y-12466148D01*
X12854024Y-12475672D01*
X12863548Y-12494719D01*
X12873071Y-12532814D01*
X12873071Y-12580433D01*
X12863548Y-12618529D01*
X12854024Y-12637576D01*
X12844500Y-12647100D01*
X12825452Y-12656624D01*
X12806405Y-12656624D01*
X12787357Y-12647100D01*
X12777833Y-12637576D01*
X12768309Y-12618529D01*
X12758786Y-12580433D01*
X12758786Y-12532814D01*
X12768309Y-12494719D01*
X12777833Y-12475672D01*
X12787357Y-12466148D01*
X12806405Y-12456624D01*
X12996881Y-12456624D02*
X13015928Y-12456624D01*
X13034976Y-12466148D01*
X13044500Y-12475672D01*
X13054024Y-12494719D01*
X13063548Y-12532814D01*
X13063548Y-12580433D01*
X13054024Y-12618529D01*
X13044500Y-12637576D01*
X13034976Y-12647100D01*
X13015928Y-12656624D01*
X12996881Y-12656624D01*
X12977833Y-12647100D01*
X12968309Y-12637576D01*
X12958786Y-12618529D01*
X12949262Y-12580433D01*
X12949262Y-12532814D01*
X12958786Y-12494719D01*
X12968309Y-12475672D01*
X12977833Y-12466148D01*
X12996881Y-12456624D01*
X13149262Y-12656624D02*
X13149262Y-12523291D01*
X13149262Y-12542338D02*
X13158786Y-12532814D01*
X13177833Y-12523291D01*
X13206405Y-12523291D01*
X13225452Y-12532814D01*
X13234976Y-12551862D01*
X13234976Y-12656624D01*
X13234976Y-12551862D02*
X13244500Y-12532814D01*
X13263548Y-12523291D01*
X13292119Y-12523291D01*
X13311167Y-12532814D01*
X13320690Y-12551862D01*
X13320690Y-12656624D01*
X13415928Y-12656624D02*
X13415928Y-12523291D01*
X13415928Y-12542338D02*
X13425452Y-12532814D01*
X13444500Y-12523291D01*
X13473071Y-12523291D01*
X13492119Y-12532814D01*
X13501643Y-12551862D01*
X13501643Y-12656624D01*
X13501643Y-12551862D02*
X13511167Y-12532814D01*
X13530214Y-12523291D01*
X13558786Y-12523291D01*
X13577833Y-12532814D01*
X13587357Y-12551862D01*
X13587357Y-12656624D01*
X13977833Y-12447100D02*
X13806405Y-12704243D01*
X14234976Y-12456624D02*
X14254024Y-12456624D01*
X14273071Y-12466148D01*
X14282595Y-12475672D01*
X14292119Y-12494719D01*
X14301643Y-12532814D01*
X14301643Y-12580433D01*
X14292119Y-12618529D01*
X14282595Y-12637576D01*
X14273071Y-12647100D01*
X14254024Y-12656624D01*
X14234976Y-12656624D01*
X14215928Y-12647100D01*
X14206405Y-12637576D01*
X14196881Y-12618529D01*
X14187357Y-12580433D01*
X14187357Y-12532814D01*
X14196881Y-12494719D01*
X14206405Y-12475672D01*
X14215928Y-12466148D01*
X14234976Y-12456624D01*
X14387357Y-12637576D02*
X14396881Y-12647100D01*
X14387357Y-12656624D01*
X14377833Y-12647100D01*
X14387357Y-12637576D01*
X14387357Y-12656624D01*
X14520690Y-12456624D02*
X14539738Y-12456624D01*
X14558786Y-12466148D01*
X14568309Y-12475672D01*
X14577833Y-12494719D01*
X14587357Y-12532814D01*
X14587357Y-12580433D01*
X14577833Y-12618529D01*
X14568309Y-12637576D01*
X14558786Y-12647100D01*
X14539738Y-12656624D01*
X14520690Y-12656624D01*
X14501643Y-12647100D01*
X14492119Y-12637576D01*
X14482595Y-12618529D01*
X14473071Y-12580433D01*
X14473071Y-12532814D01*
X14482595Y-12494719D01*
X14492119Y-12475672D01*
X14501643Y-12466148D01*
X14520690Y-12456624D01*
X14777833Y-12656624D02*
X14663548Y-12656624D01*
X14720690Y-12656624D02*
X14720690Y-12456624D01*
X14701643Y-12485195D01*
X14682595Y-12504243D01*
X14663548Y-12513767D01*
X14958786Y-12456624D02*
X14863548Y-12456624D01*
X14854024Y-12551862D01*
X14863548Y-12542338D01*
X14882595Y-12532814D01*
X14930214Y-12532814D01*
X14949262Y-12542338D01*
X14958786Y-12551862D01*
X14968309Y-12570910D01*
X14968309Y-12618529D01*
X14958786Y-12637576D01*
X14949262Y-12647100D01*
X14930214Y-12656624D01*
X14882595Y-12656624D01*
X14863548Y-12647100D01*
X14854024Y-12637576D01*
X15034976Y-12456624D02*
X15168309Y-12456624D01*
X15082595Y-12656624D01*
X15234976Y-12456624D02*
X15234976Y-12494719D01*
X15311167Y-12456624D02*
X15311167Y-12494719D01*
X15606405Y-12732814D02*
X15596881Y-12723291D01*
X15577833Y-12694719D01*
X15568309Y-12675672D01*
X15558786Y-12647100D01*
X15549262Y-12599481D01*
X15549262Y-12561386D01*
X15558786Y-12513767D01*
X15568309Y-12485195D01*
X15577833Y-12466148D01*
X15596881Y-12437576D01*
X15606405Y-12428052D01*
X15673071Y-12475672D02*
X15682595Y-12466148D01*
X15701643Y-12456624D01*
X15749262Y-12456624D01*
X15768309Y-12466148D01*
X15777833Y-12475672D01*
X15787357Y-12494719D01*
X15787357Y-12513767D01*
X15777833Y-12542338D01*
X15663548Y-12656624D01*
X15787357Y-12656624D01*
X15911167Y-12456624D02*
X15930214Y-12456624D01*
X15949262Y-12466148D01*
X15958786Y-12475672D01*
X15968309Y-12494719D01*
X15977833Y-12532814D01*
X15977833Y-12580433D01*
X15968309Y-12618529D01*
X15958786Y-12637576D01*
X15949262Y-12647100D01*
X15930214Y-12656624D01*
X15911167Y-12656624D01*
X15892119Y-12647100D01*
X15882595Y-12637576D01*
X15873071Y-12618529D01*
X15863548Y-12580433D01*
X15863548Y-12532814D01*
X15873071Y-12494719D01*
X15882595Y-12475672D01*
X15892119Y-12466148D01*
X15911167Y-12456624D01*
X16215928Y-12656624D02*
X16215928Y-12456624D01*
X16301643Y-12656624D02*
X16301643Y-12551862D01*
X16292119Y-12532814D01*
X16273071Y-12523291D01*
X16244500Y-12523291D01*
X16225452Y-12532814D01*
X16215928Y-12542338D01*
X16425452Y-12656624D02*
X16406405Y-12647100D01*
X16396881Y-12637576D01*
X16387357Y-12618529D01*
X16387357Y-12561386D01*
X16396881Y-12542338D01*
X16406405Y-12532814D01*
X16425452Y-12523291D01*
X16454024Y-12523291D01*
X16473071Y-12532814D01*
X16482595Y-12542338D01*
X16492119Y-12561386D01*
X16492119Y-12618529D01*
X16482595Y-12637576D01*
X16473071Y-12647100D01*
X16454024Y-12656624D01*
X16425452Y-12656624D01*
X16606405Y-12656624D02*
X16587357Y-12647100D01*
X16577833Y-12628052D01*
X16577833Y-12456624D01*
X16758786Y-12647100D02*
X16739738Y-12656624D01*
X16701643Y-12656624D01*
X16682595Y-12647100D01*
X16673071Y-12628052D01*
X16673071Y-12551862D01*
X16682595Y-12532814D01*
X16701643Y-12523291D01*
X16739738Y-12523291D01*
X16758786Y-12532814D01*
X16768309Y-12551862D01*
X16768309Y-12570910D01*
X16673071Y-12589957D01*
X16844500Y-12647100D02*
X16863548Y-12656624D01*
X16901643Y-12656624D01*
X16920690Y-12647100D01*
X16930214Y-12628052D01*
X16930214Y-12618529D01*
X16920690Y-12599481D01*
X16901643Y-12589957D01*
X16873071Y-12589957D01*
X16854024Y-12580433D01*
X16844500Y-12561386D01*
X16844500Y-12551862D01*
X16854024Y-12532814D01*
X16873071Y-12523291D01*
X16901643Y-12523291D01*
X16920690Y-12532814D01*
X16996881Y-12732814D02*
X17006405Y-12723291D01*
X17025452Y-12694719D01*
X17034976Y-12675672D01*
X17044500Y-12647100D01*
X17054024Y-12599481D01*
X17054024Y-12561386D01*
X17044500Y-12513767D01*
X17034976Y-12485195D01*
X17025452Y-12466148D01*
X17006405Y-12437576D01*
X16996881Y-12428052D01*
D14*
X11983500Y-12779148D02*
X11983500Y-12881148D01*
X11932500Y-12830148D02*
X12034500Y-12830148D01*
D11*
X12396881Y-12920624D02*
X12282595Y-12920624D01*
X12339738Y-12920624D02*
X12339738Y-12720624D01*
X12320690Y-12749195D01*
X12301643Y-12768243D01*
X12282595Y-12777767D01*
X12482595Y-12901576D02*
X12492119Y-12911100D01*
X12482595Y-12920624D01*
X12473071Y-12911100D01*
X12482595Y-12901576D01*
X12482595Y-12920624D01*
X12615928Y-12720624D02*
X12634976Y-12720624D01*
X12654024Y-12730148D01*
X12663548Y-12739672D01*
X12673071Y-12758719D01*
X12682595Y-12796814D01*
X12682595Y-12844433D01*
X12673071Y-12882529D01*
X12663548Y-12901576D01*
X12654024Y-12911100D01*
X12634976Y-12920624D01*
X12615928Y-12920624D01*
X12596881Y-12911100D01*
X12587357Y-12901576D01*
X12577833Y-12882529D01*
X12568309Y-12844433D01*
X12568309Y-12796814D01*
X12577833Y-12758719D01*
X12587357Y-12739672D01*
X12596881Y-12730148D01*
X12615928Y-12720624D01*
X12758786Y-12739672D02*
X12768309Y-12730148D01*
X12787357Y-12720624D01*
X12834976Y-12720624D01*
X12854024Y-12730148D01*
X12863548Y-12739672D01*
X12873071Y-12758719D01*
X12873071Y-12777767D01*
X12863548Y-12806338D01*
X12749262Y-12920624D01*
X12873071Y-12920624D01*
X12996881Y-12720624D02*
X13015928Y-12720624D01*
X13034976Y-12730148D01*
X13044500Y-12739672D01*
X13054024Y-12758719D01*
X13063548Y-12796814D01*
X13063548Y-12844433D01*
X13054024Y-12882529D01*
X13044500Y-12901576D01*
X13034976Y-12911100D01*
X13015928Y-12920624D01*
X12996881Y-12920624D01*
X12977833Y-12911100D01*
X12968309Y-12901576D01*
X12958786Y-12882529D01*
X12949262Y-12844433D01*
X12949262Y-12796814D01*
X12958786Y-12758719D01*
X12968309Y-12739672D01*
X12977833Y-12730148D01*
X12996881Y-12720624D01*
X13149262Y-12920624D02*
X13149262Y-12787291D01*
X13149262Y-12806338D02*
X13158786Y-12796814D01*
X13177833Y-12787291D01*
X13206405Y-12787291D01*
X13225452Y-12796814D01*
X13234976Y-12815862D01*
X13234976Y-12920624D01*
X13234976Y-12815862D02*
X13244500Y-12796814D01*
X13263548Y-12787291D01*
X13292119Y-12787291D01*
X13311167Y-12796814D01*
X13320690Y-12815862D01*
X13320690Y-12920624D01*
X13415928Y-12920624D02*
X13415928Y-12787291D01*
X13415928Y-12806338D02*
X13425452Y-12796814D01*
X13444500Y-12787291D01*
X13473071Y-12787291D01*
X13492119Y-12796814D01*
X13501643Y-12815862D01*
X13501643Y-12920624D01*
X13501643Y-12815862D02*
X13511167Y-12796814D01*
X13530214Y-12787291D01*
X13558786Y-12787291D01*
X13577833Y-12796814D01*
X13587357Y-12815862D01*
X13587357Y-12920624D01*
X13977833Y-12711100D02*
X13806405Y-12968243D01*
X14234976Y-12720624D02*
X14254024Y-12720624D01*
X14273071Y-12730148D01*
X14282595Y-12739672D01*
X14292119Y-12758719D01*
X14301643Y-12796814D01*
X14301643Y-12844433D01*
X14292119Y-12882529D01*
X14282595Y-12901576D01*
X14273071Y-12911100D01*
X14254024Y-12920624D01*
X14234976Y-12920624D01*
X14215928Y-12911100D01*
X14206405Y-12901576D01*
X14196881Y-12882529D01*
X14187357Y-12844433D01*
X14187357Y-12796814D01*
X14196881Y-12758719D01*
X14206405Y-12739672D01*
X14215928Y-12730148D01*
X14234976Y-12720624D01*
X14387357Y-12901576D02*
X14396881Y-12911100D01*
X14387357Y-12920624D01*
X14377833Y-12911100D01*
X14387357Y-12901576D01*
X14387357Y-12920624D01*
X14520690Y-12720624D02*
X14539738Y-12720624D01*
X14558786Y-12730148D01*
X14568309Y-12739672D01*
X14577833Y-12758719D01*
X14587357Y-12796814D01*
X14587357Y-12844433D01*
X14577833Y-12882529D01*
X14568309Y-12901576D01*
X14558786Y-12911100D01*
X14539738Y-12920624D01*
X14520690Y-12920624D01*
X14501643Y-12911100D01*
X14492119Y-12901576D01*
X14482595Y-12882529D01*
X14473071Y-12844433D01*
X14473071Y-12796814D01*
X14482595Y-12758719D01*
X14492119Y-12739672D01*
X14501643Y-12730148D01*
X14520690Y-12720624D01*
X14758786Y-12787291D02*
X14758786Y-12920624D01*
X14711167Y-12711100D02*
X14663548Y-12853957D01*
X14787357Y-12853957D01*
X14901643Y-12720624D02*
X14920690Y-12720624D01*
X14939738Y-12730148D01*
X14949262Y-12739672D01*
X14958786Y-12758719D01*
X14968309Y-12796814D01*
X14968309Y-12844433D01*
X14958786Y-12882529D01*
X14949262Y-12901576D01*
X14939738Y-12911100D01*
X14920690Y-12920624D01*
X14901643Y-12920624D01*
X14882595Y-12911100D01*
X14873071Y-12901576D01*
X14863548Y-12882529D01*
X14854024Y-12844433D01*
X14854024Y-12796814D01*
X14863548Y-12758719D01*
X14873071Y-12739672D01*
X14882595Y-12730148D01*
X14901643Y-12720624D01*
X15044500Y-12739672D02*
X15054024Y-12730148D01*
X15073071Y-12720624D01*
X15120690Y-12720624D01*
X15139738Y-12730148D01*
X15149262Y-12739672D01*
X15158786Y-12758719D01*
X15158786Y-12777767D01*
X15149262Y-12806338D01*
X15034976Y-12920624D01*
X15158786Y-12920624D01*
X15234976Y-12720624D02*
X15234976Y-12758719D01*
X15311167Y-12720624D02*
X15311167Y-12758719D01*
X15606405Y-12996814D02*
X15596881Y-12987291D01*
X15577833Y-12958719D01*
X15568309Y-12939672D01*
X15558786Y-12911100D01*
X15549262Y-12863481D01*
X15549262Y-12825386D01*
X15558786Y-12777767D01*
X15568309Y-12749195D01*
X15577833Y-12730148D01*
X15596881Y-12701576D01*
X15606405Y-12692052D01*
X15663548Y-12720624D02*
X15787357Y-12720624D01*
X15720690Y-12796814D01*
X15749262Y-12796814D01*
X15768309Y-12806338D01*
X15777833Y-12815862D01*
X15787357Y-12834910D01*
X15787357Y-12882529D01*
X15777833Y-12901576D01*
X15768309Y-12911100D01*
X15749262Y-12920624D01*
X15692119Y-12920624D01*
X15673071Y-12911100D01*
X15663548Y-12901576D01*
X15863548Y-12739672D02*
X15873071Y-12730148D01*
X15892119Y-12720624D01*
X15939738Y-12720624D01*
X15958786Y-12730148D01*
X15968309Y-12739672D01*
X15977833Y-12758719D01*
X15977833Y-12777767D01*
X15968309Y-12806338D01*
X15854024Y-12920624D01*
X15977833Y-12920624D01*
X16215928Y-12920624D02*
X16215928Y-12720624D01*
X16301643Y-12920624D02*
X16301643Y-12815862D01*
X16292119Y-12796814D01*
X16273071Y-12787291D01*
X16244500Y-12787291D01*
X16225452Y-12796814D01*
X16215928Y-12806338D01*
X16425452Y-12920624D02*
X16406405Y-12911100D01*
X16396881Y-12901576D01*
X16387357Y-12882529D01*
X16387357Y-12825386D01*
X16396881Y-12806338D01*
X16406405Y-12796814D01*
X16425452Y-12787291D01*
X16454024Y-12787291D01*
X16473071Y-12796814D01*
X16482595Y-12806338D01*
X16492119Y-12825386D01*
X16492119Y-12882529D01*
X16482595Y-12901576D01*
X16473071Y-12911100D01*
X16454024Y-12920624D01*
X16425452Y-12920624D01*
X16606405Y-12920624D02*
X16587357Y-12911100D01*
X16577833Y-12892052D01*
X16577833Y-12720624D01*
X16758786Y-12911100D02*
X16739738Y-12920624D01*
X16701643Y-12920624D01*
X16682595Y-12911100D01*
X16673071Y-12892052D01*
X16673071Y-12815862D01*
X16682595Y-12796814D01*
X16701643Y-12787291D01*
X16739738Y-12787291D01*
X16758786Y-12796814D01*
X16768309Y-12815862D01*
X16768309Y-12834910D01*
X16673071Y-12853957D01*
X16844500Y-12911100D02*
X16863548Y-12920624D01*
X16901643Y-12920624D01*
X16920690Y-12911100D01*
X16930214Y-12892052D01*
X16930214Y-12882529D01*
X16920690Y-12863481D01*
X16901643Y-12853957D01*
X16873071Y-12853957D01*
X16854024Y-12844433D01*
X16844500Y-12825386D01*
X16844500Y-12815862D01*
X16854024Y-12796814D01*
X16873071Y-12787291D01*
X16901643Y-12787291D01*
X16920690Y-12796814D01*
X16996881Y-12996814D02*
X17006405Y-12987291D01*
X17025452Y-12958719D01*
X17034976Y-12939672D01*
X17044500Y-12911100D01*
X17054024Y-12863481D01*
X17054024Y-12825386D01*
X17044500Y-12777767D01*
X17034976Y-12749195D01*
X17025452Y-12730148D01*
X17006405Y-12701576D01*
X16996881Y-12692052D01*
D15*
X12015462Y-13140110D02*
X12015462Y-13048185D01*
X11923538Y-13048185D01*
X11923538Y-13140110D01*
X12015462Y-13140110D01*
D11*
X12396881Y-13184624D02*
X12282595Y-13184624D01*
X12339738Y-13184624D02*
X12339738Y-12984624D01*
X12320690Y-13013195D01*
X12301643Y-13032243D01*
X12282595Y-13041767D01*
X12482595Y-13165576D02*
X12492119Y-13175100D01*
X12482595Y-13184624D01*
X12473071Y-13175100D01*
X12482595Y-13165576D01*
X12482595Y-13184624D01*
X12558786Y-12984624D02*
X12682595Y-12984624D01*
X12615928Y-13060814D01*
X12644500Y-13060814D01*
X12663548Y-13070338D01*
X12673071Y-13079862D01*
X12682595Y-13098910D01*
X12682595Y-13146529D01*
X12673071Y-13165576D01*
X12663548Y-13175100D01*
X12644500Y-13184624D01*
X12587357Y-13184624D01*
X12568309Y-13175100D01*
X12558786Y-13165576D01*
X12806405Y-12984624D02*
X12825452Y-12984624D01*
X12844500Y-12994148D01*
X12854024Y-13003672D01*
X12863548Y-13022719D01*
X12873071Y-13060814D01*
X12873071Y-13108433D01*
X12863548Y-13146529D01*
X12854024Y-13165576D01*
X12844500Y-13175100D01*
X12825452Y-13184624D01*
X12806405Y-13184624D01*
X12787357Y-13175100D01*
X12777833Y-13165576D01*
X12768309Y-13146529D01*
X12758786Y-13108433D01*
X12758786Y-13060814D01*
X12768309Y-13022719D01*
X12777833Y-13003672D01*
X12787357Y-12994148D01*
X12806405Y-12984624D01*
X12996881Y-12984624D02*
X13015928Y-12984624D01*
X13034976Y-12994148D01*
X13044500Y-13003672D01*
X13054024Y-13022719D01*
X13063548Y-13060814D01*
X13063548Y-13108433D01*
X13054024Y-13146529D01*
X13044500Y-13165576D01*
X13034976Y-13175100D01*
X13015928Y-13184624D01*
X12996881Y-13184624D01*
X12977833Y-13175100D01*
X12968309Y-13165576D01*
X12958786Y-13146529D01*
X12949262Y-13108433D01*
X12949262Y-13060814D01*
X12958786Y-13022719D01*
X12968309Y-13003672D01*
X12977833Y-12994148D01*
X12996881Y-12984624D01*
X13149262Y-13184624D02*
X13149262Y-13051291D01*
X13149262Y-13070338D02*
X13158786Y-13060814D01*
X13177833Y-13051291D01*
X13206405Y-13051291D01*
X13225452Y-13060814D01*
X13234976Y-13079862D01*
X13234976Y-13184624D01*
X13234976Y-13079862D02*
X13244500Y-13060814D01*
X13263548Y-13051291D01*
X13292119Y-13051291D01*
X13311167Y-13060814D01*
X13320690Y-13079862D01*
X13320690Y-13184624D01*
X13415928Y-13184624D02*
X13415928Y-13051291D01*
X13415928Y-13070338D02*
X13425452Y-13060814D01*
X13444500Y-13051291D01*
X13473071Y-13051291D01*
X13492119Y-13060814D01*
X13501643Y-13079862D01*
X13501643Y-13184624D01*
X13501643Y-13079862D02*
X13511167Y-13060814D01*
X13530214Y-13051291D01*
X13558786Y-13051291D01*
X13577833Y-13060814D01*
X13587357Y-13079862D01*
X13587357Y-13184624D01*
X13977833Y-12975100D02*
X13806405Y-13232243D01*
X14234976Y-12984624D02*
X14254024Y-12984624D01*
X14273071Y-12994148D01*
X14282595Y-13003672D01*
X14292119Y-13022719D01*
X14301643Y-13060814D01*
X14301643Y-13108433D01*
X14292119Y-13146529D01*
X14282595Y-13165576D01*
X14273071Y-13175100D01*
X14254024Y-13184624D01*
X14234976Y-13184624D01*
X14215928Y-13175100D01*
X14206405Y-13165576D01*
X14196881Y-13146529D01*
X14187357Y-13108433D01*
X14187357Y-13060814D01*
X14196881Y-13022719D01*
X14206405Y-13003672D01*
X14215928Y-12994148D01*
X14234976Y-12984624D01*
X14387357Y-13165576D02*
X14396881Y-13175100D01*
X14387357Y-13184624D01*
X14377833Y-13175100D01*
X14387357Y-13165576D01*
X14387357Y-13184624D01*
X14520690Y-12984624D02*
X14539738Y-12984624D01*
X14558786Y-12994148D01*
X14568309Y-13003672D01*
X14577833Y-13022719D01*
X14587357Y-13060814D01*
X14587357Y-13108433D01*
X14577833Y-13146529D01*
X14568309Y-13165576D01*
X14558786Y-13175100D01*
X14539738Y-13184624D01*
X14520690Y-13184624D01*
X14501643Y-13175100D01*
X14492119Y-13165576D01*
X14482595Y-13146529D01*
X14473071Y-13108433D01*
X14473071Y-13060814D01*
X14482595Y-13022719D01*
X14492119Y-13003672D01*
X14501643Y-12994148D01*
X14520690Y-12984624D01*
X14768309Y-12984624D02*
X14673071Y-12984624D01*
X14663548Y-13079862D01*
X14673071Y-13070338D01*
X14692119Y-13060814D01*
X14739738Y-13060814D01*
X14758786Y-13070338D01*
X14768309Y-13079862D01*
X14777833Y-13098910D01*
X14777833Y-13146529D01*
X14768309Y-13165576D01*
X14758786Y-13175100D01*
X14739738Y-13184624D01*
X14692119Y-13184624D01*
X14673071Y-13175100D01*
X14663548Y-13165576D01*
X14968309Y-13184624D02*
X14854024Y-13184624D01*
X14911167Y-13184624D02*
X14911167Y-12984624D01*
X14892119Y-13013195D01*
X14873071Y-13032243D01*
X14854024Y-13041767D01*
X15044500Y-13003672D02*
X15054024Y-12994148D01*
X15073071Y-12984624D01*
X15120690Y-12984624D01*
X15139738Y-12994148D01*
X15149262Y-13003672D01*
X15158786Y-13022719D01*
X15158786Y-13041767D01*
X15149262Y-13070338D01*
X15034976Y-13184624D01*
X15158786Y-13184624D01*
X15234976Y-12984624D02*
X15234976Y-13022719D01*
X15311167Y-12984624D02*
X15311167Y-13022719D01*
X15606405Y-13260814D02*
X15596881Y-13251291D01*
X15577833Y-13222719D01*
X15568309Y-13203672D01*
X15558786Y-13175100D01*
X15549262Y-13127481D01*
X15549262Y-13089386D01*
X15558786Y-13041767D01*
X15568309Y-13013195D01*
X15577833Y-12994148D01*
X15596881Y-12965576D01*
X15606405Y-12956052D01*
X15768309Y-13051291D02*
X15768309Y-13184624D01*
X15720690Y-12975100D02*
X15673071Y-13117957D01*
X15796881Y-13117957D01*
X16025452Y-13184624D02*
X16025452Y-12984624D01*
X16111167Y-13184624D02*
X16111167Y-13079862D01*
X16101643Y-13060814D01*
X16082595Y-13051291D01*
X16054024Y-13051291D01*
X16034976Y-13060814D01*
X16025452Y-13070338D01*
X16234976Y-13184624D02*
X16215928Y-13175100D01*
X16206405Y-13165576D01*
X16196881Y-13146529D01*
X16196881Y-13089386D01*
X16206405Y-13070338D01*
X16215928Y-13060814D01*
X16234976Y-13051291D01*
X16263548Y-13051291D01*
X16282595Y-13060814D01*
X16292119Y-13070338D01*
X16301643Y-13089386D01*
X16301643Y-13146529D01*
X16292119Y-13165576D01*
X16282595Y-13175100D01*
X16263548Y-13184624D01*
X16234976Y-13184624D01*
X16415928Y-13184624D02*
X16396881Y-13175100D01*
X16387357Y-13156052D01*
X16387357Y-12984624D01*
X16568309Y-13175100D02*
X16549262Y-13184624D01*
X16511167Y-13184624D01*
X16492119Y-13175100D01*
X16482595Y-13156052D01*
X16482595Y-13079862D01*
X16492119Y-13060814D01*
X16511167Y-13051291D01*
X16549262Y-13051291D01*
X16568309Y-13060814D01*
X16577833Y-13079862D01*
X16577833Y-13098910D01*
X16482595Y-13117957D01*
X16654024Y-13175100D02*
X16673071Y-13184624D01*
X16711167Y-13184624D01*
X16730214Y-13175100D01*
X16739738Y-13156052D01*
X16739738Y-13146529D01*
X16730214Y-13127481D01*
X16711167Y-13117957D01*
X16682595Y-13117957D01*
X16663548Y-13108433D01*
X16654024Y-13089386D01*
X16654024Y-13079862D01*
X16663548Y-13060814D01*
X16682595Y-13051291D01*
X16711167Y-13051291D01*
X16730214Y-13060814D01*
X16806405Y-13260814D02*
X16815929Y-13251291D01*
X16834976Y-13222719D01*
X16844500Y-13203672D01*
X16854024Y-13175100D01*
X16863548Y-13127481D01*
X16863548Y-13089386D01*
X16854024Y-13041767D01*
X16844500Y-13013195D01*
X16834976Y-12994148D01*
X16815929Y-12965576D01*
X16806405Y-12956052D01*
M02*
