%TF.GenerationSoftware,KiCad,Pcbnew,(6.0.11-0)*%
%TF.CreationDate,2023-07-31T17:49:32-05:00*%
%TF.ProjectId,PicoDVI-N64,5069636f-4456-4492-9d4e-36342e6b6963,rev?*%
%TF.SameCoordinates,Original*%
%TF.FileFunction,Drillmap*%
%TF.FilePolarity,Positive*%
%FSLAX45Y45*%
G04 Gerber Fmt 4.5, Leading zero omitted, Abs format (unit mm)*
G04 Created by KiCad (PCBNEW (6.0.11-0)) date 2023-07-31 17:49:32*
%MOMM*%
%LPD*%
G01*
G04 APERTURE LIST*
%ADD10C,0.050000*%
%ADD11C,0.200000*%
G04 APERTURE END LIST*
D10*
X14707500Y-10200500D02*
X12056351Y-10202647D01*
X17369500Y-11050500D02*
X17369646Y-11609646D01*
X14549500Y-10909499D02*
G75*
G03*
X14397500Y-11069000I-530J-151671D01*
G01*
X12056999Y-8026568D02*
G75*
G03*
X12037000Y-8044062I-1799J-18122D01*
G01*
X17143000Y-10202145D02*
G75*
G03*
X17157000Y-10189500I-2920J17305D01*
G01*
X17007852Y-10859648D02*
G75*
G03*
X17057852Y-10909648I50008J8D01*
G01*
X17056854Y-10201994D02*
G75*
G03*
X17006854Y-10252000I6J-50006D01*
G01*
X17220000Y-10910000D02*
X17057852Y-10909648D01*
X12042000Y-10189000D02*
G75*
G03*
X12056351Y-10202647I14330J700D01*
G01*
X17369500Y-11050500D02*
G75*
G03*
X17220000Y-10910000I-144758J-4242D01*
G01*
X12042000Y-10189000D02*
X12037000Y-8044062D01*
X17143000Y-10202146D02*
X17056854Y-10202000D01*
X14397500Y-11069000D02*
X14397851Y-11609648D01*
X17160502Y-8041500D02*
G75*
G03*
X17142646Y-8024854I-17862J-1260D01*
G01*
X14397852Y-11609648D02*
G75*
G03*
X14447851Y-11659648I50008J8D01*
G01*
X17006854Y-10252000D02*
X17007852Y-10859648D01*
X12057000Y-8026562D02*
X17142646Y-8024854D01*
X17319646Y-11659646D02*
G75*
G03*
X17369646Y-11609646I-6J50006D01*
G01*
X17319646Y-11659646D02*
X14447851Y-11659648D01*
X17157000Y-10189500D02*
X17160500Y-8041500D01*
X14707146Y-10909646D02*
X14549500Y-10909500D01*
X14757500Y-10250500D02*
G75*
G03*
X14707500Y-10200500I-50000J0D01*
G01*
X14707146Y-10909646D02*
G75*
G03*
X14757146Y-10859646I-6J50006D01*
G01*
X14757146Y-10859646D02*
X14757500Y-10250500D01*
D11*
X12292119Y-11972624D02*
X12292119Y-11772624D01*
X12339738Y-11772624D01*
X12368309Y-11782148D01*
X12387357Y-11801195D01*
X12396881Y-11820243D01*
X12406405Y-11858338D01*
X12406405Y-11886910D01*
X12396881Y-11925005D01*
X12387357Y-11944052D01*
X12368309Y-11963100D01*
X12339738Y-11972624D01*
X12292119Y-11972624D01*
X12492119Y-11972624D02*
X12492119Y-11839291D01*
X12492119Y-11877386D02*
X12501643Y-11858338D01*
X12511167Y-11848814D01*
X12530214Y-11839291D01*
X12549262Y-11839291D01*
X12615928Y-11972624D02*
X12615928Y-11839291D01*
X12615928Y-11772624D02*
X12606405Y-11782148D01*
X12615928Y-11791672D01*
X12625452Y-11782148D01*
X12615928Y-11772624D01*
X12615928Y-11791672D01*
X12739738Y-11972624D02*
X12720690Y-11963100D01*
X12711167Y-11944052D01*
X12711167Y-11772624D01*
X12844500Y-11972624D02*
X12825452Y-11963100D01*
X12815928Y-11944052D01*
X12815928Y-11772624D01*
X13073071Y-11972624D02*
X13073071Y-11772624D01*
X13139738Y-11915481D01*
X13206405Y-11772624D01*
X13206405Y-11972624D01*
X13387357Y-11972624D02*
X13387357Y-11867862D01*
X13377833Y-11848814D01*
X13358786Y-11839291D01*
X13320690Y-11839291D01*
X13301643Y-11848814D01*
X13387357Y-11963100D02*
X13368309Y-11972624D01*
X13320690Y-11972624D01*
X13301643Y-11963100D01*
X13292119Y-11944052D01*
X13292119Y-11925005D01*
X13301643Y-11905957D01*
X13320690Y-11896433D01*
X13368309Y-11896433D01*
X13387357Y-11886910D01*
X13482595Y-11839291D02*
X13482595Y-12039291D01*
X13482595Y-11848814D02*
X13501643Y-11839291D01*
X13539738Y-11839291D01*
X13558786Y-11848814D01*
X13568309Y-11858338D01*
X13577833Y-11877386D01*
X13577833Y-11934529D01*
X13568309Y-11953576D01*
X13558786Y-11963100D01*
X13539738Y-11972624D01*
X13501643Y-11972624D01*
X13482595Y-11963100D01*
X13663548Y-11953576D02*
X13673071Y-11963100D01*
X13663548Y-11972624D01*
X13654024Y-11963100D01*
X13663548Y-11953576D01*
X13663548Y-11972624D01*
X13663548Y-11848814D02*
X13673071Y-11858338D01*
X13663548Y-11867862D01*
X13654024Y-11858338D01*
X13663548Y-11848814D01*
X13663548Y-11867862D01*
M02*
