%TF.GenerationSoftware,KiCad,Pcbnew,(6.0.11-0)*%
%TF.CreationDate,2023-07-21T19:28:34-05:00*%
%TF.ProjectId,PicoDVI-N64,5069636f-4456-4492-9d4e-36342e6b6963,rev?*%
%TF.SameCoordinates,Original*%
%TF.FileFunction,Profile,NP*%
%FSLAX46Y46*%
G04 Gerber Fmt 4.6, Leading zero omitted, Abs format (unit mm)*
G04 Created by KiCad (PCBNEW (6.0.11-0)) date 2023-07-21 19:28:34*
%MOMM*%
%LPD*%
G01*
G04 APERTURE LIST*
%TA.AperFunction,Profile*%
%ADD10C,0.050000*%
%TD*%
G04 APERTURE END LIST*
D10*
X147075000Y-102005000D02*
X120563515Y-102026467D01*
X173700000Y-109930000D02*
X173696460Y-116096460D01*
X144947935Y-109094780D02*
G75*
G03*
X143980000Y-110120000I20712J-989090D01*
G01*
X120569994Y-80265683D02*
G75*
G03*
X120370000Y-80440622I-17994J-181217D01*
G01*
X171430000Y-102021460D02*
G75*
G03*
X171570000Y-101895000I-29230J173084D01*
G01*
X170078516Y-108596484D02*
G75*
G03*
X170578516Y-109096484I500084J84D01*
G01*
X170568540Y-102020000D02*
G75*
G03*
X170068540Y-102520000I47J-500047D01*
G01*
X172885000Y-109095000D02*
X170578516Y-109096484D01*
X120420004Y-101890000D02*
G75*
G03*
X120563515Y-102026467I143296J7000D01*
G01*
X173700089Y-109930002D02*
G75*
G03*
X172885000Y-109095000I-816189J18602D01*
G01*
X120420000Y-101890000D02*
X120370000Y-80440622D01*
X171430000Y-102021460D02*
X170568540Y-102020000D01*
X143980000Y-110120000D02*
X143978511Y-116096478D01*
X171604998Y-80415000D02*
G75*
G03*
X171426460Y-80248540I-178615J-12599D01*
G01*
X143978522Y-116096478D02*
G75*
G03*
X144478511Y-116596478I500078J78D01*
G01*
X170068540Y-102520000D02*
X170078516Y-108596484D01*
X120570000Y-80265622D02*
X171426460Y-80248540D01*
X173196460Y-116596460D02*
G75*
G03*
X173696460Y-116096460I-82J500082D01*
G01*
X173196460Y-116596460D02*
X144478511Y-116596478D01*
X171570000Y-101895000D02*
X171605000Y-80415000D01*
X147071460Y-109096460D02*
X144947935Y-109094780D01*
X147575000Y-102505000D02*
G75*
G03*
X147075000Y-102005000I-500047J-47D01*
G01*
X147071460Y-109096460D02*
G75*
G03*
X147571460Y-108596460I-60J500060D01*
G01*
X147571460Y-108596460D02*
X147575000Y-102505000D01*
M02*
