%TF.GenerationSoftware,KiCad,Pcbnew,(6.0.11-0)*%
%TF.CreationDate,2023-07-08T11:49:29-05:00*%
%TF.ProjectId,PicoDVI-N64,5069636f-4456-4492-9d4e-36342e6b6963,rev?*%
%TF.SameCoordinates,Original*%
%TF.FileFunction,Drillmap*%
%TF.FilePolarity,Positive*%
%FSLAX45Y45*%
G04 Gerber Fmt 4.5, Leading zero omitted, Abs format (unit mm)*
G04 Created by KiCad (PCBNEW (6.0.11-0)) date 2023-07-08 11:49:29*
%MOMM*%
%LPD*%
G01*
G04 APERTURE LIST*
%ADD10C,0.050000*%
%ADD11C,0.200000*%
G04 APERTURE END LIST*
D10*
X14707145Y-10320355D02*
X12035354Y-10317500D01*
X17369646Y-10960354D02*
X17369646Y-11609646D01*
X14447854Y-10907854D02*
G75*
G03*
X14397854Y-10957854I6J-50006D01*
G01*
X12032854Y-7870004D02*
G75*
G03*
X11982854Y-7920000I6J-50006D01*
G01*
X17244646Y-10294646D02*
G75*
G03*
X17294646Y-10244646I-6J50006D01*
G01*
X17007852Y-10859648D02*
G75*
G03*
X17057852Y-10909648I50008J8D01*
G01*
X17057855Y-10295355D02*
G75*
G03*
X17007855Y-10345355I5J-50005D01*
G01*
X17319646Y-10910354D02*
X17057852Y-10909648D01*
X11985360Y-10267500D02*
G75*
G03*
X12035354Y-10317500I50000J0D01*
G01*
X17369646Y-10960354D02*
G75*
G03*
X17319646Y-10910354I-50006J-6D01*
G01*
X11985354Y-10267500D02*
X11982854Y-7920000D01*
X17244646Y-10294646D02*
X17057855Y-10295355D01*
X14397854Y-10957854D02*
X14397851Y-11609648D01*
X17292145Y-7917855D02*
G75*
G03*
X17242145Y-7867855I-50005J-5D01*
G01*
X14397852Y-11609648D02*
G75*
G03*
X14447851Y-11659648I50008J8D01*
G01*
X17007855Y-10345355D02*
X17007852Y-10859648D01*
X12032854Y-7870000D02*
X17242145Y-7867855D01*
X17319646Y-11659646D02*
G75*
G03*
X17369646Y-11609646I-6J50006D01*
G01*
X17319646Y-11659646D02*
X14447851Y-11659648D01*
X17294646Y-10244646D02*
X17292145Y-7917855D01*
X14707146Y-10909646D02*
X14447854Y-10907854D01*
X14757145Y-10370355D02*
G75*
G03*
X14707145Y-10320355I-50005J-5D01*
G01*
X14707146Y-10909646D02*
G75*
G03*
X14757146Y-10859646I-6J50006D01*
G01*
X14757146Y-10859646D02*
X14757145Y-10370355D01*
D11*
X12237973Y-11972624D02*
X12237973Y-11772624D01*
X12285592Y-11772624D01*
X12314163Y-11782148D01*
X12333211Y-11801195D01*
X12342735Y-11820243D01*
X12352259Y-11858338D01*
X12352259Y-11886910D01*
X12342735Y-11925005D01*
X12333211Y-11944052D01*
X12314163Y-11963100D01*
X12285592Y-11972624D01*
X12237973Y-11972624D01*
X12437973Y-11972624D02*
X12437973Y-11839291D01*
X12437973Y-11877386D02*
X12447497Y-11858338D01*
X12457021Y-11848814D01*
X12476068Y-11839291D01*
X12495116Y-11839291D01*
X12561782Y-11972624D02*
X12561782Y-11839291D01*
X12561782Y-11772624D02*
X12552259Y-11782148D01*
X12561782Y-11791672D01*
X12571306Y-11782148D01*
X12561782Y-11772624D01*
X12561782Y-11791672D01*
X12685592Y-11972624D02*
X12666544Y-11963100D01*
X12657021Y-11944052D01*
X12657021Y-11772624D01*
X12790354Y-11972624D02*
X12771306Y-11963100D01*
X12761782Y-11944052D01*
X12761782Y-11772624D01*
X13018925Y-11972624D02*
X13018925Y-11772624D01*
X13085592Y-11915481D01*
X13152259Y-11772624D01*
X13152259Y-11972624D01*
X13333211Y-11972624D02*
X13333211Y-11867862D01*
X13323687Y-11848814D01*
X13304640Y-11839291D01*
X13266544Y-11839291D01*
X13247497Y-11848814D01*
X13333211Y-11963100D02*
X13314163Y-11972624D01*
X13266544Y-11972624D01*
X13247497Y-11963100D01*
X13237973Y-11944052D01*
X13237973Y-11925005D01*
X13247497Y-11905957D01*
X13266544Y-11896433D01*
X13314163Y-11896433D01*
X13333211Y-11886910D01*
X13428449Y-11839291D02*
X13428449Y-12039291D01*
X13428449Y-11848814D02*
X13447497Y-11839291D01*
X13485592Y-11839291D01*
X13504640Y-11848814D01*
X13514163Y-11858338D01*
X13523687Y-11877386D01*
X13523687Y-11934529D01*
X13514163Y-11953576D01*
X13504640Y-11963100D01*
X13485592Y-11972624D01*
X13447497Y-11972624D01*
X13428449Y-11963100D01*
X13609402Y-11953576D02*
X13618925Y-11963100D01*
X13609402Y-11972624D01*
X13599878Y-11963100D01*
X13609402Y-11953576D01*
X13609402Y-11972624D01*
X13609402Y-11848814D02*
X13618925Y-11858338D01*
X13609402Y-11867862D01*
X13599878Y-11858338D01*
X13609402Y-11848814D01*
X13609402Y-11867862D01*
M02*
